<?xml version="1.0" encoding="utf-8" standalone="no"?>
<!DOCTYPE svg PUBLIC "-//W3C//DTD SVG 1.1//EN"
  "http://www.w3.org/Graphics/SVG/1.1/DTD/svg11.dtd">
<!-- Created with matplotlib (https://matplotlib.org/) -->
<svg height="360pt" version="1.1" viewBox="0 0 360 360" width="360pt" xmlns="http://www.w3.org/2000/svg" xmlns:xlink="http://www.w3.org/1999/xlink">
 <defs>
  <style type="text/css">
*{stroke-linecap:butt;stroke-linejoin:round;}
  </style>
 </defs>
 <g id="figure_1">
  <g id="patch_1">
   <path d="M 0 360 
L 360 360 
L 360 0 
L 0 0 
z
" style="fill:#ffffff;"/>
  </g>
  <g id="axes_1">
   <g id="patch_2">
    <path d="M 45 315 
L 324 315 
L 324 43.2 
L 45 43.2 
z
" style="fill:#ffffff;"/>
   </g>
   <g id="matplotlib.axis_1">
    <g id="xtick_1">
     <g id="line2d_1">
      <defs>
       <path d="M 0 0 
L 0 6 
" id="mac2b185464" style="stroke:#262626;stroke-width:1.25;"/>
      </defs>
      <g>
       <use style="fill:#262626;stroke:#262626;stroke-width:1.25;" x="114.75" xlink:href="#mac2b185464" y="315"/>
      </g>
     </g>
     <g id="text_1">
      <text style="fill:#262626;font-family:DejaVu Sans;font-size:22px;font-style:normal;font-weight:normal;text-anchor:middle;" transform="rotate(-0, 114.75, 341.216563)" x="114.75" y="341.216563">False</text>
     </g>
    </g>
    <g id="xtick_2">
     <g id="line2d_2">
      <g>
       <use style="fill:#262626;stroke:#262626;stroke-width:1.25;" x="254.25" xlink:href="#mac2b185464" y="315"/>
      </g>
     </g>
     <g id="text_2">
      <text style="fill:#262626;font-family:DejaVu Sans;font-size:22px;font-style:normal;font-weight:normal;text-anchor:middle;" transform="rotate(-0, 254.25, 341.216563)" x="254.25" y="341.216563">True</text>
     </g>
    </g>
    <g id="text_3">
     <text style="fill:#262626;font-family:DejaVu Sans;font-size:24px;font-style:normal;font-weight:normal;" transform="translate(91.580625 368.028125)">Prediction label</text>
     <text style="fill:#262626;font-family:DejaVu Sans;font-size:24px;font-style:normal;font-weight:normal;" transform="translate(95.465625 394.902875)">(threshold 0.5)</text>
    </g>
   </g>
   <g id="matplotlib.axis_2">
    <g id="ytick_1">
     <g id="line2d_3">
      <defs>
       <path d="M 0 0 
L -6 0 
" id="mcbb1a1c39f" style="stroke:#262626;stroke-width:1.25;"/>
      </defs>
      <g>
       <use style="fill:#262626;stroke:#262626;stroke-width:1.25;" x="45" xlink:href="#mcbb1a1c39f" y="315"/>
      </g>
     </g>
     <g id="text_4">
      <text style="fill:#262626;font-family:DejaVu Sans;font-size:22px;font-style:normal;font-weight:normal;text-anchor:end;" transform="rotate(-0, 35.5, 323.358281)" x="35.5" y="323.358281">0</text>
     </g>
    </g>
    <g id="ytick_2">
     <g id="line2d_4">
      <g>
       <use style="fill:#262626;stroke:#262626;stroke-width:1.25;" x="45" xlink:href="#mcbb1a1c39f" y="245.750106"/>
      </g>
     </g>
     <g id="text_5">
      <text style="fill:#262626;font-family:DejaVu Sans;font-size:22px;font-style:normal;font-weight:normal;text-anchor:end;" transform="rotate(-0, 35.5, 254.108387)" x="35.5" y="254.108387">200000</text>
     </g>
    </g>
    <g id="ytick_3">
     <g id="line2d_5">
      <g>
       <use style="fill:#262626;stroke:#262626;stroke-width:1.25;" x="45" xlink:href="#mcbb1a1c39f" y="176.500212"/>
      </g>
     </g>
     <g id="text_6">
      <text style="fill:#262626;font-family:DejaVu Sans;font-size:22px;font-style:normal;font-weight:normal;text-anchor:end;" transform="rotate(-0, 35.5, 184.858493)" x="35.5" y="184.858493">400000</text>
     </g>
    </g>
    <g id="ytick_4">
     <g id="line2d_6">
      <g>
       <use style="fill:#262626;stroke:#262626;stroke-width:1.25;" x="45" xlink:href="#mcbb1a1c39f" y="107.250318"/>
      </g>
     </g>
     <g id="text_7">
      <text style="fill:#262626;font-family:DejaVu Sans;font-size:22px;font-style:normal;font-weight:normal;text-anchor:end;" transform="rotate(-0, 35.5, 115.608599)" x="35.5" y="115.608599">600000</text>
     </g>
    </g>
    <g id="text_8">
     <text style="fill:#262626;font-family:DejaVu Sans;font-size:24px;font-style:normal;font-weight:normal;text-anchor:middle;" transform="rotate(-90, -57.47625, 179.1)" x="-57.47625" y="179.1">count</text>
    </g>
   </g>
   <g id="patch_3">
    <path clip-path="url(#pc333fc44aa)" d="M 58.95 315 
L 114.75 315 
L 114.75 56.142857 
L 58.95 56.142857 
z
" style="fill:#166c9c;stroke:#ffffff;stroke-linejoin:miter;"/>
   </g>
   <g id="patch_4">
    <path clip-path="url(#pc333fc44aa)" d="M 198.45 315 
L 254.25 315 
L 254.25 311.737637 
L 198.45 311.737637 
z
" style="fill:#166c9c;stroke:#ffffff;stroke-linejoin:miter;"/>
   </g>
   <g id="patch_5">
    <path clip-path="url(#pc333fc44aa)" d="M 114.75 315 
L 170.55 315 
L 170.55 245.310369 
L 114.75 245.310369 
z
" style="fill:#ba611b;stroke:#ffffff;stroke-linejoin:miter;"/>
   </g>
   <g id="patch_6">
    <path clip-path="url(#pc333fc44aa)" d="M 254.25 315 
L 310.05 315 
L 310.05 191.500085 
L 254.25 191.500085 
z
" style="fill:#ba611b;stroke:#ffffff;stroke-linejoin:miter;"/>
   </g>
   <g id="patch_7">
    <path d="M 45 315 
L 45 43.2 
" style="fill:none;stroke:#262626;stroke-linecap:square;stroke-linejoin:miter;stroke-width:1.25;"/>
   </g>
   <g id="patch_8">
    <path d="M 324 315 
L 324 43.2 
" style="fill:none;stroke:#262626;stroke-linecap:square;stroke-linejoin:miter;stroke-width:1.25;"/>
   </g>
   <g id="patch_9">
    <path d="M 45 315 
L 324 315 
" style="fill:none;stroke:#262626;stroke-linecap:square;stroke-linejoin:miter;stroke-width:1.25;"/>
   </g>
   <g id="patch_10">
    <path d="M 45 43.2 
L 324 43.2 
" style="fill:none;stroke:#262626;stroke-linecap:square;stroke-linejoin:miter;stroke-width:1.25;"/>
   </g>
   <g id="legend_1">
    <g id="patch_11">
     <path d="M 130.464063 156.127125 
L 308.6 156.127125 
Q 313 156.127125 313 151.727125 
L 313 58.6 
Q 313 54.2 308.6 54.2 
L 130.464063 54.2 
Q 126.064063 54.2 126.064063 58.6 
L 126.064063 151.727125 
Q 126.064063 156.127125 130.464063 156.127125 
z
" style="fill:#ffffff;opacity:0.8;stroke:#cccccc;stroke-linejoin:miter;"/>
    </g>
    <g id="text_9">
     <text style="fill:#262626;font-family:DejaVu Sans;font-size:20.4px;font-style:normal;font-weight:normal;text-anchor:start;" transform="rotate(-0, 134.864063, 78.500812)" x="134.864063" y="78.500812">Adapter Ligation</text>
    </g>
    <g id="patch_12">
     <path d="M 160.125156 110.459937 
L 204.125156 110.459937 
L 204.125156 95.059937 
L 160.125156 95.059937 
z
" style="fill:#166c9c;stroke:#ffffff;stroke-linejoin:miter;"/>
    </g>
    <g id="text_10">
     <text style="fill:#262626;font-family:DejaVu Sans;font-size:22px;font-style:normal;font-weight:normal;text-anchor:start;" transform="rotate(-0, 221.725156, 110.459937)" x="221.725156" y="110.459937">False</text>
    </g>
    <g id="patch_13">
     <path d="M 160.125156 142.751812 
L 204.125156 142.751812 
L 204.125156 127.351812 
L 160.125156 127.351812 
z
" style="fill:#ba611b;stroke:#ffffff;stroke-linejoin:miter;"/>
    </g>
    <g id="text_11">
     <text style="fill:#262626;font-family:DejaVu Sans;font-size:22px;font-style:normal;font-weight:normal;text-anchor:start;" transform="rotate(-0, 221.725156, 142.751812)" x="221.725156" y="142.751812">True</text>
    </g>
   </g>
  </g>
 </g>
 <defs>
  <clipPath id="pc333fc44aa">
   <rect height="271.8" width="279" x="45" y="43.2"/>
  </clipPath>
 </defs>
</svg>
