<?xml version="1.0" encoding="utf-8" standalone="no"?>
<!DOCTYPE svg PUBLIC "-//W3C//DTD SVG 1.1//EN"
  "http://www.w3.org/Graphics/SVG/1.1/DTD/svg11.dtd">
<!-- Created with matplotlib (https://matplotlib.org/) -->
<svg height="360pt" version="1.1" viewBox="0 0 720 360" width="720pt" xmlns="http://www.w3.org/2000/svg" xmlns:xlink="http://www.w3.org/1999/xlink">
 <defs>
  <style type="text/css">
*{stroke-linecap:butt;stroke-linejoin:round;}
  </style>
 </defs>
 <g id="figure_1">
  <g id="patch_1">
   <path d="M 0 360 
L 720 360 
L 720 0 
L 0 0 
z
" style="fill:#ffffff;"/>
  </g>
  <g id="axes_1">
   <g id="patch_2">
    <path d="M 98.67 276.58 
L 341.006426 276.58 
L 341.006426 31.92 
L 98.67 31.92 
z
" style="fill:#ffffff;"/>
   </g>
   <g id="matplotlib.axis_1">
    <g id="xtick_1">
     <g id="line2d_1">
      <defs>
       <path d="M 0 0 
L 0 6 
" id="mc4daf340b4" style="stroke:#262626;stroke-width:1.25;"/>
      </defs>
      <g>
       <use style="fill:#262626;stroke:#262626;stroke-width:1.25;" x="109.685292" xlink:href="#mc4daf340b4" y="276.58"/>
      </g>
     </g>
     <g id="text_1">
      <text style="fill:#262626;font-family:DejaVu Sans;font-size:22px;font-style:normal;font-weight:normal;text-anchor:middle;" transform="rotate(-0, 109.685292, 302.796563)" x="109.685292" y="302.796563">0.0</text>
     </g>
    </g>
    <g id="xtick_2">
     <g id="line2d_2">
      <g>
       <use style="fill:#262626;stroke:#262626;stroke-width:1.25;" x="219.838213" xlink:href="#mc4daf340b4" y="276.58"/>
      </g>
     </g>
     <g id="text_2">
      <text style="fill:#262626;font-family:DejaVu Sans;font-size:22px;font-style:normal;font-weight:normal;text-anchor:middle;" transform="rotate(-0, 219.838213, 302.796563)" x="219.838213" y="302.796563">0.5</text>
     </g>
    </g>
    <g id="xtick_3">
     <g id="line2d_3">
      <g>
       <use style="fill:#262626;stroke:#262626;stroke-width:1.25;" x="329.991134" xlink:href="#mc4daf340b4" y="276.58"/>
      </g>
     </g>
     <g id="text_3">
      <text style="fill:#262626;font-family:DejaVu Sans;font-size:22px;font-style:normal;font-weight:normal;text-anchor:middle;" transform="rotate(-0, 329.991134, 302.796563)" x="329.991134" y="302.796563">1.0</text>
     </g>
    </g>
    <g id="text_4">
     <text style="fill:#262626;font-family:DejaVu Sans;font-size:24px;font-style:normal;font-weight:normal;text-anchor:middle;" transform="rotate(-0, 219.838213, 329.608125)" x="219.838213" y="329.608125">False Positive Rate</text>
    </g>
   </g>
   <g id="matplotlib.axis_2">
    <g id="ytick_1">
     <g id="line2d_4">
      <defs>
       <path d="M 0 0 
L -6 0 
" id="m4a9cde1f6e" style="stroke:#262626;stroke-width:1.25;"/>
      </defs>
      <g>
       <use style="fill:#262626;stroke:#262626;stroke-width:1.25;" x="98.67" xlink:href="#m4a9cde1f6e" y="265.459091"/>
      </g>
     </g>
     <g id="text_5">
      <text style="fill:#262626;font-family:DejaVu Sans;font-size:22px;font-style:normal;font-weight:normal;text-anchor:end;" transform="rotate(-0, 89.17, 273.817372)" x="89.17" y="273.817372">0.00</text>
     </g>
    </g>
    <g id="ytick_2">
     <g id="line2d_5">
      <g>
       <use style="fill:#262626;stroke:#262626;stroke-width:1.25;" x="98.67" xlink:href="#m4a9cde1f6e" y="209.854545"/>
      </g>
     </g>
     <g id="text_6">
      <text style="fill:#262626;font-family:DejaVu Sans;font-size:22px;font-style:normal;font-weight:normal;text-anchor:end;" transform="rotate(-0, 89.17, 218.212827)" x="89.17" y="218.212827">0.25</text>
     </g>
    </g>
    <g id="ytick_3">
     <g id="line2d_6">
      <g>
       <use style="fill:#262626;stroke:#262626;stroke-width:1.25;" x="98.67" xlink:href="#m4a9cde1f6e" y="154.25"/>
      </g>
     </g>
     <g id="text_7">
      <text style="fill:#262626;font-family:DejaVu Sans;font-size:22px;font-style:normal;font-weight:normal;text-anchor:end;" transform="rotate(-0, 89.17, 162.608281)" x="89.17" y="162.608281">0.50</text>
     </g>
    </g>
    <g id="ytick_4">
     <g id="line2d_7">
      <g>
       <use style="fill:#262626;stroke:#262626;stroke-width:1.25;" x="98.67" xlink:href="#m4a9cde1f6e" y="98.645455"/>
      </g>
     </g>
     <g id="text_8">
      <text style="fill:#262626;font-family:DejaVu Sans;font-size:22px;font-style:normal;font-weight:normal;text-anchor:end;" transform="rotate(-0, 89.17, 107.003736)" x="89.17" y="107.003736">0.75</text>
     </g>
    </g>
    <g id="ytick_5">
     <g id="line2d_8">
      <g>
       <use style="fill:#262626;stroke:#262626;stroke-width:1.25;" x="98.67" xlink:href="#m4a9cde1f6e" y="43.040909"/>
      </g>
     </g>
     <g id="text_9">
      <text style="fill:#262626;font-family:DejaVu Sans;font-size:22px;font-style:normal;font-weight:normal;text-anchor:end;" transform="rotate(-0, 89.17, 51.39919)" x="89.17" y="51.39919">1.00</text>
     </g>
    </g>
    <g id="text_10">
     <text style="fill:#262626;font-family:DejaVu Sans;font-size:24px;font-style:normal;font-weight:normal;text-anchor:middle;" transform="rotate(-90, 31.194375, 154.25)" x="31.194375" y="154.25">True Positive Rate</text>
    </g>
   </g>
   <g id="line2d_9">
    <path clip-path="url(#p411f7b27fc)" d="M 109.685292 265.459091 
L 109.795834 103.647958 
L 109.796635 103.647958 
L 109.796635 103.546134 
L 109.907178 87.670802 
L 109.910382 87.643032 
L 109.910382 87.593663 
L 110.020924 80.000039 
L 110.023327 79.919814 
L 110.133068 75.402518 
L 110.137874 75.319208 
L 110.248417 71.668961 
L 110.253223 71.560966 
L 110.362964 69.166552 
L 110.36777 69.067814 
L 110.478312 67.108468 
L 110.486323 66.997387 
L 110.596865 65.213919 
L 110.607278 65.105923 
L 110.717821 63.785293 
L 110.72503 63.692726 
L 110.834771 62.402951 
L 110.847587 62.29187 
L 110.95813 61.322997 
L 110.971747 61.211916 
L 111.082289 60.33561 
L 111.094305 60.252299 
L 111.204046 59.416106 
L 111.213658 59.311196 
L 111.3234 58.675565 
L 111.342624 58.570655 
L 111.453167 57.864057 
L 111.476396 57.756061 
L 111.586939 57.157458 
L 111.604561 57.046377 
L 111.715104 56.45703 
L 111.745543 56.345949 
L 111.855284 55.901625 
L 111.892131 55.79363 
L 112.00027 55.364733 
L 112.040322 55.253652 
L 112.150864 54.923495 
L 112.201329 54.812414 
L 112.31107 54.448315 
L 112.351923 54.337234 
L 112.462465 54.02559 
L 112.524946 53.914509 
L 112.634687 53.673833 
L 112.685953 53.565838 
L 112.794092 53.288135 
L 112.795694 53.288135 
L 112.842955 53.180139 
L 112.950293 52.982662 
L 113.012773 52.871581 
L 113.121713 52.630905 
L 113.193005 52.52291 
L 113.299542 52.347032 
L 113.378844 52.235951 
L 113.489386 52.038473 
L 113.565484 51.927392 
L 113.672822 51.794712 
L 113.747318 51.683631 
L 113.855457 51.529352 
L 113.968403 51.421356 
L 114.077343 51.270163 
L 114.179074 51.159082 
L 114.28481 51.029487 
L 114.420985 50.918406 
L 114.52592 50.791897 
L 114.652483 50.680816 
L 114.755816 50.575906 
L 114.894394 50.467911 
L 115.00013 50.375343 
L 115.117081 50.264262 
L 115.226021 50.168609 
L 115.413462 50.060614 
L 115.5208 49.964961 
L 115.700231 49.853879 
L 115.80036 49.739713 
L 115.972581 49.631717 
L 116.083123 49.53915 
L 116.250539 49.428069 
L 116.343458 49.387956 
L 116.351469 49.387956 
L 116.564543 49.279961 
L 116.668677 49.199736 
L 116.837694 49.088655 
L 116.937022 49.020772 
L 117.126866 48.909691 
L 117.230199 48.85415 
L 117.400819 48.743069 
L 117.51056 48.690614 
L 117.744461 48.579533 
L 117.8526 48.545592 
L 118.000791 48.434511 
L 118.100118 48.388227 
L 118.103323 48.388227 
L 118.349239 48.277146 
L 118.456577 48.221605 
L 118.45898 48.221605 
L 118.68407 48.110524 
L 118.793811 48.051898 
L 119.014895 47.940817 
L 119.122233 47.872934 
L 119.340114 47.761853 
L 119.445049 47.721741 
L 119.775073 47.61066 
L 119.879207 47.552034 
L 119.885616 47.552034 
L 120.177191 47.440952 
L 120.284529 47.391583 
L 120.657008 47.280502 
L 120.756336 47.234218 
L 121.039901 47.126223 
L 121.144836 47.079939 
L 121.517315 46.968858 
L 121.627056 46.919489 
L 121.990724 46.808408 
L 122.08845 46.774466 
L 122.411265 46.663385 
L 122.519404 46.635615 
L 123.012839 46.524534 
L 123.107361 46.496764 
L 123.551933 46.385683 
L 123.662475 46.360998 
L 124.213584 46.249917 
L 124.320121 46.215975 
L 124.836786 46.104894 
L 124.924098 46.086381 
L 125.455982 45.9753 
L 125.532881 45.956786 
L 126.199339 45.845705 
L 126.304274 45.821021 
L 127.084478 45.70994 
L 127.190214 45.682169 
L 127.986438 45.571088 
L 128.086567 45.546404 
L 129.028579 45.435323 
L 129.053411 45.42298 
L 130.033872 45.311899 
L 130.135603 45.2903 
L 130.992706 45.179219 
L 131.075212 45.154534 
L 132.072495 45.043453 
L 132.171823 45.021854 
L 133.389389 44.910773 
L 133.472697 44.898431 
L 134.816025 44.78735 
L 134.913751 44.775008 
L 136.123307 44.663926 
L 136.229043 44.648499 
L 137.93684 44.537418 
L 138.030561 44.528161 
L 140.44727 44.41708 
L 140.557812 44.410909 
L 143.443925 44.299828 
L 143.443925 44.296742 
L 143.554468 44.296742 
L 145.929523 44.185661 
L 145.980789 44.176404 
L 146.023244 44.176404 
L 149.492507 44.065323 
L 149.518941 44.059152 
L 149.583825 44.059152 
L 152.6734 43.948071 
L 152.688619 43.9419 
L 157.252892 43.830819 
L 157.349816 43.824648 
L 162.913775 43.713566 
L 162.913775 43.710481 
L 169.363673 43.5994 
L 169.363673 43.596314 
L 169.466205 43.596314 
L 177.767285 43.485233 
L 177.767285 43.482148 
L 189.121093 43.371067 
L 189.121093 43.367981 
L 189.160343 43.367981 
L 208.091099 43.2569 
L 208.091099 43.253814 
L 208.172804 43.253814 
L 231.983439 43.142733 
L 231.983439 43.139648 
L 232.07796 43.139648 
L 329.991134 43.040909 
L 329.991134 43.040909 
" style="fill:none;stroke:#0072b2;stroke-linecap:round;stroke-width:2;"/>
   </g>
   <g id="line2d_10">
    <path clip-path="url(#p411f7b27fc)" d="M 109.685292 265.459091 
L 329.991134 43.040909 
" style="fill:none;stroke:#555555;stroke-dasharray:5.55,2.4;stroke-dashoffset:0;stroke-width:1.5;"/>
   </g>
   <g id="patch_3">
    <path d="M 98.67 276.58 
L 98.67 31.92 
" style="fill:none;stroke:#262626;stroke-linecap:square;stroke-linejoin:miter;stroke-width:1.25;"/>
   </g>
   <g id="patch_4">
    <path d="M 341.006426 276.58 
L 341.006426 31.92 
" style="fill:none;stroke:#262626;stroke-linecap:square;stroke-linejoin:miter;stroke-width:1.25;"/>
   </g>
   <g id="patch_5">
    <path d="M 98.67 276.58 
L 341.006426 276.58 
" style="fill:none;stroke:#262626;stroke-linecap:square;stroke-linejoin:miter;stroke-width:1.25;"/>
   </g>
   <g id="patch_6">
    <path d="M 98.67 31.92 
L 341.006426 31.92 
" style="fill:none;stroke:#262626;stroke-linecap:square;stroke-linejoin:miter;stroke-width:1.25;"/>
   </g>
  </g>
  <g id="axes_2">
   <g id="patch_7">
    <path d="M 445.71 276.58 
L 688.046426 276.58 
L 688.046426 31.92 
L 445.71 31.92 
z
" style="fill:#ffffff;"/>
   </g>
   <g id="matplotlib.axis_3">
    <g id="xtick_4">
     <g id="line2d_11">
      <g>
       <use style="fill:#262626;stroke:#262626;stroke-width:1.25;" x="456.725292" xlink:href="#mc4daf340b4" y="276.58"/>
      </g>
     </g>
     <g id="text_11">
      <text style="fill:#262626;font-family:DejaVu Sans;font-size:22px;font-style:normal;font-weight:normal;text-anchor:middle;" transform="rotate(-0, 456.725292, 302.796563)" x="456.725292" y="302.796563">0.0</text>
     </g>
    </g>
    <g id="xtick_5">
     <g id="line2d_12">
      <g>
       <use style="fill:#262626;stroke:#262626;stroke-width:1.25;" x="566.878213" xlink:href="#mc4daf340b4" y="276.58"/>
      </g>
     </g>
     <g id="text_12">
      <text style="fill:#262626;font-family:DejaVu Sans;font-size:22px;font-style:normal;font-weight:normal;text-anchor:middle;" transform="rotate(-0, 566.878213, 302.796563)" x="566.878213" y="302.796563">0.5</text>
     </g>
    </g>
    <g id="xtick_6">
     <g id="line2d_13">
      <g>
       <use style="fill:#262626;stroke:#262626;stroke-width:1.25;" x="677.031134" xlink:href="#mc4daf340b4" y="276.58"/>
      </g>
     </g>
     <g id="text_13">
      <text style="fill:#262626;font-family:DejaVu Sans;font-size:22px;font-style:normal;font-weight:normal;text-anchor:middle;" transform="rotate(-0, 677.031134, 302.796563)" x="677.031134" y="302.796563">1.0</text>
     </g>
    </g>
    <g id="text_14">
     <text style="fill:#262626;font-family:DejaVu Sans;font-size:24px;font-style:normal;font-weight:normal;text-anchor:middle;" transform="rotate(-0, 566.878213, 329.608125)" x="566.878213" y="329.608125">Recall</text>
    </g>
   </g>
   <g id="matplotlib.axis_4">
    <g id="ytick_6">
     <g id="line2d_14">
      <g>
       <use style="fill:#262626;stroke:#262626;stroke-width:1.25;" x="445.71" xlink:href="#m4a9cde1f6e" y="276.58"/>
      </g>
     </g>
     <g id="text_15">
      <text style="fill:#262626;font-family:DejaVu Sans;font-size:22px;font-style:normal;font-weight:normal;text-anchor:end;" transform="rotate(-0, 436.21, 284.938281)" x="436.21" y="284.938281">0.00</text>
     </g>
    </g>
    <g id="ytick_7">
     <g id="line2d_15">
      <g>
       <use style="fill:#262626;stroke:#262626;stroke-width:1.25;" x="445.71" xlink:href="#m4a9cde1f6e" y="218.327619"/>
      </g>
     </g>
     <g id="text_16">
      <text style="fill:#262626;font-family:DejaVu Sans;font-size:22px;font-style:normal;font-weight:normal;text-anchor:end;" transform="rotate(-0, 436.21, 226.6859)" x="436.21" y="226.6859">0.25</text>
     </g>
    </g>
    <g id="ytick_8">
     <g id="line2d_16">
      <g>
       <use style="fill:#262626;stroke:#262626;stroke-width:1.25;" x="445.71" xlink:href="#m4a9cde1f6e" y="160.075238"/>
      </g>
     </g>
     <g id="text_17">
      <text style="fill:#262626;font-family:DejaVu Sans;font-size:22px;font-style:normal;font-weight:normal;text-anchor:end;" transform="rotate(-0, 436.21, 168.433519)" x="436.21" y="168.433519">0.50</text>
     </g>
    </g>
    <g id="ytick_9">
     <g id="line2d_17">
      <g>
       <use style="fill:#262626;stroke:#262626;stroke-width:1.25;" x="445.71" xlink:href="#m4a9cde1f6e" y="101.822857"/>
      </g>
     </g>
     <g id="text_18">
      <text style="fill:#262626;font-family:DejaVu Sans;font-size:22px;font-style:normal;font-weight:normal;text-anchor:end;" transform="rotate(-0, 436.21, 110.181138)" x="436.21" y="110.181138">0.75</text>
     </g>
    </g>
    <g id="ytick_10">
     <g id="line2d_18">
      <g>
       <use style="fill:#262626;stroke:#262626;stroke-width:1.25;" x="445.71" xlink:href="#m4a9cde1f6e" y="43.570476"/>
      </g>
     </g>
     <g id="text_19">
      <text style="fill:#262626;font-family:DejaVu Sans;font-size:22px;font-style:normal;font-weight:normal;text-anchor:end;" transform="rotate(-0, 436.21, 51.928757)" x="436.21" y="51.928757">1.00</text>
     </g>
    </g>
    <g id="text_20">
     <text style="fill:#262626;font-family:DejaVu Sans;font-size:24px;font-style:normal;font-weight:normal;text-anchor:middle;" transform="rotate(-90, 378.234375, 154.25)" x="378.234375" y="154.25">Precision</text>
    </g>
   </g>
   <g id="line2d_19">
    <path clip-path="url(#pf14a058530)" d="M 677.031134 227.815442 
L 677.028077 227.815977 
L 677.028077 227.703303 
L 676.918051 200.922552 
L 676.914995 200.923261 
L 676.914995 200.809205 
L 676.911939 200.809231 
L 676.804969 188.836333 
L 676.801913 188.837092 
L 676.801913 188.72269 
L 676.691886 176.323164 
L 676.685774 176.324751 
L 676.682718 176.210936 
L 676.572692 167.795542 
L 676.569635 167.796349 
L 676.566579 167.682656 
L 676.456553 160.997232 
L 676.453497 160.998042 
L 676.453497 160.883891 
L 676.343471 154.302368 
L 676.340414 154.303177 
L 676.340414 154.188768 
L 676.230388 148.186194 
L 676.227332 148.186997 
L 676.227332 148.072628 
L 676.117306 142.551492 
L 676.11425 142.552286 
L 676.11425 142.452331 
L 676.108137 142.439933 
L 675.998111 137.80372 
L 675.995055 137.804502 
L 675.995055 137.690356 
L 675.991998 137.691138 
L 675.881972 133.144132 
L 675.869747 133.030133 
L 675.759721 128.526578 
L 675.756665 128.527331 
L 675.756665 128.413043 
L 675.646639 124.37938 
L 675.643582 124.380117 
L 675.643582 124.266222 
L 675.536613 120.064164 
L 675.5305 120.0656 
L 675.524387 119.953879 
L 675.417418 116.922847 
L 675.414361 116.92355 
L 675.411305 116.924252 
L 675.405193 116.81244 
L 675.295166 114.417308 
L 675.29211 114.417997 
L 675.29211 114.304295 
L 675.182084 111.792677 
L 675.179028 111.793352 
L 675.175972 111.681449 
L 675.065945 109.298316 
L 675.05372 109.290871 
L 675.05372 109.188249 
L 674.943694 107.385654 
L 674.940638 107.386303 
L 674.937582 107.275033 
L 674.827556 105.58894 
L 674.821443 105.586699 
L 674.821443 105.479366 
L 674.81533 105.478879 
L 674.705304 103.481109 
L 674.702248 103.481733 
L 674.699192 103.370498 
L 674.589166 100.929624 
L 674.583053 100.930837 
L 674.579997 100.819919 
L 674.469971 99.335034 
L 674.466915 99.335629 
L 674.466915 99.223905 
L 674.356888 97.536479 
L 674.353832 97.537061 
L 674.350776 97.425513 
L 674.24075 95.788427 
L 674.234637 95.787595 
L 674.234637 95.683068 
L 674.228525 95.678284 
L 674.121555 94.012582 
L 674.118499 94.013138 
L 674.100161 93.933979 
L 674.112386 93.959935 
L 674.097105 93.904335 
L 673.987079 92.286313 
L 673.97791 92.273584 
L 673.974853 92.177684 
L 673.864827 90.983762 
L 673.849546 90.942712 
L 673.849546 90.873987 
L 673.73952 89.452396 
L 673.736464 89.452915 
L 673.733407 89.341193 
L 673.623381 88.186723 
L 673.6081 88.144179 
L 673.6081 88.079734 
L 673.605044 88.078092 
L 673.495017 86.812943 
L 673.491961 86.813439 
L 673.491961 86.702243 
L 673.488905 86.702738 
L 673.378879 85.781937 
L 673.360541 85.734156 
L 673.357485 85.672876 
L 673.247459 84.515499 
L 673.23829 84.507989 
L 673.23829 84.405127 
L 673.235234 84.405603 
L 673.125208 83.609109 
L 673.122151 83.609577 
L 673.122151 83.54184 
L 673.10687 83.501252 
L 672.9999 82.584048 
L 672.996844 82.584507 
L 672.993787 82.584966 
L 672.990731 82.473518 
L 672.880705 81.69585 
L 672.877649 81.696301 
L 672.874593 81.627587 
L 672.865424 81.587413 
L 672.755398 80.631668 
L 672.73706 80.580677 
L 672.73706 80.522343 
L 672.627034 79.550257 
L 672.617865 79.527961 
L 672.614809 79.45051 
L 672.611752 79.441496 
L 672.501726 78.824276 
L 672.49867 78.8247 
L 672.495614 78.722848 
L 672.492558 78.713751 
L 672.382531 77.803275 
L 672.364194 77.745657 
L 672.379475 77.77725 
L 672.364194 77.695144 
L 672.254168 76.973197 
L 672.238886 76.90488 
L 672.23583 76.864025 
L 672.125804 76.289173 
L 672.116635 76.265938 
L 672.116635 76.209721 
L 672.107466 76.181572 
L 671.99744 75.575005 
L 671.979102 75.483761 
L 671.979102 75.46651 
L 671.869076 74.765513 
L 671.850739 74.73056 
L 671.847682 74.65639 
L 671.737656 73.88122 
L 671.7346 73.881595 
L 671.731544 73.796713 
L 671.725431 73.772371 
L 671.615405 73.206828 
L 671.57873 73.110197 
L 671.612349 73.171845 
L 671.57873 73.100087 
L 671.468704 72.137646 
L 671.435085 72.036834 
L 671.435085 72.031722 
L 671.325059 71.323486 
L 671.282271 71.243337 
L 671.282271 71.217558 
L 671.172245 70.562456 
L 671.141682 70.456755 
L 671.141682 70.454156 
L 671.031656 69.827355 
L 670.998037 69.731531 
L 670.998037 69.723673 
L 670.88801 69.146967 
L 670.86356 69.096842 
L 670.86356 69.038814 
L 670.753534 68.41242 
L 670.744365 68.37884 
L 670.744365 68.301769 
L 670.634339 67.58986 
L 670.603776 67.493787 
L 670.603776 67.483063 
L 670.49375 67.031712 
L 670.450962 66.928091 
L 670.450962 66.925394 
L 670.340936 66.278381 
L 670.282867 66.180686 
L 670.282867 66.172529 
L 670.172841 65.580154 
L 670.151447 65.502776 
L 670.151447 65.472652 
L 670.044477 65.051539 
L 670.041421 65.051818 
L 670.035308 64.978065 
L 670.013914 64.944214 
L 669.903888 64.301911 
L 669.867213 64.199735 
L 669.867213 64.194184 
L 669.757187 63.81439 
L 669.723568 63.728066 
L 669.723568 63.708535 
L 669.613542 63.242398 
L 669.485178 62.68221 
L 669.454615 62.600069 
L 669.454615 62.574657 
L 669.344589 62.150578 
L 669.304857 62.043075 
L 669.194831 61.630569 
L 669.1551 61.522371 
L 669.054242 61.09512 
L 669.045074 61.09582 
L 668.993117 60.99932 
L 668.993117 60.990705 
L 668.883091 60.645067 
L 668.843359 60.541299 
L 668.843359 60.538413 
L 668.736389 60.245645 
L 668.733333 60.245868 
L 668.693601 60.170552 
L 668.693601 60.138669 
L 668.583575 59.760251 
L 668.528562 59.656397 
L 668.528562 59.653483 
L 668.421592 59.293082 
L 668.418536 59.293294 
L 668.357411 59.197996 
L 668.357411 59.18628 
L 668.247384 58.862218 
L 668.198484 58.759632 
L 668.198484 58.756689 
L 668.088458 58.430874 
L 668.030389 58.34013 
L 668.030389 58.325347 
L 667.920362 58.122309 
L 667.868406 58.015921 
L 667.75838 57.684004 
L 667.691141 57.583916 
L 667.691141 57.577952 
L 667.581115 57.307019 
L 667.507765 57.203758 
L 667.507765 57.200764 
L 667.397739 57.01854 
L 667.339669 56.925923 
L 667.339669 56.910899 
L 667.232699 56.679517 
L 667.229643 56.679696 
L 667.171574 56.583609 
L 667.171574 56.574559 
L 667.061548 56.393695 
L 667.015704 56.287421 
L 666.908734 56.081356 
L 666.905677 56.081528 
L 666.847608 55.975489 
L 666.743695 55.792705 
L 666.737582 55.793042 
L 666.636725 55.688901 
L 666.529755 55.508535 
L 666.526699 55.5087 
L 666.486967 55.406893 
L 666.486967 55.400776 
L 666.376941 55.170762 
L 666.294421 55.067667 
L 666.294421 55.064596 
L 666.193564 54.845339 
L 666.184395 54.845809 
L 666.101876 54.742188 
L 666.101876 54.739105 
L 665.99185 54.556383 
L 665.878767 54.453797 
L 665.771798 54.263907 
L 665.768741 54.264056 
L 665.658715 54.173205 
L 665.658715 54.160783 
L 665.551745 54.054048 
L 665.548689 54.054195 
L 665.481451 53.948474 
L 665.371425 53.813406 
L 665.310299 53.707004 
L 665.203329 53.502405 
L 665.200273 53.502544 
L 665.099416 53.397461 
L 664.992446 53.283029 
L 664.98939 53.283166 
L 664.916039 53.182734 
L 664.916039 53.176445 
L 664.806013 53.027058 
L 664.714325 52.920699 
L 664.607355 52.811638 
L 664.604298 52.811768 
L 664.494272 52.708944 
L 664.494272 52.70578 
L 664.387303 52.618462 
L 664.384246 52.61859 
L 664.292558 52.514616 
L 664.292558 52.511443 
L 664.185588 52.414257 
L 664.182532 52.414383 
L 664.11835 52.318454 
L 664.11835 52.308912 
L 664.008324 52.214671 
L 663.892185 52.110924 
L 663.791328 52.028726 
L 663.782159 52.029087 
L 663.693527 51.923879 
L 663.583501 51.867344 
L 663.4857 51.762165 
L 663.375674 51.695776 
L 663.225916 51.595413 
L 663.225916 51.592197 
L 663.125059 51.528411 
L 663.11589 51.528752 
L 662.981414 51.427429 
L 662.981414 51.424205 
L 662.8775 51.344139 
L 662.871388 51.344362 
L 662.700236 51.240719 
L 662.59021 51.131395 
L 662.416002 51.027344 
L 662.305976 50.943537 
L 662.070642 50.841104 
L 661.969785 50.763124 
L 661.960616 50.763436 
L 661.82614 50.657079 
L 661.728339 50.578687 
L 661.716114 50.579092 
L 661.544962 50.483334 
L 661.544962 50.476786 
L 661.437992 50.368867 
L 661.434936 50.368965 
L 661.272953 50.269145 
L 661.272953 50.265861 
L 661.16904 50.180411 
L 661.162927 50.180603 
L 660.964269 50.078175 
L 660.854243 50.00904 
L 660.621965 49.91376 
L 660.621965 49.90715 
L 660.518052 49.857371 
L 660.511939 49.857554 
L 660.395801 49.75175 
L 660.291887 49.701768 
L 660.285775 49.701947 
L 660.047385 49.605967 
L 660.047385 49.59932 
L 659.949584 49.555585 
L 659.937359 49.555935 
L 659.769263 49.450843 
L 659.662293 49.367142 
L 659.659237 49.367227 
L 659.405566 49.264002 
L 659.310821 49.19967 
L 659.29554 49.200085 
L 659.047981 49.096149 
L 658.95018 49.045043 
L 658.937955 49.045366 
L 658.720959 48.943486 
L 658.720959 48.940121 
L 658.610933 48.862151 
L 658.305305 48.761975 
L 658.198335 48.693692 
L 658.195279 48.693768 
L 657.963002 48.594576 
L 657.963002 48.591188 
L 657.852976 48.543019 
L 657.590136 48.440679 
L 657.480109 48.405881 
L 657.299789 48.30114 
L 657.205044 48.279462 
L 657.189763 48.279814 
L 656.859685 48.178068 
L 656.76494 48.142575 
L 656.749659 48.142918 
L 656.413468 48.051025 
L 656.413468 48.040733 
L 656.306498 48.005319 
L 656.303442 48.005386 
L 656.04977 47.904298 
L 656.04977 47.900856 
L 655.951969 47.885727 
L 655.939744 47.885987 
L 655.67996 47.781132 
L 655.579103 47.741786 
L 655.569934 47.741975 
L 655.242912 47.637957 
L 655.132886 47.615915 
L 654.793639 47.511583 
L 654.683613 47.478964 
L 654.371873 47.380485 
L 654.371873 47.376999 
L 654.261846 47.347686 
L 653.678097 47.250173 
L 653.568071 47.189101 
L 653.103516 47.088531 
L 652.99349 47.062313 
L 652.489204 46.961713 
L 652.38529 46.945814 
L 652.379178 46.945918 
L 651.963524 46.843132 
L 651.877948 46.819713 
L 651.853498 46.820115 
L 651.468406 46.716182 
L 651.35838 46.685886 
L 650.860207 46.583031 
L 650.753237 46.563213 
L 650.750181 46.563259 
L 650.310076 46.465975 
L 650.310076 46.462387 
L 650.212275 46.44229 
L 650.20005 46.442469 
L 649.714102 46.341578 
L 649.646863 46.317301 
L 649.604076 46.317903 
L 649.087564 46.21669 
L 648.986707 46.189096 
L 648.977538 46.189219 
L 648.204299 46.090552 
L 648.094273 46.062852 
L 647.189614 45.964739 
L 647.097926 45.954887 
L 647.082644 45.955077 
L 646.324687 45.857764 
L 646.324687 45.854081 
L 646.291068 45.836064 
L 646.214661 45.836968 
L 645.606461 45.733229 
L 645.53311 45.71555 
L 645.496435 45.715962 
L 644.76904 45.616329 
L 644.662071 45.587696 
L 644.659014 45.587728 
L 643.815481 45.488219 
L 643.708511 45.470575 
L 643.705455 45.470606 
L 642.84664 45.373867 
L 642.84664 45.3701 
L 642.819134 45.362828 
L 642.736614 45.363617 
L 641.419357 45.266163 
L 641.34295 45.255455 
L 641.309331 45.255759 
L 640.108213 45.15568 
L 640.022637 45.144917 
L 639.998187 45.145126 
L 638.968221 45.045982 
L 638.968221 45.042123 
L 638.858195 45.043007 
L 636.776868 44.950534 
L 636.715742 44.935359 
L 636.666842 44.935728 
L 634.897256 44.838561 
L 634.808623 44.827321 
L 634.787229 44.827471 
L 633.087938 44.731627 
L 632.977912 44.700341 
L 630.960767 44.60403 
L 630.859909 44.596519 
L 630.850741 44.596573 
L 629.469302 44.494368 
L 629.469302 44.490278 
L 629.362332 44.490845 
L 626.413022 44.398486 
L 626.26632 44.382516 
L 622.555996 44.289707 
L 622.55294 44.281184 
L 622.44597 44.281642 
L 617.400052 44.193745 
L 617.259463 44.185464 
L 613.185441 44.092736 
L 613.185441 44.088204 
L 613.075415 44.088568 
L 605.960395 44.003916 
L 605.917607 43.994528 
L 605.853425 43.994711 
L 598.707842 43.906044 
L 598.707842 43.901043 
L 598.600873 43.901292 
L 589.086672 43.812338 
L 573.624951 43.734842 
L 573.417124 43.72904 
L 540.143402 43.664346 
L 538.777245 43.639889 
L 490.011239 43.591869 
L 483.678627 43.570476 
L 456.725292 43.570476 
L 456.725292 43.570476 
" style="fill:none;stroke:#0072b2;stroke-linecap:round;stroke-width:1.5;"/>
   </g>
   <g id="line2d_20">
    <path clip-path="url(#pf14a058530)" d="M 456.725292 227.815977 
L 677.031134 227.815977 
" style="fill:none;stroke:#555555;stroke-dasharray:5.55,2.4;stroke-dashoffset:0;stroke-width:1.5;"/>
   </g>
   <g id="patch_8">
    <path d="M 445.71 276.58 
L 445.71 31.92 
" style="fill:none;stroke:#262626;stroke-linecap:square;stroke-linejoin:miter;stroke-width:1.25;"/>
   </g>
   <g id="patch_9">
    <path d="M 688.046426 276.58 
L 688.046426 31.92 
" style="fill:none;stroke:#262626;stroke-linecap:square;stroke-linejoin:miter;stroke-width:1.25;"/>
   </g>
   <g id="patch_10">
    <path d="M 445.71 276.58 
L 688.046426 276.58 
" style="fill:none;stroke:#262626;stroke-linecap:square;stroke-linejoin:miter;stroke-width:1.25;"/>
   </g>
   <g id="patch_11">
    <path d="M 445.71 31.92 
L 688.046426 31.92 
" style="fill:none;stroke:#262626;stroke-linecap:square;stroke-linejoin:miter;stroke-width:1.25;"/>
   </g>
  </g>
 </g>
 <defs>
  <clipPath id="p411f7b27fc">
   <rect height="244.66" width="242.336426" x="98.67" y="31.92"/>
  </clipPath>
  <clipPath id="pf14a058530">
   <rect height="244.66" width="242.336426" x="445.71" y="31.92"/>
  </clipPath>
 </defs>
</svg>
