<?xml version="1.0" encoding="utf-8" standalone="no"?>
<!DOCTYPE svg PUBLIC "-//W3C//DTD SVG 1.1//EN"
  "http://www.w3.org/Graphics/SVG/1.1/DTD/svg11.dtd">
<!-- Created with matplotlib (https://matplotlib.org/) -->
<svg height="432pt" version="1.1" viewBox="0 0 720 432" width="720pt" xmlns="http://www.w3.org/2000/svg" xmlns:xlink="http://www.w3.org/1999/xlink">
 <defs>
  <style type="text/css">
*{stroke-linecap:butt;stroke-linejoin:round;}
  </style>
 </defs>
 <g id="figure_1">
  <g id="patch_1">
   <path d="M 0 432 
L 720 432 
L 720 0 
L 0 0 
z
" style="fill:#ffffff;"/>
  </g>
  <g id="axes_1">
   <g id="patch_2">
    <path d="M 90 378 
L 648 378 
L 648 51.84 
L 90 51.84 
z
" style="fill:#ffffff;"/>
   </g>
   <g id="patch_3">
    <path clip-path="url(#p262461cf1b)" d="M 115.363636 378 
L 117.991992 378 
L 117.991992 377.954114 
L 115.363636 377.954114 
z
" style="fill:#1f77b4;"/>
   </g>
   <g id="patch_4">
    <path clip-path="url(#p262461cf1b)" d="M 117.991992 378 
L 120.620349 378 
L 120.620349 377.954114 
L 117.991992 377.954114 
z
" style="fill:#1f77b4;"/>
   </g>
   <g id="patch_5">
    <path clip-path="url(#p262461cf1b)" d="M 120.620349 378 
L 123.248705 378 
L 123.248705 377.9416 
L 120.620349 377.9416 
z
" style="fill:#1f77b4;"/>
   </g>
   <g id="patch_6">
    <path clip-path="url(#p262461cf1b)" d="M 123.248705 378 
L 125.877061 378 
L 125.877061 377.949943 
L 123.248705 377.949943 
z
" style="fill:#1f77b4;"/>
   </g>
   <g id="patch_7">
    <path clip-path="url(#p262461cf1b)" d="M 125.877061 378 
L 128.505417 378 
L 128.505417 377.945772 
L 125.877061 377.945772 
z
" style="fill:#1f77b4;"/>
   </g>
   <g id="patch_8">
    <path clip-path="url(#p262461cf1b)" d="M 128.505417 378 
L 131.133773 378 
L 131.133773 377.937429 
L 128.505417 377.937429 
z
" style="fill:#1f77b4;"/>
   </g>
   <g id="patch_9">
    <path clip-path="url(#p262461cf1b)" d="M 131.133773 378 
L 133.762129 378 
L 133.762129 377.945772 
L 131.133773 377.945772 
z
" style="fill:#1f77b4;"/>
   </g>
   <g id="patch_10">
    <path clip-path="url(#p262461cf1b)" d="M 133.762129 378 
L 136.390485 378 
L 136.390485 377.920743 
L 133.762129 377.920743 
z
" style="fill:#1f77b4;"/>
   </g>
   <g id="patch_11">
    <path clip-path="url(#p262461cf1b)" d="M 136.390485 378 
L 139.018841 378 
L 139.018841 377.916572 
L 136.390485 377.916572 
z
" style="fill:#1f77b4;"/>
   </g>
   <g id="patch_12">
    <path clip-path="url(#p262461cf1b)" d="M 139.018841 378 
L 141.647197 378 
L 141.647197 377.895715 
L 139.018841 377.895715 
z
" style="fill:#1f77b4;"/>
   </g>
   <g id="patch_13">
    <path clip-path="url(#p262461cf1b)" d="M 141.647197 378 
L 144.275553 378 
L 144.275553 377.904057 
L 141.647197 377.904057 
z
" style="fill:#1f77b4;"/>
   </g>
   <g id="patch_14">
    <path clip-path="url(#p262461cf1b)" d="M 144.275553 378 
L 146.90391 378 
L 146.90391 377.895715 
L 144.275553 377.895715 
z
" style="fill:#1f77b4;"/>
   </g>
   <g id="patch_15">
    <path clip-path="url(#p262461cf1b)" d="M 146.90391 378 
L 149.532266 378 
L 149.532266 377.9124 
L 146.90391 377.9124 
z
" style="fill:#1f77b4;"/>
   </g>
   <g id="patch_16">
    <path clip-path="url(#p262461cf1b)" d="M 149.532266 378 
L 152.160622 378 
L 152.160622 377.891543 
L 149.532266 377.891543 
z
" style="fill:#1f77b4;"/>
   </g>
   <g id="patch_17">
    <path clip-path="url(#p262461cf1b)" d="M 152.160622 378 
L 154.788978 378 
L 154.788978 377.8832 
L 152.160622 377.8832 
z
" style="fill:#1f77b4;"/>
   </g>
   <g id="patch_18">
    <path clip-path="url(#p262461cf1b)" d="M 154.788978 378 
L 157.417334 378 
L 157.417334 377.916572 
L 154.788978 377.916572 
z
" style="fill:#1f77b4;"/>
   </g>
   <g id="patch_19">
    <path clip-path="url(#p262461cf1b)" d="M 157.417334 378 
L 160.04569 378 
L 160.04569 377.858172 
L 157.417334 377.858172 
z
" style="fill:#1f77b4;"/>
   </g>
   <g id="patch_20">
    <path clip-path="url(#p262461cf1b)" d="M 160.04569 378 
L 162.674046 378 
L 162.674046 377.899886 
L 160.04569 377.899886 
z
" style="fill:#1f77b4;"/>
   </g>
   <g id="patch_21">
    <path clip-path="url(#p262461cf1b)" d="M 162.674046 378 
L 165.302402 378 
L 165.302402 377.837315 
L 162.674046 377.837315 
z
" style="fill:#1f77b4;"/>
   </g>
   <g id="patch_22">
    <path clip-path="url(#p262461cf1b)" d="M 165.302402 378 
L 167.930758 378 
L 167.930758 377.937429 
L 165.302402 377.937429 
z
" style="fill:#1f77b4;"/>
   </g>
   <g id="patch_23">
    <path clip-path="url(#p262461cf1b)" d="M 167.930758 378 
L 170.559114 378 
L 170.559114 377.879029 
L 167.930758 377.879029 
z
" style="fill:#1f77b4;"/>
   </g>
   <g id="patch_24">
    <path clip-path="url(#p262461cf1b)" d="M 170.559114 378 
L 173.187471 378 
L 173.187471 377.904057 
L 170.559114 377.904057 
z
" style="fill:#1f77b4;"/>
   </g>
   <g id="patch_25">
    <path clip-path="url(#p262461cf1b)" d="M 173.187471 378 
L 175.815827 378 
L 175.815827 377.899886 
L 173.187471 377.899886 
z
" style="fill:#1f77b4;"/>
   </g>
   <g id="patch_26">
    <path clip-path="url(#p262461cf1b)" d="M 175.815827 378 
L 178.444183 378 
L 178.444183 377.845658 
L 175.815827 377.845658 
z
" style="fill:#1f77b4;"/>
   </g>
   <g id="patch_27">
    <path clip-path="url(#p262461cf1b)" d="M 178.444183 378 
L 181.072539 378 
L 181.072539 377.899886 
L 178.444183 377.899886 
z
" style="fill:#1f77b4;"/>
   </g>
   <g id="patch_28">
    <path clip-path="url(#p262461cf1b)" d="M 181.072539 378 
L 183.700895 378 
L 183.700895 377.891543 
L 181.072539 377.891543 
z
" style="fill:#1f77b4;"/>
   </g>
   <g id="patch_29">
    <path clip-path="url(#p262461cf1b)" d="M 183.700895 378 
L 186.329251 378 
L 186.329251 377.812286 
L 183.700895 377.812286 
z
" style="fill:#1f77b4;"/>
   </g>
   <g id="patch_30">
    <path clip-path="url(#p262461cf1b)" d="M 186.329251 378 
L 188.957607 378 
L 188.957607 377.866515 
L 186.329251 377.866515 
z
" style="fill:#1f77b4;"/>
   </g>
   <g id="patch_31">
    <path clip-path="url(#p262461cf1b)" d="M 188.957607 378 
L 191.585963 378 
L 191.585963 377.866515 
L 188.957607 377.866515 
z
" style="fill:#1f77b4;"/>
   </g>
   <g id="patch_32">
    <path clip-path="url(#p262461cf1b)" d="M 191.585963 378 
L 194.214319 378 
L 194.214319 377.862343 
L 191.585963 377.862343 
z
" style="fill:#1f77b4;"/>
   </g>
   <g id="patch_33">
    <path clip-path="url(#p262461cf1b)" d="M 194.214319 378 
L 196.842675 378 
L 196.842675 377.841486 
L 194.214319 377.841486 
z
" style="fill:#1f77b4;"/>
   </g>
   <g id="patch_34">
    <path clip-path="url(#p262461cf1b)" d="M 196.842675 378 
L 199.471032 378 
L 199.471032 377.828972 
L 196.842675 377.828972 
z
" style="fill:#1f77b4;"/>
   </g>
   <g id="patch_35">
    <path clip-path="url(#p262461cf1b)" d="M 199.471032 378 
L 202.099388 378 
L 202.099388 377.783086 
L 199.471032 377.783086 
z
" style="fill:#1f77b4;"/>
   </g>
   <g id="patch_36">
    <path clip-path="url(#p262461cf1b)" d="M 202.099388 378 
L 204.727744 378 
L 204.727744 377.778915 
L 202.099388 377.778915 
z
" style="fill:#1f77b4;"/>
   </g>
   <g id="patch_37">
    <path clip-path="url(#p262461cf1b)" d="M 204.727744 378 
L 207.3561 378 
L 207.3561 377.808115 
L 204.727744 377.808115 
z
" style="fill:#1f77b4;"/>
   </g>
   <g id="patch_38">
    <path clip-path="url(#p262461cf1b)" d="M 207.3561 378 
L 209.984456 378 
L 209.984456 377.770572 
L 207.3561 377.770572 
z
" style="fill:#1f77b4;"/>
   </g>
   <g id="patch_39">
    <path clip-path="url(#p262461cf1b)" d="M 209.984456 378 
L 212.612812 378 
L 212.612812 377.791429 
L 209.984456 377.791429 
z
" style="fill:#1f77b4;"/>
   </g>
   <g id="patch_40">
    <path clip-path="url(#p262461cf1b)" d="M 212.612812 378 
L 215.241168 378 
L 215.241168 377.762229 
L 212.612812 377.762229 
z
" style="fill:#1f77b4;"/>
   </g>
   <g id="patch_41">
    <path clip-path="url(#p262461cf1b)" d="M 215.241168 378 
L 217.869524 378 
L 217.869524 377.783086 
L 215.241168 377.783086 
z
" style="fill:#1f77b4;"/>
   </g>
   <g id="patch_42">
    <path clip-path="url(#p262461cf1b)" d="M 217.869524 378 
L 220.49788 378 
L 220.49788 377.749715 
L 217.869524 377.749715 
z
" style="fill:#1f77b4;"/>
   </g>
   <g id="patch_43">
    <path clip-path="url(#p262461cf1b)" d="M 220.49788 378 
L 223.126236 378 
L 223.126236 377.774744 
L 220.49788 377.774744 
z
" style="fill:#1f77b4;"/>
   </g>
   <g id="patch_44">
    <path clip-path="url(#p262461cf1b)" d="M 223.126236 378 
L 225.754593 378 
L 225.754593 377.762229 
L 223.126236 377.762229 
z
" style="fill:#1f77b4;"/>
   </g>
   <g id="patch_45">
    <path clip-path="url(#p262461cf1b)" d="M 225.754593 378 
L 228.382949 378 
L 228.382949 377.699658 
L 225.754593 377.699658 
z
" style="fill:#1f77b4;"/>
   </g>
   <g id="patch_46">
    <path clip-path="url(#p262461cf1b)" d="M 228.382949 378 
L 231.011305 378 
L 231.011305 377.699658 
L 228.382949 377.699658 
z
" style="fill:#1f77b4;"/>
   </g>
   <g id="patch_47">
    <path clip-path="url(#p262461cf1b)" d="M 231.011305 378 
L 233.639661 378 
L 233.639661 377.67463 
L 231.011305 377.67463 
z
" style="fill:#1f77b4;"/>
   </g>
   <g id="patch_48">
    <path clip-path="url(#p262461cf1b)" d="M 233.639661 378 
L 236.268017 378 
L 236.268017 377.687144 
L 233.639661 377.687144 
z
" style="fill:#1f77b4;"/>
   </g>
   <g id="patch_49">
    <path clip-path="url(#p262461cf1b)" d="M 236.268017 378 
L 238.896373 378 
L 238.896373 377.666287 
L 236.268017 377.666287 
z
" style="fill:#1f77b4;"/>
   </g>
   <g id="patch_50">
    <path clip-path="url(#p262461cf1b)" d="M 238.896373 378 
L 241.524729 378 
L 241.524729 377.653773 
L 238.896373 377.653773 
z
" style="fill:#1f77b4;"/>
   </g>
   <g id="patch_51">
    <path clip-path="url(#p262461cf1b)" d="M 241.524729 378 
L 244.153085 378 
L 244.153085 377.67463 
L 241.524729 377.67463 
z
" style="fill:#1f77b4;"/>
   </g>
   <g id="patch_52">
    <path clip-path="url(#p262461cf1b)" d="M 244.153085 378 
L 246.781441 378 
L 246.781441 377.662115 
L 244.153085 377.662115 
z
" style="fill:#1f77b4;"/>
   </g>
   <g id="patch_53">
    <path clip-path="url(#p262461cf1b)" d="M 246.781441 378 
L 249.409797 378 
L 249.409797 377.641258 
L 246.781441 377.641258 
z
" style="fill:#1f77b4;"/>
   </g>
   <g id="patch_54">
    <path clip-path="url(#p262461cf1b)" d="M 249.409797 378 
L 252.038154 378 
L 252.038154 377.653773 
L 249.409797 377.653773 
z
" style="fill:#1f77b4;"/>
   </g>
   <g id="patch_55">
    <path clip-path="url(#p262461cf1b)" d="M 252.038154 378 
L 254.66651 378 
L 254.66651 377.58703 
L 252.038154 377.58703 
z
" style="fill:#1f77b4;"/>
   </g>
   <g id="patch_56">
    <path clip-path="url(#p262461cf1b)" d="M 254.66651 378 
L 257.294866 378 
L 257.294866 377.553659 
L 254.66651 377.553659 
z
" style="fill:#1f77b4;"/>
   </g>
   <g id="patch_57">
    <path clip-path="url(#p262461cf1b)" d="M 257.294866 378 
L 259.923222 378 
L 259.923222 377.595373 
L 257.294866 377.595373 
z
" style="fill:#1f77b4;"/>
   </g>
   <g id="patch_58">
    <path clip-path="url(#p262461cf1b)" d="M 259.923222 378 
L 262.551578 378 
L 262.551578 377.541144 
L 259.923222 377.541144 
z
" style="fill:#1f77b4;"/>
   </g>
   <g id="patch_59">
    <path clip-path="url(#p262461cf1b)" d="M 262.551578 378 
L 265.179934 378 
L 265.179934 377.578687 
L 262.551578 377.578687 
z
" style="fill:#1f77b4;"/>
   </g>
   <g id="patch_60">
    <path clip-path="url(#p262461cf1b)" d="M 265.179934 378 
L 267.80829 378 
L 267.80829 377.436859 
L 265.179934 377.436859 
z
" style="fill:#1f77b4;"/>
   </g>
   <g id="patch_61">
    <path clip-path="url(#p262461cf1b)" d="M 267.80829 378 
L 270.436646 378 
L 270.436646 377.411831 
L 267.80829 377.411831 
z
" style="fill:#1f77b4;"/>
   </g>
   <g id="patch_62">
    <path clip-path="url(#p262461cf1b)" d="M 270.436646 378 
L 273.065002 378 
L 273.065002 377.420173 
L 270.436646 377.420173 
z
" style="fill:#1f77b4;"/>
   </g>
   <g id="patch_63">
    <path clip-path="url(#p262461cf1b)" d="M 273.065002 378 
L 275.693358 378 
L 275.693358 377.428516 
L 273.065002 377.428516 
z
" style="fill:#1f77b4;"/>
   </g>
   <g id="patch_64">
    <path clip-path="url(#p262461cf1b)" d="M 275.693358 378 
L 278.321715 378 
L 278.321715 377.345088 
L 275.693358 377.345088 
z
" style="fill:#1f77b4;"/>
   </g>
   <g id="patch_65">
    <path clip-path="url(#p262461cf1b)" d="M 278.321715 378 
L 280.950071 378 
L 280.950071 377.357602 
L 278.321715 377.357602 
z
" style="fill:#1f77b4;"/>
   </g>
   <g id="patch_66">
    <path clip-path="url(#p262461cf1b)" d="M 280.950071 378 
L 283.578427 378 
L 283.578427 377.336745 
L 280.950071 377.336745 
z
" style="fill:#1f77b4;"/>
   </g>
   <g id="patch_67">
    <path clip-path="url(#p262461cf1b)" d="M 283.578427 378 
L 286.206783 378 
L 286.206783 377.274174 
L 283.578427 377.274174 
z
" style="fill:#1f77b4;"/>
   </g>
   <g id="patch_68">
    <path clip-path="url(#p262461cf1b)" d="M 286.206783 378 
L 288.835139 378 
L 288.835139 377.219945 
L 286.206783 377.219945 
z
" style="fill:#1f77b4;"/>
   </g>
   <g id="patch_69">
    <path clip-path="url(#p262461cf1b)" d="M 288.835139 378 
L 291.463495 378 
L 291.463495 377.136517 
L 288.835139 377.136517 
z
" style="fill:#1f77b4;"/>
   </g>
   <g id="patch_70">
    <path clip-path="url(#p262461cf1b)" d="M 291.463495 378 
L 294.091851 378 
L 294.091851 377.161546 
L 291.463495 377.161546 
z
" style="fill:#1f77b4;"/>
   </g>
   <g id="patch_71">
    <path clip-path="url(#p262461cf1b)" d="M 294.091851 378 
L 296.720207 378 
L 296.720207 377.186574 
L 294.091851 377.186574 
z
" style="fill:#1f77b4;"/>
   </g>
   <g id="patch_72">
    <path clip-path="url(#p262461cf1b)" d="M 296.720207 378 
L 299.348563 378 
L 299.348563 377.032232 
L 296.720207 377.032232 
z
" style="fill:#1f77b4;"/>
   </g>
   <g id="patch_73">
    <path clip-path="url(#p262461cf1b)" d="M 299.348563 378 
L 301.976919 378 
L 301.976919 377.094803 
L 299.348563 377.094803 
z
" style="fill:#1f77b4;"/>
   </g>
   <g id="patch_74">
    <path clip-path="url(#p262461cf1b)" d="M 301.976919 378 
L 304.605276 378 
L 304.605276 376.944632 
L 301.976919 376.944632 
z
" style="fill:#1f77b4;"/>
   </g>
   <g id="patch_75">
    <path clip-path="url(#p262461cf1b)" d="M 304.605276 378 
L 307.233632 378 
L 307.233632 376.907089 
L 304.605276 376.907089 
z
" style="fill:#1f77b4;"/>
   </g>
   <g id="patch_76">
    <path clip-path="url(#p262461cf1b)" d="M 307.233632 378 
L 309.861988 378 
L 309.861988 376.877889 
L 307.233632 376.877889 
z
" style="fill:#1f77b4;"/>
   </g>
   <g id="patch_77">
    <path clip-path="url(#p262461cf1b)" d="M 309.861988 378 
L 312.490344 378 
L 312.490344 376.840347 
L 309.861988 376.840347 
z
" style="fill:#1f77b4;"/>
   </g>
   <g id="patch_78">
    <path clip-path="url(#p262461cf1b)" d="M 312.490344 378 
L 315.1187 378 
L 315.1187 376.798633 
L 312.490344 376.798633 
z
" style="fill:#1f77b4;"/>
   </g>
   <g id="patch_79">
    <path clip-path="url(#p262461cf1b)" d="M 315.1187 378 
L 317.747056 378 
L 317.747056 376.548348 
L 315.1187 376.548348 
z
" style="fill:#1f77b4;"/>
   </g>
   <g id="patch_80">
    <path clip-path="url(#p262461cf1b)" d="M 317.747056 378 
L 320.375412 378 
L 320.375412 376.510805 
L 317.747056 376.510805 
z
" style="fill:#1f77b4;"/>
   </g>
   <g id="patch_81">
    <path clip-path="url(#p262461cf1b)" d="M 320.375412 378 
L 323.003768 378 
L 323.003768 376.23132 
L 320.375412 376.23132 
z
" style="fill:#1f77b4;"/>
   </g>
   <g id="patch_82">
    <path clip-path="url(#p262461cf1b)" d="M 323.003768 378 
L 325.632124 378 
L 325.632124 376.043606 
L 323.003768 376.043606 
z
" style="fill:#1f77b4;"/>
   </g>
   <g id="patch_83">
    <path clip-path="url(#p262461cf1b)" d="M 325.632124 378 
L 328.26048 378 
L 328.26048 375.872578 
L 325.632124 375.872578 
z
" style="fill:#1f77b4;"/>
   </g>
   <g id="patch_84">
    <path clip-path="url(#p262461cf1b)" d="M 328.26048 378 
L 330.888837 378 
L 330.888837 375.668179 
L 328.26048 375.668179 
z
" style="fill:#1f77b4;"/>
   </g>
   <g id="patch_85">
    <path clip-path="url(#p262461cf1b)" d="M 330.888837 378 
L 333.517193 378 
L 333.517193 375.296923 
L 330.888837 375.296923 
z
" style="fill:#1f77b4;"/>
   </g>
   <g id="patch_86">
    <path clip-path="url(#p262461cf1b)" d="M 333.517193 378 
L 336.145549 378 
L 336.145549 375.159267 
L 333.517193 375.159267 
z
" style="fill:#1f77b4;"/>
   </g>
   <g id="patch_87">
    <path clip-path="url(#p262461cf1b)" d="M 336.145549 378 
L 338.773905 378 
L 338.773905 374.52104 
L 336.145549 374.52104 
z
" style="fill:#1f77b4;"/>
   </g>
   <g id="patch_88">
    <path clip-path="url(#p262461cf1b)" d="M 338.773905 378 
L 341.402261 378 
L 341.402261 374.199841 
L 338.773905 374.199841 
z
" style="fill:#1f77b4;"/>
   </g>
   <g id="patch_89">
    <path clip-path="url(#p262461cf1b)" d="M 341.402261 378 
L 344.030617 378 
L 344.030617 373.645043 
L 341.402261 373.645043 
z
" style="fill:#1f77b4;"/>
   </g>
   <g id="patch_90">
    <path clip-path="url(#p262461cf1b)" d="M 344.030617 378 
L 346.658973 378 
L 346.658973 372.990131 
L 344.030617 372.990131 
z
" style="fill:#1f77b4;"/>
   </g>
   <g id="patch_91">
    <path clip-path="url(#p262461cf1b)" d="M 346.658973 378 
L 349.287329 378 
L 349.287329 372.097448 
L 346.658973 372.097448 
z
" style="fill:#1f77b4;"/>
   </g>
   <g id="patch_92">
    <path clip-path="url(#p262461cf1b)" d="M 349.287329 378 
L 351.915685 378 
L 351.915685 370.666653 
L 349.287329 370.666653 
z
" style="fill:#1f77b4;"/>
   </g>
   <g id="patch_93">
    <path clip-path="url(#p262461cf1b)" d="M 351.915685 378 
L 354.544041 378 
L 354.544041 368.601803 
L 351.915685 368.601803 
z
" style="fill:#1f77b4;"/>
   </g>
   <g id="patch_94">
    <path clip-path="url(#p262461cf1b)" d="M 354.544041 378 
L 357.172398 378 
L 357.172398 365.560841 
L 354.544041 365.560841 
z
" style="fill:#1f77b4;"/>
   </g>
   <g id="patch_95">
    <path clip-path="url(#p262461cf1b)" d="M 357.172398 378 
L 359.800754 378 
L 359.800754 360.955599 
L 357.172398 360.955599 
z
" style="fill:#1f77b4;"/>
   </g>
   <g id="patch_96">
    <path clip-path="url(#p262461cf1b)" d="M 359.800754 378 
L 362.42911 378 
L 362.42911 353.050768 
L 359.800754 353.050768 
z
" style="fill:#1f77b4;"/>
   </g>
   <g id="patch_97">
    <path clip-path="url(#p262461cf1b)" d="M 362.42911 378 
L 365.057466 378 
L 365.057466 340.532353 
L 362.42911 340.532353 
z
" style="fill:#1f77b4;"/>
   </g>
   <g id="patch_98">
    <path clip-path="url(#p262461cf1b)" d="M 365.057466 378 
L 367.685822 378 
L 367.685822 313.084444 
L 365.057466 313.084444 
z
" style="fill:#1f77b4;"/>
   </g>
   <g id="patch_99">
    <path clip-path="url(#p262461cf1b)" d="M 367.685822 378 
L 370.314178 378 
L 370.314178 67.371429 
L 367.685822 67.371429 
z
" style="fill:#1f77b4;"/>
   </g>
   <g id="patch_100">
    <path clip-path="url(#p262461cf1b)" d="M 370.314178 378 
L 372.942534 378 
L 372.942534 316.25889 
L 370.314178 316.25889 
z
" style="fill:#1f77b4;"/>
   </g>
   <g id="patch_101">
    <path clip-path="url(#p262461cf1b)" d="M 372.942534 378 
L 375.57089 378 
L 375.57089 334.967685 
L 372.942534 334.967685 
z
" style="fill:#1f77b4;"/>
   </g>
   <g id="patch_102">
    <path clip-path="url(#p262461cf1b)" d="M 375.57089 378 
L 378.199246 378 
L 378.199246 343.665085 
L 375.57089 343.665085 
z
" style="fill:#1f77b4;"/>
   </g>
   <g id="patch_103">
    <path clip-path="url(#p262461cf1b)" d="M 378.199246 378 
L 380.827602 378 
L 380.827602 351.78683 
L 378.199246 351.78683 
z
" style="fill:#1f77b4;"/>
   </g>
   <g id="patch_104">
    <path clip-path="url(#p262461cf1b)" d="M 380.827602 378 
L 383.455959 378 
L 383.455959 359.236976 
L 380.827602 359.236976 
z
" style="fill:#1f77b4;"/>
   </g>
   <g id="patch_105">
    <path clip-path="url(#p262461cf1b)" d="M 383.455959 378 
L 386.084315 378 
L 386.084315 364.897586 
L 383.455959 364.897586 
z
" style="fill:#1f77b4;"/>
   </g>
   <g id="patch_106">
    <path clip-path="url(#p262461cf1b)" d="M 386.084315 378 
L 388.712671 378 
L 388.712671 368.243061 
L 386.084315 368.243061 
z
" style="fill:#1f77b4;"/>
   </g>
   <g id="patch_107">
    <path clip-path="url(#p262461cf1b)" d="M 388.712671 378 
L 391.341027 378 
L 391.341027 370.57071 
L 388.712671 370.57071 
z
" style="fill:#1f77b4;"/>
   </g>
   <g id="patch_108">
    <path clip-path="url(#p262461cf1b)" d="M 391.341027 378 
L 393.969383 378 
L 393.969383 371.980649 
L 391.341027 371.980649 
z
" style="fill:#1f77b4;"/>
   </g>
   <g id="patch_109">
    <path clip-path="url(#p262461cf1b)" d="M 393.969383 378 
L 396.597739 378 
L 396.597739 372.885846 
L 393.969383 372.885846 
z
" style="fill:#1f77b4;"/>
   </g>
   <g id="patch_110">
    <path clip-path="url(#p262461cf1b)" d="M 396.597739 378 
L 399.226095 378 
L 399.226095 373.594986 
L 396.597739 373.594986 
z
" style="fill:#1f77b4;"/>
   </g>
   <g id="patch_111">
    <path clip-path="url(#p262461cf1b)" d="M 399.226095 378 
L 401.854451 378 
L 401.854451 374.024642 
L 399.226095 374.024642 
z
" style="fill:#1f77b4;"/>
   </g>
   <g id="patch_112">
    <path clip-path="url(#p262461cf1b)" d="M 401.854451 378 
L 404.482807 378 
L 404.482807 374.270755 
L 401.854451 374.270755 
z
" style="fill:#1f77b4;"/>
   </g>
   <g id="patch_113">
    <path clip-path="url(#p262461cf1b)" d="M 404.482807 378 
L 407.111163 378 
L 407.111163 374.767154 
L 404.482807 374.767154 
z
" style="fill:#1f77b4;"/>
   </g>
   <g id="patch_114">
    <path clip-path="url(#p262461cf1b)" d="M 407.111163 378 
L 409.73952 378 
L 409.73952 374.900639 
L 407.111163 374.900639 
z
" style="fill:#1f77b4;"/>
   </g>
   <g id="patch_115">
    <path clip-path="url(#p262461cf1b)" d="M 409.73952 378 
L 412.367876 378 
L 412.367876 375.342809 
L 409.73952 375.342809 
z
" style="fill:#1f77b4;"/>
   </g>
   <g id="patch_116">
    <path clip-path="url(#p262461cf1b)" d="M 412.367876 378 
L 414.996232 378 
L 414.996232 375.697379 
L 412.367876 375.697379 
z
" style="fill:#1f77b4;"/>
   </g>
   <g id="patch_117">
    <path clip-path="url(#p262461cf1b)" d="M 414.996232 378 
L 417.624588 378 
L 417.624588 376.014407 
L 414.996232 376.014407 
z
" style="fill:#1f77b4;"/>
   </g>
   <g id="patch_118">
    <path clip-path="url(#p262461cf1b)" d="M 417.624588 378 
L 420.252944 378 
L 420.252944 376.298063 
L 417.624588 376.298063 
z
" style="fill:#1f77b4;"/>
   </g>
   <g id="patch_119">
    <path clip-path="url(#p262461cf1b)" d="M 420.252944 378 
L 422.8813 378 
L 422.8813 376.364805 
L 420.252944 376.364805 
z
" style="fill:#1f77b4;"/>
   </g>
   <g id="patch_120">
    <path clip-path="url(#p262461cf1b)" d="M 422.8813 378 
L 425.509656 378 
L 425.509656 376.464919 
L 422.8813 376.464919 
z
" style="fill:#1f77b4;"/>
   </g>
   <g id="patch_121">
    <path clip-path="url(#p262461cf1b)" d="M 425.509656 378 
L 428.138012 378 
L 428.138012 376.573376 
L 425.509656 376.573376 
z
" style="fill:#1f77b4;"/>
   </g>
   <g id="patch_122">
    <path clip-path="url(#p262461cf1b)" d="M 428.138012 378 
L 430.766368 378 
L 430.766368 376.744404 
L 428.138012 376.744404 
z
" style="fill:#1f77b4;"/>
   </g>
   <g id="patch_123">
    <path clip-path="url(#p262461cf1b)" d="M 430.766368 378 
L 433.394724 378 
L 433.394724 376.806975 
L 430.766368 376.806975 
z
" style="fill:#1f77b4;"/>
   </g>
   <g id="patch_124">
    <path clip-path="url(#p262461cf1b)" d="M 433.394724 378 
L 436.023081 378 
L 436.023081 376.990518 
L 433.394724 376.990518 
z
" style="fill:#1f77b4;"/>
   </g>
   <g id="patch_125">
    <path clip-path="url(#p262461cf1b)" d="M 436.023081 378 
L 438.651437 378 
L 438.651437 376.940461 
L 436.023081 376.940461 
z
" style="fill:#1f77b4;"/>
   </g>
   <g id="patch_126">
    <path clip-path="url(#p262461cf1b)" d="M 438.651437 378 
L 441.279793 378 
L 441.279793 377.019718 
L 438.651437 377.019718 
z
" style="fill:#1f77b4;"/>
   </g>
   <g id="patch_127">
    <path clip-path="url(#p262461cf1b)" d="M 441.279793 378 
L 443.908149 378 
L 443.908149 377.132346 
L 441.279793 377.132346 
z
" style="fill:#1f77b4;"/>
   </g>
   <g id="patch_128">
    <path clip-path="url(#p262461cf1b)" d="M 443.908149 378 
L 446.536505 378 
L 446.536505 377.157374 
L 443.908149 377.157374 
z
" style="fill:#1f77b4;"/>
   </g>
   <g id="patch_129">
    <path clip-path="url(#p262461cf1b)" d="M 446.536505 378 
L 449.164861 378 
L 449.164861 377.190746 
L 446.536505 377.190746 
z
" style="fill:#1f77b4;"/>
   </g>
   <g id="patch_130">
    <path clip-path="url(#p262461cf1b)" d="M 449.164861 378 
L 451.793217 378 
L 451.793217 377.182403 
L 449.164861 377.182403 
z
" style="fill:#1f77b4;"/>
   </g>
   <g id="patch_131">
    <path clip-path="url(#p262461cf1b)" d="M 451.793217 378 
L 454.421573 378 
L 454.421573 377.244974 
L 451.793217 377.244974 
z
" style="fill:#1f77b4;"/>
   </g>
   <g id="patch_132">
    <path clip-path="url(#p262461cf1b)" d="M 454.421573 378 
L 457.049929 378 
L 457.049929 377.199088 
L 454.421573 377.199088 
z
" style="fill:#1f77b4;"/>
   </g>
   <g id="patch_133">
    <path clip-path="url(#p262461cf1b)" d="M 457.049929 378 
L 459.678285 378 
L 459.678285 377.290859 
L 457.049929 377.290859 
z
" style="fill:#1f77b4;"/>
   </g>
   <g id="patch_134">
    <path clip-path="url(#p262461cf1b)" d="M 459.678285 378 
L 462.306642 378 
L 462.306642 377.295031 
L 459.678285 377.295031 
z
" style="fill:#1f77b4;"/>
   </g>
   <g id="patch_135">
    <path clip-path="url(#p262461cf1b)" d="M 462.306642 378 
L 464.934998 378 
L 464.934998 377.432688 
L 462.306642 377.432688 
z
" style="fill:#1f77b4;"/>
   </g>
   <g id="patch_136">
    <path clip-path="url(#p262461cf1b)" d="M 464.934998 378 
L 467.563354 378 
L 467.563354 377.411831 
L 464.934998 377.411831 
z
" style="fill:#1f77b4;"/>
   </g>
   <g id="patch_137">
    <path clip-path="url(#p262461cf1b)" d="M 467.563354 378 
L 470.19171 378 
L 470.19171 377.453545 
L 467.563354 377.453545 
z
" style="fill:#1f77b4;"/>
   </g>
   <g id="patch_138">
    <path clip-path="url(#p262461cf1b)" d="M 470.19171 378 
L 472.820066 378 
L 472.820066 377.466059 
L 470.19171 377.466059 
z
" style="fill:#1f77b4;"/>
   </g>
   <g id="patch_139">
    <path clip-path="url(#p262461cf1b)" d="M 472.820066 378 
L 475.448422 378 
L 475.448422 377.545316 
L 472.820066 377.545316 
z
" style="fill:#1f77b4;"/>
   </g>
   <g id="patch_140">
    <path clip-path="url(#p262461cf1b)" d="M 475.448422 378 
L 478.076778 378 
L 478.076778 377.466059 
L 475.448422 377.466059 
z
" style="fill:#1f77b4;"/>
   </g>
   <g id="patch_141">
    <path clip-path="url(#p262461cf1b)" d="M 478.076778 378 
L 480.705134 378 
L 480.705134 377.461887 
L 478.076778 377.461887 
z
" style="fill:#1f77b4;"/>
   </g>
   <g id="patch_142">
    <path clip-path="url(#p262461cf1b)" d="M 480.705134 378 
L 483.33349 378 
L 483.33349 377.516116 
L 480.705134 377.516116 
z
" style="fill:#1f77b4;"/>
   </g>
   <g id="patch_143">
    <path clip-path="url(#p262461cf1b)" d="M 483.33349 378 
L 485.961846 378 
L 485.961846 377.562001 
L 483.33349 377.562001 
z
" style="fill:#1f77b4;"/>
   </g>
   <g id="patch_144">
    <path clip-path="url(#p262461cf1b)" d="M 485.961846 378 
L 488.590203 378 
L 488.590203 377.562001 
L 485.961846 377.562001 
z
" style="fill:#1f77b4;"/>
   </g>
   <g id="patch_145">
    <path clip-path="url(#p262461cf1b)" d="M 488.590203 378 
L 491.218559 378 
L 491.218559 377.628744 
L 488.590203 377.628744 
z
" style="fill:#1f77b4;"/>
   </g>
   <g id="patch_146">
    <path clip-path="url(#p262461cf1b)" d="M 491.218559 378 
L 493.846915 378 
L 493.846915 377.637087 
L 491.218559 377.637087 
z
" style="fill:#1f77b4;"/>
   </g>
   <g id="patch_147">
    <path clip-path="url(#p262461cf1b)" d="M 493.846915 378 
L 496.475271 378 
L 496.475271 377.657944 
L 493.846915 377.657944 
z
" style="fill:#1f77b4;"/>
   </g>
   <g id="patch_148">
    <path clip-path="url(#p262461cf1b)" d="M 496.475271 378 
L 499.103627 378 
L 499.103627 377.612058 
L 496.475271 377.612058 
z
" style="fill:#1f77b4;"/>
   </g>
   <g id="patch_149">
    <path clip-path="url(#p262461cf1b)" d="M 499.103627 378 
L 501.731983 378 
L 501.731983 377.682972 
L 499.103627 377.682972 
z
" style="fill:#1f77b4;"/>
   </g>
   <g id="patch_150">
    <path clip-path="url(#p262461cf1b)" d="M 501.731983 378 
L 504.360339 378 
L 504.360339 377.653773 
L 501.731983 377.653773 
z
" style="fill:#1f77b4;"/>
   </g>
   <g id="patch_151">
    <path clip-path="url(#p262461cf1b)" d="M 504.360339 378 
L 506.988695 378 
L 506.988695 377.708001 
L 504.360339 377.708001 
z
" style="fill:#1f77b4;"/>
   </g>
   <g id="patch_152">
    <path clip-path="url(#p262461cf1b)" d="M 506.988695 378 
L 509.617051 378 
L 509.617051 377.733029 
L 506.988695 377.733029 
z
" style="fill:#1f77b4;"/>
   </g>
   <g id="patch_153">
    <path clip-path="url(#p262461cf1b)" d="M 509.617051 378 
L 512.245407 378 
L 512.245407 377.753887 
L 509.617051 377.753887 
z
" style="fill:#1f77b4;"/>
   </g>
   <g id="patch_154">
    <path clip-path="url(#p262461cf1b)" d="M 512.245407 378 
L 514.873764 378 
L 514.873764 377.774744 
L 512.245407 377.774744 
z
" style="fill:#1f77b4;"/>
   </g>
   <g id="patch_155">
    <path clip-path="url(#p262461cf1b)" d="M 514.873764 378 
L 517.50212 378 
L 517.50212 377.724687 
L 514.873764 377.724687 
z
" style="fill:#1f77b4;"/>
   </g>
   <g id="patch_156">
    <path clip-path="url(#p262461cf1b)" d="M 517.50212 378 
L 520.130476 378 
L 520.130476 377.741372 
L 517.50212 377.741372 
z
" style="fill:#1f77b4;"/>
   </g>
   <g id="patch_157">
    <path clip-path="url(#p262461cf1b)" d="M 520.130476 378 
L 522.758832 378 
L 522.758832 377.758058 
L 520.130476 377.758058 
z
" style="fill:#1f77b4;"/>
   </g>
   <g id="patch_158">
    <path clip-path="url(#p262461cf1b)" d="M 522.758832 378 
L 525.387188 378 
L 525.387188 377.770572 
L 522.758832 377.770572 
z
" style="fill:#1f77b4;"/>
   </g>
   <g id="patch_159">
    <path clip-path="url(#p262461cf1b)" d="M 525.387188 378 
L 528.015544 378 
L 528.015544 377.795601 
L 525.387188 377.795601 
z
" style="fill:#1f77b4;"/>
   </g>
   <g id="patch_160">
    <path clip-path="url(#p262461cf1b)" d="M 528.015544 378 
L 530.6439 378 
L 530.6439 377.787258 
L 528.015544 377.787258 
z
" style="fill:#1f77b4;"/>
   </g>
   <g id="patch_161">
    <path clip-path="url(#p262461cf1b)" d="M 530.6439 378 
L 533.272256 378 
L 533.272256 377.799772 
L 530.6439 377.799772 
z
" style="fill:#1f77b4;"/>
   </g>
   <g id="patch_162">
    <path clip-path="url(#p262461cf1b)" d="M 533.272256 378 
L 535.900612 378 
L 535.900612 377.828972 
L 533.272256 377.828972 
z
" style="fill:#1f77b4;"/>
   </g>
   <g id="patch_163">
    <path clip-path="url(#p262461cf1b)" d="M 535.900612 378 
L 538.528968 378 
L 538.528968 377.816458 
L 535.900612 377.816458 
z
" style="fill:#1f77b4;"/>
   </g>
   <g id="patch_164">
    <path clip-path="url(#p262461cf1b)" d="M 538.528968 378 
L 541.157325 378 
L 541.157325 377.816458 
L 538.528968 377.816458 
z
" style="fill:#1f77b4;"/>
   </g>
   <g id="patch_165">
    <path clip-path="url(#p262461cf1b)" d="M 541.157325 378 
L 543.785681 378 
L 543.785681 377.820629 
L 541.157325 377.820629 
z
" style="fill:#1f77b4;"/>
   </g>
   <g id="patch_166">
    <path clip-path="url(#p262461cf1b)" d="M 543.785681 378 
L 546.414037 378 
L 546.414037 377.866515 
L 543.785681 377.866515 
z
" style="fill:#1f77b4;"/>
   </g>
   <g id="patch_167">
    <path clip-path="url(#p262461cf1b)" d="M 546.414037 378 
L 549.042393 378 
L 549.042393 377.837315 
L 546.414037 377.837315 
z
" style="fill:#1f77b4;"/>
   </g>
   <g id="patch_168">
    <path clip-path="url(#p262461cf1b)" d="M 549.042393 378 
L 551.670749 378 
L 551.670749 377.837315 
L 549.042393 377.837315 
z
" style="fill:#1f77b4;"/>
   </g>
   <g id="patch_169">
    <path clip-path="url(#p262461cf1b)" d="M 551.670749 378 
L 554.299105 378 
L 554.299105 377.833143 
L 551.670749 377.833143 
z
" style="fill:#1f77b4;"/>
   </g>
   <g id="patch_170">
    <path clip-path="url(#p262461cf1b)" d="M 554.299105 378 
L 556.927461 378 
L 556.927461 377.803944 
L 554.299105 377.803944 
z
" style="fill:#1f77b4;"/>
   </g>
   <g id="patch_171">
    <path clip-path="url(#p262461cf1b)" d="M 556.927461 378 
L 559.555817 378 
L 559.555817 377.854 
L 556.927461 377.854 
z
" style="fill:#1f77b4;"/>
   </g>
   <g id="patch_172">
    <path clip-path="url(#p262461cf1b)" d="M 559.555817 378 
L 562.184173 378 
L 562.184173 377.862343 
L 559.555817 377.862343 
z
" style="fill:#1f77b4;"/>
   </g>
   <g id="patch_173">
    <path clip-path="url(#p262461cf1b)" d="M 562.184173 378 
L 564.812529 378 
L 564.812529 377.820629 
L 562.184173 377.820629 
z
" style="fill:#1f77b4;"/>
   </g>
   <g id="patch_174">
    <path clip-path="url(#p262461cf1b)" d="M 564.812529 378 
L 567.440886 378 
L 567.440886 377.908229 
L 564.812529 377.908229 
z
" style="fill:#1f77b4;"/>
   </g>
   <g id="patch_175">
    <path clip-path="url(#p262461cf1b)" d="M 567.440886 378 
L 570.069242 378 
L 570.069242 377.845658 
L 567.440886 377.845658 
z
" style="fill:#1f77b4;"/>
   </g>
   <g id="patch_176">
    <path clip-path="url(#p262461cf1b)" d="M 570.069242 378 
L 572.697598 378 
L 572.697598 377.8832 
L 570.069242 377.8832 
z
" style="fill:#1f77b4;"/>
   </g>
   <g id="patch_177">
    <path clip-path="url(#p262461cf1b)" d="M 572.697598 378 
L 575.325954 378 
L 575.325954 377.879029 
L 572.697598 377.879029 
z
" style="fill:#1f77b4;"/>
   </g>
   <g id="patch_178">
    <path clip-path="url(#p262461cf1b)" d="M 575.325954 378 
L 577.95431 378 
L 577.95431 377.854 
L 575.325954 377.854 
z
" style="fill:#1f77b4;"/>
   </g>
   <g id="patch_179">
    <path clip-path="url(#p262461cf1b)" d="M 577.95431 378 
L 580.582666 378 
L 580.582666 377.870686 
L 577.95431 377.870686 
z
" style="fill:#1f77b4;"/>
   </g>
   <g id="patch_180">
    <path clip-path="url(#p262461cf1b)" d="M 580.582666 378 
L 583.211022 378 
L 583.211022 377.866515 
L 580.582666 377.866515 
z
" style="fill:#1f77b4;"/>
   </g>
   <g id="patch_181">
    <path clip-path="url(#p262461cf1b)" d="M 583.211022 378 
L 585.839378 378 
L 585.839378 377.866515 
L 583.211022 377.866515 
z
" style="fill:#1f77b4;"/>
   </g>
   <g id="patch_182">
    <path clip-path="url(#p262461cf1b)" d="M 585.839378 378 
L 588.467734 378 
L 588.467734 377.8832 
L 585.839378 377.8832 
z
" style="fill:#1f77b4;"/>
   </g>
   <g id="patch_183">
    <path clip-path="url(#p262461cf1b)" d="M 588.467734 378 
L 591.09609 378 
L 591.09609 377.895715 
L 588.467734 377.895715 
z
" style="fill:#1f77b4;"/>
   </g>
   <g id="patch_184">
    <path clip-path="url(#p262461cf1b)" d="M 591.09609 378 
L 593.724447 378 
L 593.724447 377.920743 
L 591.09609 377.920743 
z
" style="fill:#1f77b4;"/>
   </g>
   <g id="patch_185">
    <path clip-path="url(#p262461cf1b)" d="M 593.724447 378 
L 596.352803 378 
L 596.352803 377.916572 
L 593.724447 377.916572 
z
" style="fill:#1f77b4;"/>
   </g>
   <g id="patch_186">
    <path clip-path="url(#p262461cf1b)" d="M 596.352803 378 
L 598.981159 378 
L 598.981159 377.895715 
L 596.352803 377.895715 
z
" style="fill:#1f77b4;"/>
   </g>
   <g id="patch_187">
    <path clip-path="url(#p262461cf1b)" d="M 598.981159 378 
L 601.609515 378 
L 601.609515 377.908229 
L 598.981159 377.908229 
z
" style="fill:#1f77b4;"/>
   </g>
   <g id="patch_188">
    <path clip-path="url(#p262461cf1b)" d="M 601.609515 378 
L 604.237871 378 
L 604.237871 377.937429 
L 601.609515 377.937429 
z
" style="fill:#1f77b4;"/>
   </g>
   <g id="patch_189">
    <path clip-path="url(#p262461cf1b)" d="M 604.237871 378 
L 606.866227 378 
L 606.866227 377.924915 
L 604.237871 377.924915 
z
" style="fill:#1f77b4;"/>
   </g>
   <g id="patch_190">
    <path clip-path="url(#p262461cf1b)" d="M 606.866227 378 
L 609.494583 378 
L 609.494583 377.904057 
L 606.866227 377.904057 
z
" style="fill:#1f77b4;"/>
   </g>
   <g id="patch_191">
    <path clip-path="url(#p262461cf1b)" d="M 609.494583 378 
L 612.122939 378 
L 612.122939 377.916572 
L 609.494583 377.916572 
z
" style="fill:#1f77b4;"/>
   </g>
   <g id="patch_192">
    <path clip-path="url(#p262461cf1b)" d="M 612.122939 378 
L 614.751295 378 
L 614.751295 377.933257 
L 612.122939 377.933257 
z
" style="fill:#1f77b4;"/>
   </g>
   <g id="patch_193">
    <path clip-path="url(#p262461cf1b)" d="M 614.751295 378 
L 617.379651 378 
L 617.379651 377.916572 
L 614.751295 377.916572 
z
" style="fill:#1f77b4;"/>
   </g>
   <g id="patch_194">
    <path clip-path="url(#p262461cf1b)" d="M 617.379651 378 
L 620.008008 378 
L 620.008008 377.9124 
L 617.379651 377.9124 
z
" style="fill:#1f77b4;"/>
   </g>
   <g id="patch_195">
    <path clip-path="url(#p262461cf1b)" d="M 620.008008 378 
L 622.636364 378 
L 622.636364 377.949943 
L 620.008008 377.949943 
z
" style="fill:#1f77b4;"/>
   </g>
   <g id="matplotlib.axis_1">
    <g id="xtick_1">
     <g id="line2d_1">
      <defs>
       <path d="M 0 0 
L 0 3.5 
" id="m57594b993d" style="stroke:#000000;stroke-width:0.8;"/>
      </defs>
      <g>
       <use style="stroke:#000000;stroke-width:0.8;" x="104.795455" xlink:href="#m57594b993d" y="378"/>
      </g>
     </g>
     <g id="text_1">
      <!-- −100 -->
      <defs>
       <path d="M 10.59375 35.5 
L 73.1875 35.5 
L 73.1875 27.203125 
L 10.59375 27.203125 
z
" id="DejaVuSans-8722"/>
       <path d="M 12.40625 8.296875 
L 28.515625 8.296875 
L 28.515625 63.921875 
L 10.984375 60.40625 
L 10.984375 69.390625 
L 28.421875 72.90625 
L 38.28125 72.90625 
L 38.28125 8.296875 
L 54.390625 8.296875 
L 54.390625 0 
L 12.40625 0 
z
" id="DejaVuSans-49"/>
       <path d="M 31.78125 66.40625 
Q 24.171875 66.40625 20.328125 58.90625 
Q 16.5 51.421875 16.5 36.375 
Q 16.5 21.390625 20.328125 13.890625 
Q 24.171875 6.390625 31.78125 6.390625 
Q 39.453125 6.390625 43.28125 13.890625 
Q 47.125 21.390625 47.125 36.375 
Q 47.125 51.421875 43.28125 58.90625 
Q 39.453125 66.40625 31.78125 66.40625 
z
M 31.78125 74.21875 
Q 44.046875 74.21875 50.515625 64.515625 
Q 56.984375 54.828125 56.984375 36.375 
Q 56.984375 17.96875 50.515625 8.265625 
Q 44.046875 -1.421875 31.78125 -1.421875 
Q 19.53125 -1.421875 13.0625 8.265625 
Q 6.59375 17.96875 6.59375 36.375 
Q 6.59375 54.828125 13.0625 64.515625 
Q 19.53125 74.21875 31.78125 74.21875 
z
" id="DejaVuSans-48"/>
      </defs>
      <g transform="translate(91.061861 392.598437)scale(0.1 -0.1)">
       <use xlink:href="#DejaVuSans-8722"/>
       <use x="83.789062" xlink:href="#DejaVuSans-49"/>
       <use x="147.412109" xlink:href="#DejaVuSans-48"/>
       <use x="211.035156" xlink:href="#DejaVuSans-48"/>
      </g>
     </g>
    </g>
    <g id="xtick_2">
     <g id="line2d_2">
      <g>
       <use style="stroke:#000000;stroke-width:0.8;" x="170.846591" xlink:href="#m57594b993d" y="378"/>
      </g>
     </g>
     <g id="text_2">
      <!-- −75 -->
      <defs>
       <path d="M 8.203125 72.90625 
L 55.078125 72.90625 
L 55.078125 68.703125 
L 28.609375 0 
L 18.3125 0 
L 43.21875 64.59375 
L 8.203125 64.59375 
z
" id="DejaVuSans-55"/>
       <path d="M 10.796875 72.90625 
L 49.515625 72.90625 
L 49.515625 64.59375 
L 19.828125 64.59375 
L 19.828125 46.734375 
Q 21.96875 47.46875 24.109375 47.828125 
Q 26.265625 48.1875 28.421875 48.1875 
Q 40.625 48.1875 47.75 41.5 
Q 54.890625 34.8125 54.890625 23.390625 
Q 54.890625 11.625 47.5625 5.09375 
Q 40.234375 -1.421875 26.90625 -1.421875 
Q 22.3125 -1.421875 17.546875 -0.640625 
Q 12.796875 0.140625 7.71875 1.703125 
L 7.71875 11.625 
Q 12.109375 9.234375 16.796875 8.0625 
Q 21.484375 6.890625 26.703125 6.890625 
Q 35.15625 6.890625 40.078125 11.328125 
Q 45.015625 15.765625 45.015625 23.390625 
Q 45.015625 31 40.078125 35.4375 
Q 35.15625 39.890625 26.703125 39.890625 
Q 22.75 39.890625 18.8125 39.015625 
Q 14.890625 38.140625 10.796875 36.28125 
z
" id="DejaVuSans-53"/>
      </defs>
      <g transform="translate(160.294247 392.598437)scale(0.1 -0.1)">
       <use xlink:href="#DejaVuSans-8722"/>
       <use x="83.789062" xlink:href="#DejaVuSans-55"/>
       <use x="147.412109" xlink:href="#DejaVuSans-53"/>
      </g>
     </g>
    </g>
    <g id="xtick_3">
     <g id="line2d_3">
      <g>
       <use style="stroke:#000000;stroke-width:0.8;" x="236.897727" xlink:href="#m57594b993d" y="378"/>
      </g>
     </g>
     <g id="text_3">
      <!-- −50 -->
      <g transform="translate(226.345384 392.598437)scale(0.1 -0.1)">
       <use xlink:href="#DejaVuSans-8722"/>
       <use x="83.789062" xlink:href="#DejaVuSans-53"/>
       <use x="147.412109" xlink:href="#DejaVuSans-48"/>
      </g>
     </g>
    </g>
    <g id="xtick_4">
     <g id="line2d_4">
      <g>
       <use style="stroke:#000000;stroke-width:0.8;" x="302.948864" xlink:href="#m57594b993d" y="378"/>
      </g>
     </g>
     <g id="text_4">
      <!-- −25 -->
      <defs>
       <path d="M 19.1875 8.296875 
L 53.609375 8.296875 
L 53.609375 0 
L 7.328125 0 
L 7.328125 8.296875 
Q 12.9375 14.109375 22.625 23.890625 
Q 32.328125 33.6875 34.8125 36.53125 
Q 39.546875 41.84375 41.421875 45.53125 
Q 43.3125 49.21875 43.3125 52.78125 
Q 43.3125 58.59375 39.234375 62.25 
Q 35.15625 65.921875 28.609375 65.921875 
Q 23.96875 65.921875 18.8125 64.3125 
Q 13.671875 62.703125 7.8125 59.421875 
L 7.8125 69.390625 
Q 13.765625 71.78125 18.9375 73 
Q 24.125 74.21875 28.421875 74.21875 
Q 39.75 74.21875 46.484375 68.546875 
Q 53.21875 62.890625 53.21875 53.421875 
Q 53.21875 48.921875 51.53125 44.890625 
Q 49.859375 40.875 45.40625 35.40625 
Q 44.1875 33.984375 37.640625 27.21875 
Q 31.109375 20.453125 19.1875 8.296875 
z
" id="DejaVuSans-50"/>
      </defs>
      <g transform="translate(292.39652 392.598437)scale(0.1 -0.1)">
       <use xlink:href="#DejaVuSans-8722"/>
       <use x="83.789062" xlink:href="#DejaVuSans-50"/>
       <use x="147.412109" xlink:href="#DejaVuSans-53"/>
      </g>
     </g>
    </g>
    <g id="xtick_5">
     <g id="line2d_5">
      <g>
       <use style="stroke:#000000;stroke-width:0.8;" x="369" xlink:href="#m57594b993d" y="378"/>
      </g>
     </g>
     <g id="text_5">
      <!-- 0 -->
      <g transform="translate(365.81875 392.598437)scale(0.1 -0.1)">
       <use xlink:href="#DejaVuSans-48"/>
      </g>
     </g>
    </g>
    <g id="xtick_6">
     <g id="line2d_6">
      <g>
       <use style="stroke:#000000;stroke-width:0.8;" x="435.051136" xlink:href="#m57594b993d" y="378"/>
      </g>
     </g>
     <g id="text_6">
      <!-- 25 -->
      <g transform="translate(428.688636 392.598437)scale(0.1 -0.1)">
       <use xlink:href="#DejaVuSans-50"/>
       <use x="63.623047" xlink:href="#DejaVuSans-53"/>
      </g>
     </g>
    </g>
    <g id="xtick_7">
     <g id="line2d_7">
      <g>
       <use style="stroke:#000000;stroke-width:0.8;" x="501.102273" xlink:href="#m57594b993d" y="378"/>
      </g>
     </g>
     <g id="text_7">
      <!-- 50 -->
      <g transform="translate(494.739773 392.598437)scale(0.1 -0.1)">
       <use xlink:href="#DejaVuSans-53"/>
       <use x="63.623047" xlink:href="#DejaVuSans-48"/>
      </g>
     </g>
    </g>
    <g id="xtick_8">
     <g id="line2d_8">
      <g>
       <use style="stroke:#000000;stroke-width:0.8;" x="567.153409" xlink:href="#m57594b993d" y="378"/>
      </g>
     </g>
     <g id="text_8">
      <!-- 75 -->
      <g transform="translate(560.790909 392.598437)scale(0.1 -0.1)">
       <use xlink:href="#DejaVuSans-55"/>
       <use x="63.623047" xlink:href="#DejaVuSans-53"/>
      </g>
     </g>
    </g>
    <g id="xtick_9">
     <g id="line2d_9">
      <g>
       <use style="stroke:#000000;stroke-width:0.8;" x="633.204545" xlink:href="#m57594b993d" y="378"/>
      </g>
     </g>
     <g id="text_9">
      <!-- 100 -->
      <g transform="translate(623.660795 392.598437)scale(0.1 -0.1)">
       <use xlink:href="#DejaVuSans-49"/>
       <use x="63.623047" xlink:href="#DejaVuSans-48"/>
       <use x="127.246094" xlink:href="#DejaVuSans-48"/>
      </g>
     </g>
    </g>
    <g id="text_10">
     <!-- Separation between ONT 3' ends and Helicos Bio poly-A peaks (bp) -->
     <defs>
      <path d="M 53.515625 70.515625 
L 53.515625 60.890625 
Q 47.90625 63.578125 42.921875 64.890625 
Q 37.9375 66.21875 33.296875 66.21875 
Q 25.25 66.21875 20.875 63.09375 
Q 16.5 59.96875 16.5 54.203125 
Q 16.5 49.359375 19.40625 46.890625 
Q 22.3125 44.4375 30.421875 42.921875 
L 36.375 41.703125 
Q 47.40625 39.59375 52.65625 34.296875 
Q 57.90625 29 57.90625 20.125 
Q 57.90625 9.515625 50.796875 4.046875 
Q 43.703125 -1.421875 29.984375 -1.421875 
Q 24.8125 -1.421875 18.96875 -0.25 
Q 13.140625 0.921875 6.890625 3.21875 
L 6.890625 13.375 
Q 12.890625 10.015625 18.65625 8.296875 
Q 24.421875 6.59375 29.984375 6.59375 
Q 38.421875 6.59375 43.015625 9.90625 
Q 47.609375 13.234375 47.609375 19.390625 
Q 47.609375 24.75 44.3125 27.78125 
Q 41.015625 30.8125 33.5 32.328125 
L 27.484375 33.5 
Q 16.453125 35.6875 11.515625 40.375 
Q 6.59375 45.0625 6.59375 53.421875 
Q 6.59375 63.09375 13.40625 68.65625 
Q 20.21875 74.21875 32.171875 74.21875 
Q 37.3125 74.21875 42.625 73.28125 
Q 47.953125 72.359375 53.515625 70.515625 
z
" id="DejaVuSans-83"/>
      <path d="M 56.203125 29.59375 
L 56.203125 25.203125 
L 14.890625 25.203125 
Q 15.484375 15.921875 20.484375 11.0625 
Q 25.484375 6.203125 34.421875 6.203125 
Q 39.59375 6.203125 44.453125 7.46875 
Q 49.3125 8.734375 54.109375 11.28125 
L 54.109375 2.78125 
Q 49.265625 0.734375 44.1875 -0.34375 
Q 39.109375 -1.421875 33.890625 -1.421875 
Q 20.796875 -1.421875 13.15625 6.1875 
Q 5.515625 13.8125 5.515625 26.8125 
Q 5.515625 40.234375 12.765625 48.109375 
Q 20.015625 56 32.328125 56 
Q 43.359375 56 49.78125 48.890625 
Q 56.203125 41.796875 56.203125 29.59375 
z
M 47.21875 32.234375 
Q 47.125 39.59375 43.09375 43.984375 
Q 39.0625 48.390625 32.421875 48.390625 
Q 24.90625 48.390625 20.390625 44.140625 
Q 15.875 39.890625 15.1875 32.171875 
z
" id="DejaVuSans-101"/>
      <path d="M 18.109375 8.203125 
L 18.109375 -20.796875 
L 9.078125 -20.796875 
L 9.078125 54.6875 
L 18.109375 54.6875 
L 18.109375 46.390625 
Q 20.953125 51.265625 25.265625 53.625 
Q 29.59375 56 35.59375 56 
Q 45.5625 56 51.78125 48.09375 
Q 58.015625 40.1875 58.015625 27.296875 
Q 58.015625 14.40625 51.78125 6.484375 
Q 45.5625 -1.421875 35.59375 -1.421875 
Q 29.59375 -1.421875 25.265625 0.953125 
Q 20.953125 3.328125 18.109375 8.203125 
z
M 48.6875 27.296875 
Q 48.6875 37.203125 44.609375 42.84375 
Q 40.53125 48.484375 33.40625 48.484375 
Q 26.265625 48.484375 22.1875 42.84375 
Q 18.109375 37.203125 18.109375 27.296875 
Q 18.109375 17.390625 22.1875 11.75 
Q 26.265625 6.109375 33.40625 6.109375 
Q 40.53125 6.109375 44.609375 11.75 
Q 48.6875 17.390625 48.6875 27.296875 
z
" id="DejaVuSans-112"/>
      <path d="M 34.28125 27.484375 
Q 23.390625 27.484375 19.1875 25 
Q 14.984375 22.515625 14.984375 16.5 
Q 14.984375 11.71875 18.140625 8.90625 
Q 21.296875 6.109375 26.703125 6.109375 
Q 34.1875 6.109375 38.703125 11.40625 
Q 43.21875 16.703125 43.21875 25.484375 
L 43.21875 27.484375 
z
M 52.203125 31.203125 
L 52.203125 0 
L 43.21875 0 
L 43.21875 8.296875 
Q 40.140625 3.328125 35.546875 0.953125 
Q 30.953125 -1.421875 24.3125 -1.421875 
Q 15.921875 -1.421875 10.953125 3.296875 
Q 6 8.015625 6 15.921875 
Q 6 25.140625 12.171875 29.828125 
Q 18.359375 34.515625 30.609375 34.515625 
L 43.21875 34.515625 
L 43.21875 35.40625 
Q 43.21875 41.609375 39.140625 45 
Q 35.0625 48.390625 27.6875 48.390625 
Q 23 48.390625 18.546875 47.265625 
Q 14.109375 46.140625 10.015625 43.890625 
L 10.015625 52.203125 
Q 14.9375 54.109375 19.578125 55.046875 
Q 24.21875 56 28.609375 56 
Q 40.484375 56 46.34375 49.84375 
Q 52.203125 43.703125 52.203125 31.203125 
z
" id="DejaVuSans-97"/>
      <path d="M 41.109375 46.296875 
Q 39.59375 47.171875 37.8125 47.578125 
Q 36.03125 48 33.890625 48 
Q 26.265625 48 22.1875 43.046875 
Q 18.109375 38.09375 18.109375 28.8125 
L 18.109375 0 
L 9.078125 0 
L 9.078125 54.6875 
L 18.109375 54.6875 
L 18.109375 46.1875 
Q 20.953125 51.171875 25.484375 53.578125 
Q 30.03125 56 36.53125 56 
Q 37.453125 56 38.578125 55.875 
Q 39.703125 55.765625 41.0625 55.515625 
z
" id="DejaVuSans-114"/>
      <path d="M 18.3125 70.21875 
L 18.3125 54.6875 
L 36.8125 54.6875 
L 36.8125 47.703125 
L 18.3125 47.703125 
L 18.3125 18.015625 
Q 18.3125 11.328125 20.140625 9.421875 
Q 21.96875 7.515625 27.59375 7.515625 
L 36.8125 7.515625 
L 36.8125 0 
L 27.59375 0 
Q 17.1875 0 13.234375 3.875 
Q 9.28125 7.765625 9.28125 18.015625 
L 9.28125 47.703125 
L 2.6875 47.703125 
L 2.6875 54.6875 
L 9.28125 54.6875 
L 9.28125 70.21875 
z
" id="DejaVuSans-116"/>
      <path d="M 9.421875 54.6875 
L 18.40625 54.6875 
L 18.40625 0 
L 9.421875 0 
z
M 9.421875 75.984375 
L 18.40625 75.984375 
L 18.40625 64.59375 
L 9.421875 64.59375 
z
" id="DejaVuSans-105"/>
      <path d="M 30.609375 48.390625 
Q 23.390625 48.390625 19.1875 42.75 
Q 14.984375 37.109375 14.984375 27.296875 
Q 14.984375 17.484375 19.15625 11.84375 
Q 23.34375 6.203125 30.609375 6.203125 
Q 37.796875 6.203125 41.984375 11.859375 
Q 46.1875 17.53125 46.1875 27.296875 
Q 46.1875 37.015625 41.984375 42.703125 
Q 37.796875 48.390625 30.609375 48.390625 
z
M 30.609375 56 
Q 42.328125 56 49.015625 48.375 
Q 55.71875 40.765625 55.71875 27.296875 
Q 55.71875 13.875 49.015625 6.21875 
Q 42.328125 -1.421875 30.609375 -1.421875 
Q 18.84375 -1.421875 12.171875 6.21875 
Q 5.515625 13.875 5.515625 27.296875 
Q 5.515625 40.765625 12.171875 48.375 
Q 18.84375 56 30.609375 56 
z
" id="DejaVuSans-111"/>
      <path d="M 54.890625 33.015625 
L 54.890625 0 
L 45.90625 0 
L 45.90625 32.71875 
Q 45.90625 40.484375 42.875 44.328125 
Q 39.84375 48.1875 33.796875 48.1875 
Q 26.515625 48.1875 22.3125 43.546875 
Q 18.109375 38.921875 18.109375 30.90625 
L 18.109375 0 
L 9.078125 0 
L 9.078125 54.6875 
L 18.109375 54.6875 
L 18.109375 46.1875 
Q 21.34375 51.125 25.703125 53.5625 
Q 30.078125 56 35.796875 56 
Q 45.21875 56 50.046875 50.171875 
Q 54.890625 44.34375 54.890625 33.015625 
z
" id="DejaVuSans-110"/>
      <path id="DejaVuSans-32"/>
      <path d="M 48.6875 27.296875 
Q 48.6875 37.203125 44.609375 42.84375 
Q 40.53125 48.484375 33.40625 48.484375 
Q 26.265625 48.484375 22.1875 42.84375 
Q 18.109375 37.203125 18.109375 27.296875 
Q 18.109375 17.390625 22.1875 11.75 
Q 26.265625 6.109375 33.40625 6.109375 
Q 40.53125 6.109375 44.609375 11.75 
Q 48.6875 17.390625 48.6875 27.296875 
z
M 18.109375 46.390625 
Q 20.953125 51.265625 25.265625 53.625 
Q 29.59375 56 35.59375 56 
Q 45.5625 56 51.78125 48.09375 
Q 58.015625 40.1875 58.015625 27.296875 
Q 58.015625 14.40625 51.78125 6.484375 
Q 45.5625 -1.421875 35.59375 -1.421875 
Q 29.59375 -1.421875 25.265625 0.953125 
Q 20.953125 3.328125 18.109375 8.203125 
L 18.109375 0 
L 9.078125 0 
L 9.078125 75.984375 
L 18.109375 75.984375 
z
" id="DejaVuSans-98"/>
      <path d="M 4.203125 54.6875 
L 13.1875 54.6875 
L 24.421875 12.015625 
L 35.59375 54.6875 
L 46.1875 54.6875 
L 57.421875 12.015625 
L 68.609375 54.6875 
L 77.59375 54.6875 
L 63.28125 0 
L 52.6875 0 
L 40.921875 44.828125 
L 29.109375 0 
L 18.5 0 
z
" id="DejaVuSans-119"/>
      <path d="M 39.40625 66.21875 
Q 28.65625 66.21875 22.328125 58.203125 
Q 16.015625 50.203125 16.015625 36.375 
Q 16.015625 22.609375 22.328125 14.59375 
Q 28.65625 6.59375 39.40625 6.59375 
Q 50.140625 6.59375 56.421875 14.59375 
Q 62.703125 22.609375 62.703125 36.375 
Q 62.703125 50.203125 56.421875 58.203125 
Q 50.140625 66.21875 39.40625 66.21875 
z
M 39.40625 74.21875 
Q 54.734375 74.21875 63.90625 63.9375 
Q 73.09375 53.65625 73.09375 36.375 
Q 73.09375 19.140625 63.90625 8.859375 
Q 54.734375 -1.421875 39.40625 -1.421875 
Q 24.03125 -1.421875 14.8125 8.828125 
Q 5.609375 19.09375 5.609375 36.375 
Q 5.609375 53.65625 14.8125 63.9375 
Q 24.03125 74.21875 39.40625 74.21875 
z
" id="DejaVuSans-79"/>
      <path d="M 9.8125 72.90625 
L 23.09375 72.90625 
L 55.421875 11.921875 
L 55.421875 72.90625 
L 64.984375 72.90625 
L 64.984375 0 
L 51.703125 0 
L 19.390625 60.984375 
L 19.390625 0 
L 9.8125 0 
z
" id="DejaVuSans-78"/>
      <path d="M -0.296875 72.90625 
L 61.375 72.90625 
L 61.375 64.59375 
L 35.5 64.59375 
L 35.5 0 
L 25.59375 0 
L 25.59375 64.59375 
L -0.296875 64.59375 
z
" id="DejaVuSans-84"/>
      <path d="M 40.578125 39.3125 
Q 47.65625 37.796875 51.625 33 
Q 55.609375 28.21875 55.609375 21.1875 
Q 55.609375 10.40625 48.1875 4.484375 
Q 40.765625 -1.421875 27.09375 -1.421875 
Q 22.515625 -1.421875 17.65625 -0.515625 
Q 12.796875 0.390625 7.625 2.203125 
L 7.625 11.71875 
Q 11.71875 9.328125 16.59375 8.109375 
Q 21.484375 6.890625 26.8125 6.890625 
Q 36.078125 6.890625 40.9375 10.546875 
Q 45.796875 14.203125 45.796875 21.1875 
Q 45.796875 27.640625 41.28125 31.265625 
Q 36.765625 34.90625 28.71875 34.90625 
L 20.21875 34.90625 
L 20.21875 43.015625 
L 29.109375 43.015625 
Q 36.375 43.015625 40.234375 45.921875 
Q 44.09375 48.828125 44.09375 54.296875 
Q 44.09375 59.90625 40.109375 62.90625 
Q 36.140625 65.921875 28.71875 65.921875 
Q 24.65625 65.921875 20.015625 65.03125 
Q 15.375 64.15625 9.8125 62.3125 
L 9.8125 71.09375 
Q 15.4375 72.65625 20.34375 73.4375 
Q 25.25 74.21875 29.59375 74.21875 
Q 40.828125 74.21875 47.359375 69.109375 
Q 53.90625 64.015625 53.90625 55.328125 
Q 53.90625 49.265625 50.4375 45.09375 
Q 46.96875 40.921875 40.578125 39.3125 
z
" id="DejaVuSans-51"/>
      <path d="M 17.921875 72.90625 
L 17.921875 45.796875 
L 9.625 45.796875 
L 9.625 72.90625 
z
" id="DejaVuSans-39"/>
      <path d="M 45.40625 46.390625 
L 45.40625 75.984375 
L 54.390625 75.984375 
L 54.390625 0 
L 45.40625 0 
L 45.40625 8.203125 
Q 42.578125 3.328125 38.25 0.953125 
Q 33.9375 -1.421875 27.875 -1.421875 
Q 17.96875 -1.421875 11.734375 6.484375 
Q 5.515625 14.40625 5.515625 27.296875 
Q 5.515625 40.1875 11.734375 48.09375 
Q 17.96875 56 27.875 56 
Q 33.9375 56 38.25 53.625 
Q 42.578125 51.265625 45.40625 46.390625 
z
M 14.796875 27.296875 
Q 14.796875 17.390625 18.875 11.75 
Q 22.953125 6.109375 30.078125 6.109375 
Q 37.203125 6.109375 41.296875 11.75 
Q 45.40625 17.390625 45.40625 27.296875 
Q 45.40625 37.203125 41.296875 42.84375 
Q 37.203125 48.484375 30.078125 48.484375 
Q 22.953125 48.484375 18.875 42.84375 
Q 14.796875 37.203125 14.796875 27.296875 
z
" id="DejaVuSans-100"/>
      <path d="M 44.28125 53.078125 
L 44.28125 44.578125 
Q 40.484375 46.53125 36.375 47.5 
Q 32.28125 48.484375 27.875 48.484375 
Q 21.1875 48.484375 17.84375 46.4375 
Q 14.5 44.390625 14.5 40.28125 
Q 14.5 37.15625 16.890625 35.375 
Q 19.28125 33.59375 26.515625 31.984375 
L 29.59375 31.296875 
Q 39.15625 29.25 43.1875 25.515625 
Q 47.21875 21.78125 47.21875 15.09375 
Q 47.21875 7.46875 41.1875 3.015625 
Q 35.15625 -1.421875 24.609375 -1.421875 
Q 20.21875 -1.421875 15.453125 -0.5625 
Q 10.6875 0.296875 5.421875 2 
L 5.421875 11.28125 
Q 10.40625 8.6875 15.234375 7.390625 
Q 20.0625 6.109375 24.8125 6.109375 
Q 31.15625 6.109375 34.5625 8.28125 
Q 37.984375 10.453125 37.984375 14.40625 
Q 37.984375 18.0625 35.515625 20.015625 
Q 33.0625 21.96875 24.703125 23.78125 
L 21.578125 24.515625 
Q 13.234375 26.265625 9.515625 29.90625 
Q 5.8125 33.546875 5.8125 39.890625 
Q 5.8125 47.609375 11.28125 51.796875 
Q 16.75 56 26.8125 56 
Q 31.78125 56 36.171875 55.265625 
Q 40.578125 54.546875 44.28125 53.078125 
z
" id="DejaVuSans-115"/>
      <path d="M 9.8125 72.90625 
L 19.671875 72.90625 
L 19.671875 43.015625 
L 55.515625 43.015625 
L 55.515625 72.90625 
L 65.375 72.90625 
L 65.375 0 
L 55.515625 0 
L 55.515625 34.71875 
L 19.671875 34.71875 
L 19.671875 0 
L 9.8125 0 
z
" id="DejaVuSans-72"/>
      <path d="M 9.421875 75.984375 
L 18.40625 75.984375 
L 18.40625 0 
L 9.421875 0 
z
" id="DejaVuSans-108"/>
      <path d="M 48.78125 52.59375 
L 48.78125 44.1875 
Q 44.96875 46.296875 41.140625 47.34375 
Q 37.3125 48.390625 33.40625 48.390625 
Q 24.65625 48.390625 19.8125 42.84375 
Q 14.984375 37.3125 14.984375 27.296875 
Q 14.984375 17.28125 19.8125 11.734375 
Q 24.65625 6.203125 33.40625 6.203125 
Q 37.3125 6.203125 41.140625 7.25 
Q 44.96875 8.296875 48.78125 10.40625 
L 48.78125 2.09375 
Q 45.015625 0.34375 40.984375 -0.53125 
Q 36.96875 -1.421875 32.421875 -1.421875 
Q 20.0625 -1.421875 12.78125 6.34375 
Q 5.515625 14.109375 5.515625 27.296875 
Q 5.515625 40.671875 12.859375 48.328125 
Q 20.21875 56 33.015625 56 
Q 37.15625 56 41.109375 55.140625 
Q 45.0625 54.296875 48.78125 52.59375 
z
" id="DejaVuSans-99"/>
      <path d="M 19.671875 34.8125 
L 19.671875 8.109375 
L 35.5 8.109375 
Q 43.453125 8.109375 47.28125 11.40625 
Q 51.125 14.703125 51.125 21.484375 
Q 51.125 28.328125 47.28125 31.5625 
Q 43.453125 34.8125 35.5 34.8125 
z
M 19.671875 64.796875 
L 19.671875 42.828125 
L 34.28125 42.828125 
Q 41.5 42.828125 45.03125 45.53125 
Q 48.578125 48.25 48.578125 53.8125 
Q 48.578125 59.328125 45.03125 62.0625 
Q 41.5 64.796875 34.28125 64.796875 
z
M 9.8125 72.90625 
L 35.015625 72.90625 
Q 46.296875 72.90625 52.390625 68.21875 
Q 58.5 63.53125 58.5 54.890625 
Q 58.5 48.1875 55.375 44.234375 
Q 52.25 40.28125 46.1875 39.3125 
Q 53.46875 37.75 57.5 32.78125 
Q 61.53125 27.828125 61.53125 20.40625 
Q 61.53125 10.640625 54.890625 5.3125 
Q 48.25 0 35.984375 0 
L 9.8125 0 
z
" id="DejaVuSans-66"/>
      <path d="M 32.171875 -5.078125 
Q 28.375 -14.84375 24.75 -17.8125 
Q 21.140625 -20.796875 15.09375 -20.796875 
L 7.90625 -20.796875 
L 7.90625 -13.28125 
L 13.1875 -13.28125 
Q 16.890625 -13.28125 18.9375 -11.515625 
Q 21 -9.765625 23.484375 -3.21875 
L 25.09375 0.875 
L 2.984375 54.6875 
L 12.5 54.6875 
L 29.59375 11.921875 
L 46.6875 54.6875 
L 56.203125 54.6875 
z
" id="DejaVuSans-121"/>
      <path d="M 4.890625 31.390625 
L 31.203125 31.390625 
L 31.203125 23.390625 
L 4.890625 23.390625 
z
" id="DejaVuSans-45"/>
      <path d="M 34.1875 63.1875 
L 20.796875 26.90625 
L 47.609375 26.90625 
z
M 28.609375 72.90625 
L 39.796875 72.90625 
L 67.578125 0 
L 57.328125 0 
L 50.6875 18.703125 
L 17.828125 18.703125 
L 11.1875 0 
L 0.78125 0 
z
" id="DejaVuSans-65"/>
      <path d="M 9.078125 75.984375 
L 18.109375 75.984375 
L 18.109375 31.109375 
L 44.921875 54.6875 
L 56.390625 54.6875 
L 27.390625 29.109375 
L 57.625 0 
L 45.90625 0 
L 18.109375 26.703125 
L 18.109375 0 
L 9.078125 0 
z
" id="DejaVuSans-107"/>
      <path d="M 31 75.875 
Q 24.46875 64.65625 21.28125 53.65625 
Q 18.109375 42.671875 18.109375 31.390625 
Q 18.109375 20.125 21.3125 9.0625 
Q 24.515625 -2 31 -13.1875 
L 23.1875 -13.1875 
Q 15.875 -1.703125 12.234375 9.375 
Q 8.59375 20.453125 8.59375 31.390625 
Q 8.59375 42.28125 12.203125 53.3125 
Q 15.828125 64.359375 23.1875 75.875 
z
" id="DejaVuSans-40"/>
      <path d="M 8.015625 75.875 
L 15.828125 75.875 
Q 23.140625 64.359375 26.78125 53.3125 
Q 30.421875 42.28125 30.421875 31.390625 
Q 30.421875 20.453125 26.78125 9.375 
Q 23.140625 -1.703125 15.828125 -13.1875 
L 8.015625 -13.1875 
Q 14.5 -2 17.703125 9.0625 
Q 20.90625 20.125 20.90625 31.390625 
Q 20.90625 42.671875 17.703125 53.65625 
Q 14.5 64.65625 8.015625 75.875 
z
" id="DejaVuSans-41"/>
     </defs>
     <g transform="translate(200.808594 406.276563)scale(0.1 -0.1)">
      <use xlink:href="#DejaVuSans-83"/>
      <use x="63.476562" xlink:href="#DejaVuSans-101"/>
      <use x="125" xlink:href="#DejaVuSans-112"/>
      <use x="188.476562" xlink:href="#DejaVuSans-97"/>
      <use x="249.755859" xlink:href="#DejaVuSans-114"/>
      <use x="290.869141" xlink:href="#DejaVuSans-97"/>
      <use x="352.148438" xlink:href="#DejaVuSans-116"/>
      <use x="391.357422" xlink:href="#DejaVuSans-105"/>
      <use x="419.140625" xlink:href="#DejaVuSans-111"/>
      <use x="480.322266" xlink:href="#DejaVuSans-110"/>
      <use x="543.701172" xlink:href="#DejaVuSans-32"/>
      <use x="575.488281" xlink:href="#DejaVuSans-98"/>
      <use x="638.964844" xlink:href="#DejaVuSans-101"/>
      <use x="700.488281" xlink:href="#DejaVuSans-116"/>
      <use x="739.697266" xlink:href="#DejaVuSans-119"/>
      <use x="821.484375" xlink:href="#DejaVuSans-101"/>
      <use x="883.007812" xlink:href="#DejaVuSans-101"/>
      <use x="944.53125" xlink:href="#DejaVuSans-110"/>
      <use x="1007.910156" xlink:href="#DejaVuSans-32"/>
      <use x="1039.697266" xlink:href="#DejaVuSans-79"/>
      <use x="1118.408203" xlink:href="#DejaVuSans-78"/>
      <use x="1193.212891" xlink:href="#DejaVuSans-84"/>
      <use x="1254.296875" xlink:href="#DejaVuSans-32"/>
      <use x="1286.083984" xlink:href="#DejaVuSans-51"/>
      <use x="1349.707031" xlink:href="#DejaVuSans-39"/>
      <use x="1377.197266" xlink:href="#DejaVuSans-32"/>
      <use x="1408.984375" xlink:href="#DejaVuSans-101"/>
      <use x="1470.507812" xlink:href="#DejaVuSans-110"/>
      <use x="1533.886719" xlink:href="#DejaVuSans-100"/>
      <use x="1597.363281" xlink:href="#DejaVuSans-115"/>
      <use x="1649.462891" xlink:href="#DejaVuSans-32"/>
      <use x="1681.25" xlink:href="#DejaVuSans-97"/>
      <use x="1742.529297" xlink:href="#DejaVuSans-110"/>
      <use x="1805.908203" xlink:href="#DejaVuSans-100"/>
      <use x="1869.384766" xlink:href="#DejaVuSans-32"/>
      <use x="1901.171875" xlink:href="#DejaVuSans-72"/>
      <use x="1976.367188" xlink:href="#DejaVuSans-101"/>
      <use x="2037.890625" xlink:href="#DejaVuSans-108"/>
      <use x="2065.673828" xlink:href="#DejaVuSans-105"/>
      <use x="2093.457031" xlink:href="#DejaVuSans-99"/>
      <use x="2148.4375" xlink:href="#DejaVuSans-111"/>
      <use x="2209.619141" xlink:href="#DejaVuSans-115"/>
      <use x="2261.71875" xlink:href="#DejaVuSans-32"/>
      <use x="2293.505859" xlink:href="#DejaVuSans-66"/>
      <use x="2362.109375" xlink:href="#DejaVuSans-105"/>
      <use x="2389.892578" xlink:href="#DejaVuSans-111"/>
      <use x="2451.074219" xlink:href="#DejaVuSans-32"/>
      <use x="2482.861328" xlink:href="#DejaVuSans-112"/>
      <use x="2546.337891" xlink:href="#DejaVuSans-111"/>
      <use x="2607.519531" xlink:href="#DejaVuSans-108"/>
      <use x="2635.302734" xlink:href="#DejaVuSans-121"/>
      <use x="2694.466797" xlink:href="#DejaVuSans-45"/>
      <use x="2730.519531" xlink:href="#DejaVuSans-65"/>
      <use x="2798.927734" xlink:href="#DejaVuSans-32"/>
      <use x="2830.714844" xlink:href="#DejaVuSans-112"/>
      <use x="2894.191406" xlink:href="#DejaVuSans-101"/>
      <use x="2955.714844" xlink:href="#DejaVuSans-97"/>
      <use x="3016.994141" xlink:href="#DejaVuSans-107"/>
      <use x="3074.904297" xlink:href="#DejaVuSans-115"/>
      <use x="3127.003906" xlink:href="#DejaVuSans-32"/>
      <use x="3158.791016" xlink:href="#DejaVuSans-40"/>
      <use x="3197.804688" xlink:href="#DejaVuSans-98"/>
      <use x="3261.28125" xlink:href="#DejaVuSans-112"/>
      <use x="3324.757812" xlink:href="#DejaVuSans-41"/>
     </g>
    </g>
   </g>
   <g id="matplotlib.axis_2">
    <g id="ytick_1">
     <g id="line2d_10">
      <defs>
       <path d="M 0 0 
L -3.5 0 
" id="macb56f2afe" style="stroke:#000000;stroke-width:0.8;"/>
      </defs>
      <g>
       <use style="stroke:#000000;stroke-width:0.8;" x="90" xlink:href="#macb56f2afe" y="378"/>
      </g>
     </g>
     <g id="text_11">
      <!-- 0 -->
      <g transform="translate(76.6375 381.799219)scale(0.1 -0.1)">
       <use xlink:href="#DejaVuSans-48"/>
      </g>
     </g>
    </g>
    <g id="ytick_2">
     <g id="line2d_11">
      <g>
       <use style="stroke:#000000;stroke-width:0.8;" x="90" xlink:href="#macb56f2afe" y="336.285852"/>
      </g>
     </g>
     <g id="text_12">
      <!-- 10000 -->
      <g transform="translate(51.1875 340.085071)scale(0.1 -0.1)">
       <use xlink:href="#DejaVuSans-49"/>
       <use x="63.623047" xlink:href="#DejaVuSans-48"/>
       <use x="127.246094" xlink:href="#DejaVuSans-48"/>
       <use x="190.869141" xlink:href="#DejaVuSans-48"/>
       <use x="254.492188" xlink:href="#DejaVuSans-48"/>
      </g>
     </g>
    </g>
    <g id="ytick_3">
     <g id="line2d_12">
      <g>
       <use style="stroke:#000000;stroke-width:0.8;" x="90" xlink:href="#macb56f2afe" y="294.571705"/>
      </g>
     </g>
     <g id="text_13">
      <!-- 20000 -->
      <g transform="translate(51.1875 298.370924)scale(0.1 -0.1)">
       <use xlink:href="#DejaVuSans-50"/>
       <use x="63.623047" xlink:href="#DejaVuSans-48"/>
       <use x="127.246094" xlink:href="#DejaVuSans-48"/>
       <use x="190.869141" xlink:href="#DejaVuSans-48"/>
       <use x="254.492188" xlink:href="#DejaVuSans-48"/>
      </g>
     </g>
    </g>
    <g id="ytick_4">
     <g id="line2d_13">
      <g>
       <use style="stroke:#000000;stroke-width:0.8;" x="90" xlink:href="#macb56f2afe" y="252.857557"/>
      </g>
     </g>
     <g id="text_14">
      <!-- 30000 -->
      <g transform="translate(51.1875 256.656776)scale(0.1 -0.1)">
       <use xlink:href="#DejaVuSans-51"/>
       <use x="63.623047" xlink:href="#DejaVuSans-48"/>
       <use x="127.246094" xlink:href="#DejaVuSans-48"/>
       <use x="190.869141" xlink:href="#DejaVuSans-48"/>
       <use x="254.492188" xlink:href="#DejaVuSans-48"/>
      </g>
     </g>
    </g>
    <g id="ytick_5">
     <g id="line2d_14">
      <g>
       <use style="stroke:#000000;stroke-width:0.8;" x="90" xlink:href="#macb56f2afe" y="211.14341"/>
      </g>
     </g>
     <g id="text_15">
      <!-- 40000 -->
      <defs>
       <path d="M 37.796875 64.3125 
L 12.890625 25.390625 
L 37.796875 25.390625 
z
M 35.203125 72.90625 
L 47.609375 72.90625 
L 47.609375 25.390625 
L 58.015625 25.390625 
L 58.015625 17.1875 
L 47.609375 17.1875 
L 47.609375 0 
L 37.796875 0 
L 37.796875 17.1875 
L 4.890625 17.1875 
L 4.890625 26.703125 
z
" id="DejaVuSans-52"/>
      </defs>
      <g transform="translate(51.1875 214.942628)scale(0.1 -0.1)">
       <use xlink:href="#DejaVuSans-52"/>
       <use x="63.623047" xlink:href="#DejaVuSans-48"/>
       <use x="127.246094" xlink:href="#DejaVuSans-48"/>
       <use x="190.869141" xlink:href="#DejaVuSans-48"/>
       <use x="254.492188" xlink:href="#DejaVuSans-48"/>
      </g>
     </g>
    </g>
    <g id="ytick_6">
     <g id="line2d_15">
      <g>
       <use style="stroke:#000000;stroke-width:0.8;" x="90" xlink:href="#macb56f2afe" y="169.429262"/>
      </g>
     </g>
     <g id="text_16">
      <!-- 50000 -->
      <g transform="translate(51.1875 173.228481)scale(0.1 -0.1)">
       <use xlink:href="#DejaVuSans-53"/>
       <use x="63.623047" xlink:href="#DejaVuSans-48"/>
       <use x="127.246094" xlink:href="#DejaVuSans-48"/>
       <use x="190.869141" xlink:href="#DejaVuSans-48"/>
       <use x="254.492188" xlink:href="#DejaVuSans-48"/>
      </g>
     </g>
    </g>
    <g id="ytick_7">
     <g id="line2d_16">
      <g>
       <use style="stroke:#000000;stroke-width:0.8;" x="90" xlink:href="#macb56f2afe" y="127.715114"/>
      </g>
     </g>
     <g id="text_17">
      <!-- 60000 -->
      <defs>
       <path d="M 33.015625 40.375 
Q 26.375 40.375 22.484375 35.828125 
Q 18.609375 31.296875 18.609375 23.390625 
Q 18.609375 15.53125 22.484375 10.953125 
Q 26.375 6.390625 33.015625 6.390625 
Q 39.65625 6.390625 43.53125 10.953125 
Q 47.40625 15.53125 47.40625 23.390625 
Q 47.40625 31.296875 43.53125 35.828125 
Q 39.65625 40.375 33.015625 40.375 
z
M 52.59375 71.296875 
L 52.59375 62.3125 
Q 48.875 64.0625 45.09375 64.984375 
Q 41.3125 65.921875 37.59375 65.921875 
Q 27.828125 65.921875 22.671875 59.328125 
Q 17.53125 52.734375 16.796875 39.40625 
Q 19.671875 43.65625 24.015625 45.921875 
Q 28.375 48.1875 33.59375 48.1875 
Q 44.578125 48.1875 50.953125 41.515625 
Q 57.328125 34.859375 57.328125 23.390625 
Q 57.328125 12.15625 50.6875 5.359375 
Q 44.046875 -1.421875 33.015625 -1.421875 
Q 20.359375 -1.421875 13.671875 8.265625 
Q 6.984375 17.96875 6.984375 36.375 
Q 6.984375 53.65625 15.1875 63.9375 
Q 23.390625 74.21875 37.203125 74.21875 
Q 40.921875 74.21875 44.703125 73.484375 
Q 48.484375 72.75 52.59375 71.296875 
z
" id="DejaVuSans-54"/>
      </defs>
      <g transform="translate(51.1875 131.514333)scale(0.1 -0.1)">
       <use xlink:href="#DejaVuSans-54"/>
       <use x="63.623047" xlink:href="#DejaVuSans-48"/>
       <use x="127.246094" xlink:href="#DejaVuSans-48"/>
       <use x="190.869141" xlink:href="#DejaVuSans-48"/>
       <use x="254.492188" xlink:href="#DejaVuSans-48"/>
      </g>
     </g>
    </g>
    <g id="ytick_8">
     <g id="line2d_17">
      <g>
       <use style="stroke:#000000;stroke-width:0.8;" x="90" xlink:href="#macb56f2afe" y="86.000967"/>
      </g>
     </g>
     <g id="text_18">
      <!-- 70000 -->
      <g transform="translate(51.1875 89.800186)scale(0.1 -0.1)">
       <use xlink:href="#DejaVuSans-55"/>
       <use x="63.623047" xlink:href="#DejaVuSans-48"/>
       <use x="127.246094" xlink:href="#DejaVuSans-48"/>
       <use x="190.869141" xlink:href="#DejaVuSans-48"/>
       <use x="254.492188" xlink:href="#DejaVuSans-48"/>
      </g>
     </g>
    </g>
    <g id="text_19">
     <!-- Count -->
     <defs>
      <path d="M 64.40625 67.28125 
L 64.40625 56.890625 
Q 59.421875 61.53125 53.78125 63.8125 
Q 48.140625 66.109375 41.796875 66.109375 
Q 29.296875 66.109375 22.65625 58.46875 
Q 16.015625 50.828125 16.015625 36.375 
Q 16.015625 21.96875 22.65625 14.328125 
Q 29.296875 6.6875 41.796875 6.6875 
Q 48.140625 6.6875 53.78125 8.984375 
Q 59.421875 11.28125 64.40625 15.921875 
L 64.40625 5.609375 
Q 59.234375 2.09375 53.4375 0.328125 
Q 47.65625 -1.421875 41.21875 -1.421875 
Q 24.65625 -1.421875 15.125 8.703125 
Q 5.609375 18.84375 5.609375 36.375 
Q 5.609375 53.953125 15.125 64.078125 
Q 24.65625 74.21875 41.21875 74.21875 
Q 47.75 74.21875 53.53125 72.484375 
Q 59.328125 70.75 64.40625 67.28125 
z
" id="DejaVuSans-67"/>
      <path d="M 8.5 21.578125 
L 8.5 54.6875 
L 17.484375 54.6875 
L 17.484375 21.921875 
Q 17.484375 14.15625 20.5 10.265625 
Q 23.53125 6.390625 29.59375 6.390625 
Q 36.859375 6.390625 41.078125 11.03125 
Q 45.3125 15.671875 45.3125 23.6875 
L 45.3125 54.6875 
L 54.296875 54.6875 
L 54.296875 0 
L 45.3125 0 
L 45.3125 8.40625 
Q 42.046875 3.421875 37.71875 1 
Q 33.40625 -1.421875 27.6875 -1.421875 
Q 18.265625 -1.421875 13.375 4.4375 
Q 8.5 10.296875 8.5 21.578125 
z
M 31.109375 56 
z
" id="DejaVuSans-117"/>
     </defs>
     <g transform="translate(45.107812 229.768437)rotate(-90)scale(0.1 -0.1)">
      <use xlink:href="#DejaVuSans-67"/>
      <use x="69.824219" xlink:href="#DejaVuSans-111"/>
      <use x="131.005859" xlink:href="#DejaVuSans-117"/>
      <use x="194.384766" xlink:href="#DejaVuSans-110"/>
      <use x="257.763672" xlink:href="#DejaVuSans-116"/>
     </g>
    </g>
   </g>
   <g id="patch_196">
    <path d="M 90 378 
L 90 51.84 
" style="fill:none;stroke:#000000;stroke-linecap:square;stroke-linejoin:miter;stroke-width:0.8;"/>
   </g>
   <g id="patch_197">
    <path d="M 648 378 
L 648 51.84 
" style="fill:none;stroke:#000000;stroke-linecap:square;stroke-linejoin:miter;stroke-width:0.8;"/>
   </g>
   <g id="patch_198">
    <path d="M 90 378 
L 648 378 
" style="fill:none;stroke:#000000;stroke-linecap:square;stroke-linejoin:miter;stroke-width:0.8;"/>
   </g>
   <g id="patch_199">
    <path d="M 90 51.84 
L 648 51.84 
" style="fill:none;stroke:#000000;stroke-linecap:square;stroke-linejoin:miter;stroke-width:0.8;"/>
   </g>
  </g>
 </g>
 <defs>
  <clipPath id="p262461cf1b">
   <rect height="326.16" width="558" x="90" y="51.84"/>
  </clipPath>
 </defs>
</svg>
