<?xml version="1.0" encoding="utf-8"?>
<!-- Generator: Adobe Illustrator 15.1.0, SVG Export Plug-In . SVG Version: 6.00 Build 0)  -->
<!DOCTYPE svg PUBLIC "-//W3C//DTD SVG 1.1//EN" "http://www.w3.org/Graphics/SVG/1.1/DTD/svg11.dtd">
<svg version="1.1" id="Layer_1" xmlns="http://www.w3.org/2000/svg" xmlns:xlink="http://www.w3.org/1999/xlink" x="0px" y="0px"
	 width="1256px" height="1068px" viewBox="82.5 112.5 1256 1068" enable-background="new 82.5 112.5 1256 1068"
	 xml:space="preserve">
<g>
	<g>
		<g id="patch_10">
			<g>
				<path fill="#F4F4F4" stroke="#F4F4F4" d="M314.283,638.373h763.268v-25.636H314.283V638.373z"/>
			</g>
		</g>
		<g id="patch_11">
			<g>
				<path fill="#F4F4F4" stroke="#F4F4F4" d="M314.283,587.101h763.268v-25.636H314.283V587.101z"/>
			</g>
		</g>
		<g id="patch_12">
			<g>
				<path fill="#F4F4F4" stroke="#F4F4F4" d="M314.283,535.829h763.268v-25.636H314.283V535.829z"/>
			</g>
		</g>
	</g>
	<g>
		<g>
			<path id="m43b1a66039_2_" fill="#DFDFDF" stroke="#DFDFDF" stroke-linejoin="round" d="M355.195,557.308
				c2.297,0,4.5-0.913,6.124-2.537s2.537-3.827,2.537-6.124c0-2.296-0.913-4.499-2.537-6.123s-3.827-2.537-6.124-2.537
				c-2.296,0-4.499,0.913-6.123,2.537s-2.537,3.827-2.537,6.123c0,2.297,0.913,4.5,2.537,6.124S352.899,557.308,355.195,557.308z"/>
		</g>
		<path id="m43b1a66039_6_" fill="#DFDFDF" stroke="#DFDFDF" stroke-linejoin="round" d="M379.532,557.308
			c2.297,0,4.5-0.913,6.124-2.537s2.536-3.827,2.536-6.124c0-2.296-0.912-4.499-2.536-6.123s-3.827-2.537-6.124-2.537
			s-4.5,0.913-6.124,2.537s-2.536,3.827-2.536,6.123c0,2.297,0.912,4.5,2.536,6.124S377.236,557.308,379.532,557.308z"/>
		<g>
			<path id="m43b1a66039_9_" fill="#DFDFDF" stroke="#DFDFDF" stroke-linejoin="round" d="M403.869,557.308
				c2.297,0,4.5-0.913,6.124-2.537s2.536-3.827,2.536-6.124c0-2.296-0.912-4.499-2.536-6.123s-3.827-2.537-6.124-2.537
				s-4.499,0.913-6.123,2.537s-2.537,3.827-2.537,6.123c0,2.297,0.913,4.5,2.537,6.124S401.573,557.308,403.869,557.308z"/>
		</g>
		<g>
			<path id="m43b1a66039_17_" fill="#DFDFDF" stroke="#DFDFDF" stroke-linejoin="round" d="M452.544,557.308
				c2.297,0,4.5-0.913,6.124-2.537s2.536-3.827,2.536-6.124c0-2.296-0.912-4.499-2.536-6.123s-3.827-2.537-6.124-2.537
				s-4.5,0.913-6.124,2.537s-2.536,3.827-2.536,6.123c0,2.297,0.912,4.5,2.536,6.124S450.247,557.308,452.544,557.308z"/>
		</g>
		<g>
			<path id="m43b1a66039_24_" fill="#DFDFDF" stroke="#DFDFDF" stroke-linejoin="round" d="M525.556,557.308
				c2.297,0,4.5-0.913,6.124-2.537s2.536-3.827,2.536-6.124c0-2.296-0.912-4.499-2.536-6.123s-3.827-2.537-6.124-2.537
				s-4.5,0.913-6.124,2.537s-2.536,3.827-2.536,6.123c0,2.297,0.912,4.5,2.536,6.124S523.259,557.308,525.556,557.308z"/>
		</g>
		<g>
			<path id="m43b1a66039_27_" fill="#DFDFDF" stroke="#DFDFDF" stroke-linejoin="round" d="M549.893,557.308
				c2.297,0,4.5-0.913,6.124-2.537s2.537-3.827,2.537-6.124c0-2.296-0.913-4.499-2.537-6.123s-3.827-2.537-6.124-2.537
				c-2.296,0-4.499,0.913-6.123,2.537s-2.537,3.827-2.537,6.123c0,2.297,0.913,4.5,2.537,6.124S547.597,557.308,549.893,557.308z"/>
		</g>
		<g>
			<path id="m43b1a66039_29_" fill="#DFDFDF" stroke="#DFDFDF" stroke-linejoin="round" d="M574.231,557.308
				c2.297,0,4.499-0.913,6.124-2.537c1.623-1.624,2.536-3.827,2.536-6.124c0-2.296-0.913-4.499-2.536-6.123
				c-1.625-1.624-3.827-2.537-6.124-2.537s-4.5,0.913-6.124,2.537s-2.536,3.827-2.536,6.123c0,2.297,0.912,4.5,2.536,6.124
				S571.934,557.308,574.231,557.308z"/>
		</g>
		<g>
			<path id="m43b1a66039_32_" fill="#DFDFDF" stroke="#DFDFDF" stroke-linejoin="round" d="M598.568,557.308
				c2.297,0,4.5-0.913,6.124-2.537s2.536-3.827,2.536-6.124c0-2.296-0.912-4.499-2.536-6.123s-3.827-2.537-6.124-2.537
				s-4.499,0.913-6.123,2.537s-2.537,3.827-2.537,6.123c0,2.297,0.913,4.5,2.537,6.124S596.271,557.308,598.568,557.308z"/>
		</g>
		<g>
			<g>
				<path id="m43b1a66039_36_" fill="#DFDFDF" stroke="#DFDFDF" stroke-linejoin="round" d="M671.579,557.308
					c2.297,0,4.5-0.913,6.124-2.537s2.537-3.827,2.537-6.124c0-2.296-0.913-4.499-2.537-6.123s-3.827-2.537-6.124-2.537
					c-2.296,0-4.499,0.913-6.123,2.537s-2.537,3.827-2.537,6.123c0,2.297,0.913,4.5,2.537,6.124S669.283,557.308,671.579,557.308z"
					/>
			</g>
		</g>
		<g>
			<path id="m43b1a66039_38_" fill="#DFDFDF" stroke="#DFDFDF" stroke-linejoin="round" d="M695.917,557.308
				c2.297,0,4.5-0.913,6.123-2.537c1.625-1.624,2.537-3.827,2.537-6.124c0-2.296-0.912-4.499-2.537-6.123
				c-1.623-1.624-3.826-2.537-6.123-2.537s-4.5,0.913-6.124,2.537s-2.536,3.827-2.536,6.123c0,2.297,0.912,4.5,2.536,6.124
				S693.62,557.308,695.917,557.308z"/>
		</g>
		<g>
			<path id="m43b1a66039_43_" fill="#DFDFDF" stroke="#DFDFDF" stroke-linejoin="round" d="M720.254,557.308
				c2.297,0,4.5-0.913,6.124-2.537s2.536-3.827,2.536-6.124c0-2.296-0.912-4.499-2.536-6.123s-3.827-2.537-6.124-2.537
				s-4.499,0.913-6.123,2.537s-2.537,3.827-2.537,6.123c0,2.297,0.913,4.5,2.537,6.124S717.957,557.308,720.254,557.308z"/>
		</g>
		<g>
			<path id="m43b1a66039_45_" fill="#DFDFDF" stroke="#DFDFDF" stroke-linejoin="round" d="M744.592,557.308
				c2.296,0,4.499-0.913,6.123-2.537s2.537-3.827,2.537-6.124c0-2.296-0.913-4.499-2.537-6.123s-3.827-2.537-6.123-2.537
				c-2.297,0-4.5,0.913-6.124,2.537s-2.537,3.827-2.537,6.123c0,2.297,0.913,4.5,2.537,6.124S742.295,557.308,744.592,557.308z"/>
		</g>
		<g>
			<path id="m43b1a66039_55_" fill="#DFDFDF" stroke="#DFDFDF" stroke-linejoin="round" d="M866.279,557.308
				c2.297,0,4.499-0.913,6.123-2.537s2.537-3.827,2.537-6.124c0-2.296-0.913-4.499-2.537-6.123s-3.826-2.537-6.123-2.537
				s-4.5,0.913-6.124,2.537s-2.536,3.827-2.536,6.123c0,2.297,0.912,4.5,2.536,6.124S863.982,557.308,866.279,557.308z"/>
		</g>
		<g>
			<path id="m43b1a66039_63_" fill="#DFDFDF" stroke="#DFDFDF" stroke-linejoin="round" d="M963.627,557.308
				c2.297,0,4.5-0.913,6.124-2.537s2.536-3.827,2.536-6.124c0-2.296-0.912-4.499-2.536-6.123s-3.827-2.537-6.124-2.537
				s-4.499,0.913-6.124,2.537c-1.623,1.624-2.536,3.827-2.536,6.123c0,2.297,0.913,4.5,2.536,6.124
				C959.128,556.395,961.33,557.308,963.627,557.308z"/>
		</g>
		<g>
			<path id="m43b1a66039_69_" fill="#DFDFDF" stroke="#DFDFDF" stroke-linejoin="round" d="M1012.302,557.308
				c2.297,0,4.5-0.913,6.124-2.537s2.536-3.827,2.536-6.124c0-2.296-0.912-4.499-2.536-6.123s-3.827-2.537-6.124-2.537
				s-4.5,0.913-6.124,2.537s-2.536,3.827-2.536,6.123c0,2.297,0.912,4.5,2.536,6.124S1010.005,557.308,1012.302,557.308z"/>
		</g>
		<g>
			<path id="m43b1a66039_3_" fill="#DFDFDF" stroke="#DFDFDF" stroke-linejoin="round" d="M355.195,608.579
				c2.297,0,4.5-0.913,6.124-2.537s2.537-3.827,2.537-6.123c0-2.297-0.913-4.5-2.537-6.124s-3.827-2.536-6.124-2.536
				c-2.296,0-4.499,0.912-6.123,2.536s-2.537,3.827-2.537,6.124c0,2.296,0.913,4.499,2.537,6.123S352.899,608.579,355.195,608.579z"
				/>
		</g>
		<g>
			<path id="m43b1a66039_10_" fill="#DFDFDF" stroke="#DFDFDF" stroke-linejoin="round" d="M403.869,608.579
				c2.297,0,4.5-0.913,6.124-2.537s2.536-3.827,2.536-6.123c0-2.297-0.912-4.5-2.536-6.124s-3.827-2.536-6.124-2.536
				s-4.499,0.912-6.123,2.536s-2.537,3.827-2.537,6.124c0,2.296,0.913,4.499,2.537,6.123S401.573,608.579,403.869,608.579z"/>
		</g>
		<g>
			<path id="m43b1a66039_14_" fill="#DFDFDF" stroke="#DFDFDF" stroke-linejoin="round" d="M428.206,608.579
				c2.297,0,4.5-0.913,6.124-2.537s2.537-3.827,2.537-6.123c0-2.297-0.913-4.5-2.537-6.124s-3.827-2.536-6.124-2.536
				c-2.296,0-4.499,0.912-6.123,2.536s-2.537,3.827-2.537,6.124c0,2.296,0.913,4.499,2.537,6.123S425.91,608.579,428.206,608.579z"
				/>
		</g>
		<g>
			<path id="m43b1a66039_18_" fill="#DFDFDF" stroke="#DFDFDF" stroke-linejoin="round" d="M452.544,608.579
				c2.297,0,4.5-0.913,6.124-2.537s2.536-3.827,2.536-6.123c0-2.297-0.912-4.5-2.536-6.124s-3.827-2.536-6.124-2.536
				s-4.5,0.912-6.124,2.536s-2.536,3.827-2.536,6.124c0,2.296,0.912,4.499,2.536,6.123S450.247,608.579,452.544,608.579z"/>
		</g>
		<g>
			<path id="m43b1a66039_22_" fill="#DFDFDF" stroke="#DFDFDF" stroke-linejoin="round" d="M501.219,608.579
				c2.296,0,4.499-0.913,6.123-2.537s2.537-3.827,2.537-6.123c0-2.297-0.913-4.5-2.537-6.124s-3.827-2.536-6.123-2.536
				c-2.297,0-4.5,0.912-6.124,2.536s-2.537,3.827-2.537,6.124c0,2.296,0.913,4.499,2.537,6.123S498.922,608.579,501.219,608.579z"/>
		</g>
		<g>
			<path id="m43b1a66039_25_" fill="#DFDFDF" stroke="#DFDFDF" stroke-linejoin="round" d="M525.556,608.579
				c2.297,0,4.5-0.913,6.124-2.537s2.536-3.827,2.536-6.123c0-2.297-0.912-4.5-2.536-6.124s-3.827-2.536-6.124-2.536
				s-4.5,0.912-6.124,2.536s-2.536,3.827-2.536,6.124c0,2.296,0.912,4.499,2.536,6.123S523.259,608.579,525.556,608.579z"/>
		</g>
		<g>
			<path id="m43b1a66039_28_" fill="#DFDFDF" stroke="#DFDFDF" stroke-linejoin="round" d="M574.231,608.579
				c2.297,0,4.499-0.913,6.124-2.537c1.623-1.624,2.536-3.827,2.536-6.123c0-2.297-0.913-4.5-2.536-6.124
				c-1.625-1.624-3.827-2.536-6.124-2.536s-4.5,0.912-6.124,2.536s-2.536,3.827-2.536,6.124c0,2.296,0.912,4.499,2.536,6.123
				S571.934,608.579,574.231,608.579z"/>
		</g>
		<g>
			<path id="m43b1a66039_30_" fill="#DFDFDF" stroke="#DFDFDF" stroke-linejoin="round" d="M598.568,608.579
				c2.297,0,4.5-0.913,6.124-2.537s2.536-3.827,2.536-6.123c0-2.297-0.912-4.5-2.536-6.124s-3.827-2.536-6.124-2.536
				s-4.499,0.912-6.123,2.536s-2.537,3.827-2.537,6.124c0,2.296,0.913,4.499,2.537,6.123S596.271,608.579,598.568,608.579z"/>
		</g>
		<g>
			<path id="m43b1a66039_34_" fill="#DFDFDF" stroke="#DFDFDF" stroke-linejoin="round" d="M622.906,608.579
				c2.297,0,4.499-0.913,6.123-2.537s2.537-3.827,2.537-6.123c0-2.297-0.913-4.5-2.537-6.124s-3.826-2.536-6.123-2.536
				s-4.5,0.912-6.124,2.536s-2.536,3.827-2.536,6.124c0,2.296,0.912,4.499,2.536,6.123S620.609,608.579,622.906,608.579z"/>
		</g>
		<g>
			<g>
				<path id="m43b1a66039_35_" fill="#DFDFDF" stroke="#DFDFDF" stroke-linejoin="round" d="M647.242,608.579
					c2.297,0,4.5-0.913,6.124-2.537s2.536-3.827,2.536-6.123c0-2.297-0.912-4.5-2.536-6.124s-3.827-2.536-6.124-2.536
					s-4.5,0.912-6.124,2.536s-2.536,3.827-2.536,6.124c0,2.296,0.912,4.499,2.536,6.123S644.946,608.579,647.242,608.579z"/>
			</g>
		</g>
		<g>
			<path id="m43b1a66039_39_" fill="#DFDFDF" stroke="#DFDFDF" stroke-linejoin="round" d="M695.917,608.579
				c2.297,0,4.5-0.913,6.123-2.537c1.625-1.624,2.537-3.827,2.537-6.123c0-2.297-0.912-4.5-2.537-6.124
				c-1.623-1.624-3.826-2.536-6.123-2.536s-4.5,0.912-6.124,2.536s-2.536,3.827-2.536,6.124c0,2.296,0.912,4.499,2.536,6.123
				S693.62,608.579,695.917,608.579z"/>
		</g>
		<g>
			<path id="m43b1a66039_48_" fill="#DFDFDF" stroke="#DFDFDF" stroke-linejoin="round" d="M793.266,608.579
				c2.297,0,4.5-0.913,6.124-2.537s2.537-3.827,2.537-6.123c0-2.297-0.913-4.5-2.537-6.124s-3.827-2.536-6.124-2.536
				c-2.296,0-4.499,0.912-6.123,2.536s-2.537,3.827-2.537,6.124c0,2.296,0.913,4.499,2.537,6.123S790.97,608.579,793.266,608.579z"
				/>
		</g>
		<g>
			<path id="m43b1a66039_52_" fill="#DFDFDF" stroke="#DFDFDF" stroke-linejoin="round" d="M841.941,608.579
				c2.297,0,4.5-0.913,6.124-2.537s2.536-3.827,2.536-6.123c0-2.297-0.912-4.5-2.536-6.124s-3.827-2.536-6.124-2.536
				s-4.5,0.912-6.123,2.536c-1.625,1.624-2.537,3.827-2.537,6.124c0,2.296,0.912,4.499,2.537,6.123
				C837.441,607.666,839.644,608.579,841.941,608.579z"/>
		</g>
		<g>
			<path id="m43b1a66039_56_" fill="#DFDFDF" stroke="#DFDFDF" stroke-linejoin="round" d="M890.615,608.579
				c2.297,0,4.5-0.913,6.124-2.537s2.536-3.827,2.536-6.123c0-2.297-0.912-4.5-2.536-6.124s-3.827-2.536-6.124-2.536
				s-4.5,0.912-6.124,2.536s-2.536,3.827-2.536,6.124c0,2.296,0.912,4.499,2.536,6.123S888.319,608.579,890.615,608.579z"/>
		</g>
		<g>
			<path id="m43b1a66039_66_" fill="#DFDFDF" stroke="#DFDFDF" stroke-linejoin="round" d="M987.964,608.579
				c2.297,0,4.5-0.913,6.124-2.537s2.537-3.827,2.537-6.123c0-2.297-0.913-4.5-2.537-6.124s-3.827-2.536-6.124-2.536
				c-2.296,0-4.499,0.912-6.123,2.536s-2.537,3.827-2.537,6.124c0,2.296,0.913,4.499,2.537,6.123S985.668,608.579,987.964,608.579z"
				/>
		</g>
		<g>
			<path id="m43b1a66039_1_" fill="#DFDFDF" stroke="#DFDFDF" stroke-linejoin="round" d="M355.195,582.943
				c2.297,0,4.5-0.912,6.124-2.536s2.537-3.827,2.537-6.124s-0.913-4.5-2.537-6.124s-3.827-2.536-6.124-2.536
				c-2.296,0-4.499,0.912-6.123,2.536s-2.537,3.827-2.537,6.124s0.913,4.5,2.537,6.124S352.899,582.943,355.195,582.943z"/>
		</g>
		<path id="m43b1a66039_4_" fill="#DFDFDF" stroke="#DFDFDF" stroke-linejoin="round" d="M379.532,582.943
			c2.297,0,4.5-0.912,6.124-2.536s2.536-3.827,2.536-6.124s-0.912-4.5-2.536-6.124s-3.827-2.536-6.124-2.536s-4.5,0.912-6.124,2.536
			s-2.536,3.827-2.536,6.124s0.912,4.5,2.536,6.124S377.236,582.943,379.532,582.943z"/>
		<g>
			<path id="m43b1a66039_13_" fill="#DFDFDF" stroke="#DFDFDF" stroke-linejoin="round" d="M428.206,582.943
				c2.297,0,4.5-0.912,6.124-2.536s2.537-3.827,2.537-6.124s-0.913-4.5-2.537-6.124s-3.827-2.536-6.124-2.536
				c-2.296,0-4.499,0.912-6.123,2.536s-2.537,3.827-2.537,6.124s0.913,4.5,2.537,6.124S425.91,582.943,428.206,582.943z"/>
		</g>
		<g>
			<path id="m43b1a66039_15_" fill="#DFDFDF" stroke="#DFDFDF" stroke-linejoin="round" d="M452.544,582.943
				c2.297,0,4.5-0.912,6.124-2.536s2.536-3.827,2.536-6.124s-0.912-4.5-2.536-6.124s-3.827-2.536-6.124-2.536
				s-4.5,0.912-6.124,2.536s-2.536,3.827-2.536,6.124s0.912,4.5,2.536,6.124S450.247,582.943,452.544,582.943z"/>
		</g>
		<g>
			<g>
				<path id="m43b1a66039_19_" fill="#DFDFDF" stroke="#DFDFDF" stroke-linejoin="round" d="M476.881,582.943
					c2.297,0,4.5-0.912,6.124-2.536s2.536-3.827,2.536-6.124s-0.912-4.5-2.536-6.124s-3.827-2.536-6.124-2.536
					s-4.499,0.912-6.123,2.536s-2.537,3.827-2.537,6.124s0.913,4.5,2.537,6.124S474.584,582.943,476.881,582.943z"/>
			</g>
		</g>
		<g>
			<path id="m43b1a66039_21_" fill="#DFDFDF" stroke="#DFDFDF" stroke-linejoin="round" d="M501.219,582.943
				c2.296,0,4.499-0.912,6.123-2.536s2.537-3.827,2.537-6.124s-0.913-4.5-2.537-6.124s-3.827-2.536-6.123-2.536
				c-2.297,0-4.5,0.912-6.124,2.536s-2.537,3.827-2.537,6.124s0.913,4.5,2.537,6.124S498.922,582.943,501.219,582.943z"/>
		</g>
		<g>
			<path id="m43b1a66039_37_" fill="#DFDFDF" stroke="#DFDFDF" stroke-linejoin="round" d="M695.917,582.943
				c2.297,0,4.5-0.912,6.123-2.536c1.625-1.624,2.537-3.827,2.537-6.124s-0.912-4.5-2.537-6.124
				c-1.623-1.624-3.826-2.536-6.123-2.536s-4.5,0.912-6.124,2.536s-2.536,3.827-2.536,6.124s0.912,4.5,2.536,6.124
				S693.62,582.943,695.917,582.943z"/>
		</g>
		<g>
			<path id="m43b1a66039_42_" fill="#DFDFDF" stroke="#DFDFDF" stroke-linejoin="round" d="M720.254,582.943
				c2.297,0,4.5-0.912,6.124-2.536s2.536-3.827,2.536-6.124s-0.912-4.5-2.536-6.124s-3.827-2.536-6.124-2.536
				s-4.499,0.912-6.123,2.536s-2.537,3.827-2.537,6.124s0.913,4.5,2.537,6.124S717.957,582.943,720.254,582.943z"/>
		</g>
		<g>
			<path id="m43b1a66039_44_" fill="#DFDFDF" stroke="#DFDFDF" stroke-linejoin="round" d="M744.592,582.943
				c2.296,0,4.499-0.912,6.123-2.536s2.537-3.827,2.537-6.124s-0.913-4.5-2.537-6.124s-3.827-2.536-6.123-2.536
				c-2.297,0-4.5,0.912-6.124,2.536s-2.537,3.827-2.537,6.124s0.913,4.5,2.537,6.124S742.295,582.943,744.592,582.943z"/>
		</g>
		<g>
			<path id="m43b1a66039_47_" fill="#DFDFDF" stroke="#DFDFDF" stroke-linejoin="round" d="M793.266,582.943
				c2.297,0,4.5-0.912,6.124-2.536s2.537-3.827,2.537-6.124s-0.913-4.5-2.537-6.124s-3.827-2.536-6.124-2.536
				c-2.296,0-4.499,0.912-6.123,2.536s-2.537,3.827-2.537,6.124s0.913,4.5,2.537,6.124S790.97,582.943,793.266,582.943z"/>
		</g>
		<g>
			<path id="m43b1a66039_58_" fill="#DFDFDF" stroke="#DFDFDF" stroke-linejoin="round" d="M914.952,582.943
				c2.297,0,4.5-0.912,6.124-2.536s2.536-3.827,2.536-6.124s-0.912-4.5-2.536-6.124s-3.827-2.536-6.124-2.536
				s-4.499,0.912-6.123,2.536s-2.537,3.827-2.537,6.124s0.913,4.5,2.537,6.124S912.656,582.943,914.952,582.943z"/>
		</g>
		<g>
			<path id="m43b1a66039_61_" fill="#DFDFDF" stroke="#DFDFDF" stroke-linejoin="round" d="M939.29,582.943
				c2.297,0,4.499-0.912,6.123-2.536c1.625-1.624,2.537-3.827,2.537-6.124s-0.912-4.5-2.537-6.124
				c-1.624-1.624-3.826-2.536-6.123-2.536s-4.5,0.912-6.124,2.536s-2.536,3.827-2.536,6.124s0.912,4.5,2.536,6.124
				S936.993,582.943,939.29,582.943z"/>
		</g>
		<g>
			<path id="m43b1a66039_64_" fill="#DFDFDF" stroke="#DFDFDF" stroke-linejoin="round" d="M987.964,582.943
				c2.297,0,4.5-0.912,6.124-2.536s2.537-3.827,2.537-6.124s-0.913-4.5-2.537-6.124s-3.827-2.536-6.124-2.536
				c-2.296,0-4.499,0.912-6.123,2.536s-2.537,3.827-2.537,6.124s0.913,4.5,2.537,6.124S985.668,582.943,987.964,582.943z"/>
		</g>
		<g>
			<path id="m43b1a66039_68_" fill="#DFDFDF" stroke="#DFDFDF" stroke-linejoin="round" d="M1012.302,582.943
				c2.297,0,4.5-0.912,6.124-2.536s2.536-3.827,2.536-6.124s-0.912-4.5-2.536-6.124s-3.827-2.536-6.124-2.536
				s-4.5,0.912-6.124,2.536s-2.536,3.827-2.536,6.124s0.912,4.5,2.536,6.124S1010.005,582.943,1012.302,582.943z"/>
		</g>
		<g>
			<path id="m43b1a66039_74_" fill="#DFDFDF" stroke="#DFDFDF" stroke-linejoin="round" d="M1060.977,582.943
				c2.297,0,4.499-0.912,6.124-2.536c1.623-1.624,2.536-3.827,2.536-6.124s-0.913-4.5-2.536-6.124
				c-1.625-1.624-3.827-2.536-6.124-2.536s-4.5,0.912-6.124,2.536s-2.536,3.827-2.536,6.124s0.912,4.5,2.536,6.124
				S1058.68,582.943,1060.977,582.943z"/>
		</g>
		<g>
			<path id="m43b1a66039" fill="#DFDFDF" stroke="#DFDFDF" stroke-linejoin="round" d="M355.195,634.215
				c2.297,0,4.5-0.912,6.124-2.536s2.537-3.827,2.537-6.124s-0.913-4.5-2.537-6.124s-3.827-2.536-6.124-2.536
				c-2.296,0-4.499,0.912-6.123,2.536s-2.537,3.827-2.537,6.124s0.913,4.5,2.537,6.124S352.899,634.215,355.195,634.215z"/>
		</g>
		<g>
			<path id="m43b1a66039_7_" fill="#DFDFDF" stroke="#DFDFDF" stroke-linejoin="round" d="M403.869,634.215
				c2.297,0,4.5-0.912,6.124-2.536s2.536-3.827,2.536-6.124s-0.912-4.5-2.536-6.124s-3.827-2.536-6.124-2.536
				s-4.499,0.912-6.123,2.536s-2.537,3.827-2.537,6.124s0.913,4.5,2.537,6.124S401.573,634.215,403.869,634.215z"/>
		</g>
		<g>
			<path id="m43b1a66039_11_" fill="#DFDFDF" stroke="#DFDFDF" stroke-linejoin="round" d="M428.206,634.215
				c2.297,0,4.5-0.912,6.124-2.536s2.537-3.827,2.537-6.124s-0.913-4.5-2.537-6.124s-3.827-2.536-6.124-2.536
				c-2.296,0-4.499,0.912-6.123,2.536s-2.537,3.827-2.537,6.124s0.913,4.5,2.537,6.124S425.91,634.215,428.206,634.215z"/>
		</g>
		<g>
			<path id="m43b1a66039_20_" fill="#DFDFDF" stroke="#DFDFDF" stroke-linejoin="round" d="M501.219,634.215
				c2.296,0,4.499-0.912,6.123-2.536s2.537-3.827,2.537-6.124s-0.913-4.5-2.537-6.124s-3.827-2.536-6.123-2.536
				c-2.297,0-4.5,0.912-6.124,2.536s-2.537,3.827-2.537,6.124s0.913,4.5,2.537,6.124S498.922,634.215,501.219,634.215z"/>
		</g>
		<g>
			<path id="m43b1a66039_23_" fill="#DFDFDF" stroke="#DFDFDF" stroke-linejoin="round" d="M525.556,634.215
				c2.297,0,4.5-0.912,6.124-2.536s2.536-3.827,2.536-6.124s-0.912-4.5-2.536-6.124s-3.827-2.536-6.124-2.536
				s-4.5,0.912-6.124,2.536s-2.536,3.827-2.536,6.124s0.912,4.5,2.536,6.124S523.259,634.215,525.556,634.215z"/>
		</g>
		<g>
			<path id="m43b1a66039_33_" fill="#DFDFDF" stroke="#DFDFDF" stroke-linejoin="round" d="M622.906,634.215
				c2.297,0,4.499-0.912,6.123-2.536s2.537-3.827,2.537-6.124s-0.913-4.5-2.537-6.124s-3.826-2.536-6.123-2.536
				s-4.5,0.912-6.124,2.536s-2.536,3.827-2.536,6.124s0.912,4.5,2.536,6.124S620.609,634.215,622.906,634.215z"/>
		</g>
		<g>
			<path id="m43b1a66039_40_" fill="#DFDFDF" stroke="#DFDFDF" stroke-linejoin="round" d="M720.254,634.215
				c2.297,0,4.5-0.912,6.124-2.536s2.536-3.827,2.536-6.124s-0.912-4.5-2.536-6.124s-3.827-2.536-6.124-2.536
				s-4.499,0.912-6.123,2.536s-2.537,3.827-2.537,6.124s0.913,4.5,2.537,6.124S717.957,634.215,720.254,634.215z"/>
		</g>
		<g>
			<g>
				<path id="m43b1a66039_46_" fill="#DFDFDF" stroke="#DFDFDF" stroke-linejoin="round" d="M768.929,634.215
					c2.297,0,4.5-0.912,6.124-2.536s2.536-3.827,2.536-6.124s-0.912-4.5-2.536-6.124s-3.827-2.536-6.124-2.536
					s-4.5,0.912-6.124,2.536s-2.536,3.827-2.536,6.124s0.912,4.5,2.536,6.124S766.632,634.215,768.929,634.215z"/>
			</g>
		</g>
		<g>
			<path id="m43b1a66039_50_" fill="#DFDFDF" stroke="#DFDFDF" stroke-linejoin="round" d="M841.941,634.215
				c2.297,0,4.5-0.912,6.124-2.536s2.536-3.827,2.536-6.124s-0.912-4.5-2.536-6.124s-3.827-2.536-6.124-2.536
				s-4.5,0.912-6.123,2.536c-1.625,1.624-2.537,3.827-2.537,6.124s0.912,4.5,2.537,6.124
				C837.441,633.303,839.644,634.215,841.941,634.215z"/>
		</g>
		<g>
			<path id="m43b1a66039_53_" fill="#DFDFDF" stroke="#DFDFDF" stroke-linejoin="round" d="M866.279,634.215
				c2.297,0,4.499-0.912,6.123-2.536s2.537-3.827,2.537-6.124s-0.913-4.5-2.537-6.124s-3.826-2.536-6.123-2.536
				s-4.5,0.912-6.124,2.536s-2.536,3.827-2.536,6.124s0.912,4.5,2.536,6.124S863.982,634.215,866.279,634.215z"/>
		</g>
		<g>
			<path id="m43b1a66039_60_" fill="#DFDFDF" stroke="#DFDFDF" stroke-linejoin="round" d="M939.29,634.215
				c2.297,0,4.499-0.912,6.123-2.536c1.625-1.624,2.537-3.827,2.537-6.124s-0.912-4.5-2.537-6.124
				c-1.624-1.624-3.826-2.536-6.123-2.536s-4.5,0.912-6.124,2.536s-2.536,3.827-2.536,6.124s0.912,4.5,2.536,6.124
				S936.993,634.215,939.29,634.215z"/>
		</g>
		<g>
			<path id="m43b1a66039_62_" fill="#DFDFDF" stroke="#DFDFDF" stroke-linejoin="round" d="M963.627,634.215
				c2.297,0,4.5-0.912,6.124-2.536s2.536-3.827,2.536-6.124s-0.912-4.5-2.536-6.124s-3.827-2.536-6.124-2.536
				s-4.499,0.912-6.124,2.536c-1.623,1.624-2.536,3.827-2.536,6.124s0.913,4.5,2.536,6.124
				C959.128,633.303,961.33,634.215,963.627,634.215z"/>
		</g>
		<g>
			<path id="m43b1a66039_67_" fill="#DFDFDF" stroke="#DFDFDF" stroke-linejoin="round" d="M1012.302,634.215
				c2.297,0,4.5-0.912,6.124-2.536s2.536-3.827,2.536-6.124s-0.912-4.5-2.536-6.124s-3.827-2.536-6.124-2.536
				s-4.5,0.912-6.124,2.536s-2.536,3.827-2.536,6.124s0.912,4.5,2.536,6.124S1010.005,634.215,1012.302,634.215z"/>
		</g>
		<g>
			<path id="m43b1a66039_70_" fill="#DFDFDF" stroke="#DFDFDF" stroke-linejoin="round" d="M1036.639,634.215
				c2.297,0,4.5-0.912,6.124-2.536s2.537-3.827,2.537-6.124s-0.913-4.5-2.537-6.124s-3.827-2.536-6.124-2.536
				c-2.296,0-4.499,0.912-6.123,2.536s-2.537,3.827-2.537,6.124s0.913,4.5,2.537,6.124S1034.343,634.215,1036.639,634.215z"/>
		</g>
		<g>
			<path id="m43b1a66039_72_" fill="#DFDFDF" stroke="#DFDFDF" stroke-linejoin="round" d="M1060.977,634.215
				c2.297,0,4.499-0.912,6.124-2.536c1.623-1.624,2.536-3.827,2.536-6.124s-0.913-4.5-2.536-6.124
				c-1.625-1.624-3.827-2.536-6.124-2.536s-4.5,0.912-6.124,2.536s-2.536,3.827-2.536,6.124s0.912,4.5,2.536,6.124
				S1058.68,634.215,1060.977,634.215z"/>
		</g>
		<path id="m43b1a66039_5_" fill="#DFDFDF" stroke="#DFDFDF" stroke-linejoin="round" d="M379.532,531.672
			c2.297,0,4.5-0.912,6.124-2.536s2.536-3.827,2.536-6.124s-0.912-4.5-2.536-6.124s-3.827-2.536-6.124-2.536s-4.5,0.912-6.124,2.536
			s-2.536,3.827-2.536,6.124s0.912,4.5,2.536,6.124S377.236,531.672,379.532,531.672z"/>
		<g>
			<path id="m43b1a66039_8_" fill="#DFDFDF" stroke="#DFDFDF" stroke-linejoin="round" d="M403.869,531.672
				c2.297,0,4.5-0.912,6.124-2.536s2.536-3.827,2.536-6.124s-0.912-4.5-2.536-6.124s-3.827-2.536-6.124-2.536
				s-4.499,0.912-6.123,2.536s-2.537,3.827-2.537,6.124s0.913,4.5,2.537,6.124S401.573,531.672,403.869,531.672z"/>
		</g>
		<g>
			<path id="m43b1a66039_12_" fill="#DFDFDF" stroke="#DFDFDF" stroke-linejoin="round" d="M428.206,531.672
				c2.297,0,4.5-0.912,6.124-2.536s2.537-3.827,2.537-6.124s-0.913-4.5-2.537-6.124s-3.827-2.536-6.124-2.536
				c-2.296,0-4.499,0.912-6.123,2.536s-2.537,3.827-2.537,6.124s0.913,4.5,2.537,6.124S425.91,531.672,428.206,531.672z"/>
		</g>
		<g>
			<path id="m43b1a66039_16_" fill="#DFDFDF" stroke="#DFDFDF" stroke-linejoin="round" d="M452.544,531.672
				c2.297,0,4.5-0.912,6.124-2.536s2.536-3.827,2.536-6.124s-0.912-4.5-2.536-6.124s-3.827-2.536-6.124-2.536
				s-4.5,0.912-6.124,2.536s-2.536,3.827-2.536,6.124s0.912,4.5,2.536,6.124S450.247,531.672,452.544,531.672z"/>
		</g>
		<g>
			<path id="m43b1a66039_26_" fill="#DFDFDF" stroke="#DFDFDF" stroke-linejoin="round" d="M549.893,531.672
				c2.297,0,4.5-0.912,6.124-2.536s2.537-3.827,2.537-6.124s-0.913-4.5-2.537-6.124s-3.827-2.536-6.124-2.536
				c-2.296,0-4.499,0.912-6.123,2.536s-2.537,3.827-2.537,6.124s0.913,4.5,2.537,6.124S547.597,531.672,549.893,531.672z"/>
		</g>
		<g>
			<path id="m43b1a66039_31_" fill="#DFDFDF" stroke="#DFDFDF" stroke-linejoin="round" d="M598.568,531.672
				c2.297,0,4.5-0.912,6.124-2.536s2.536-3.827,2.536-6.124s-0.912-4.5-2.536-6.124s-3.827-2.536-6.124-2.536
				s-4.499,0.912-6.123,2.536s-2.537,3.827-2.537,6.124s0.913,4.5,2.537,6.124S596.271,531.672,598.568,531.672z"/>
		</g>
		<g>
			<path id="m43b1a66039_41_" fill="#DFDFDF" stroke="#DFDFDF" stroke-linejoin="round" d="M720.254,531.672
				c2.297,0,4.5-0.912,6.124-2.536s2.536-3.827,2.536-6.124s-0.912-4.5-2.536-6.124s-3.827-2.536-6.124-2.536
				s-4.499,0.912-6.123,2.536s-2.537,3.827-2.537,6.124s0.913,4.5,2.537,6.124S717.957,531.672,720.254,531.672z"/>
		</g>
		<g>
			<g>
				<path id="m43b1a66039_49_" fill="#DFDFDF" stroke="#DFDFDF" stroke-linejoin="round" d="M817.604,531.672
					c2.297,0,4.499-0.912,6.124-2.536c1.623-1.624,2.536-3.827,2.536-6.124s-0.913-4.5-2.536-6.124
					c-1.625-1.624-3.827-2.536-6.124-2.536s-4.5,0.912-6.124,2.536s-2.536,3.827-2.536,6.124s0.912,4.5,2.536,6.124
					S815.307,531.672,817.604,531.672z"/>
			</g>
		</g>
		<g>
			<path id="m43b1a66039_51_" fill="#DFDFDF" stroke="#DFDFDF" stroke-linejoin="round" d="M841.941,531.672
				c2.297,0,4.5-0.912,6.124-2.536s2.536-3.827,2.536-6.124s-0.912-4.5-2.536-6.124s-3.827-2.536-6.124-2.536
				s-4.5,0.912-6.123,2.536c-1.625,1.624-2.537,3.827-2.537,6.124s0.912,4.5,2.537,6.124
				C837.441,530.76,839.644,531.672,841.941,531.672z"/>
		</g>
		<g>
			<path id="m43b1a66039_54_" fill="#DFDFDF" stroke="#DFDFDF" stroke-linejoin="round" d="M866.279,531.672
				c2.297,0,4.499-0.912,6.123-2.536s2.537-3.827,2.537-6.124s-0.913-4.5-2.537-6.124s-3.826-2.536-6.123-2.536
				s-4.5,0.912-6.124,2.536s-2.536,3.827-2.536,6.124s0.912,4.5,2.536,6.124S863.982,531.672,866.279,531.672z"/>
		</g>
		<g>
			<path id="m43b1a66039_57_" fill="#DFDFDF" stroke="#DFDFDF" stroke-linejoin="round" d="M890.615,531.672
				c2.297,0,4.5-0.912,6.124-2.536s2.536-3.827,2.536-6.124s-0.912-4.5-2.536-6.124s-3.827-2.536-6.124-2.536
				s-4.5,0.912-6.124,2.536s-2.536,3.827-2.536,6.124s0.912,4.5,2.536,6.124S888.319,531.672,890.615,531.672z"/>
		</g>
		<g>
			<path id="m43b1a66039_59_" fill="#DFDFDF" stroke="#DFDFDF" stroke-linejoin="round" d="M914.952,531.672
				c2.297,0,4.5-0.912,6.124-2.536s2.536-3.827,2.536-6.124s-0.912-4.5-2.536-6.124s-3.827-2.536-6.124-2.536
				s-4.499,0.912-6.123,2.536s-2.537,3.827-2.537,6.124s0.913,4.5,2.537,6.124S912.656,531.672,914.952,531.672z"/>
		</g>
		<g>
			<path id="m43b1a66039_65_" fill="#DFDFDF" stroke="#DFDFDF" stroke-linejoin="round" d="M987.964,531.672
				c2.297,0,4.5-0.912,6.124-2.536s2.537-3.827,2.537-6.124s-0.913-4.5-2.537-6.124s-3.827-2.536-6.124-2.536
				c-2.296,0-4.499,0.912-6.123,2.536s-2.537,3.827-2.537,6.124s0.913,4.5,2.537,6.124S985.668,531.672,987.964,531.672z"/>
		</g>
		<g>
			<path id="m43b1a66039_71_" fill="#DFDFDF" stroke="#DFDFDF" stroke-linejoin="round" d="M1036.639,531.672
				c2.297,0,4.5-0.912,6.124-2.536s2.537-3.827,2.537-6.124s-0.913-4.5-2.537-6.124s-3.827-2.536-6.124-2.536
				c-2.296,0-4.499,0.912-6.123,2.536s-2.537,3.827-2.537,6.124s0.913,4.5,2.537,6.124S1034.343,531.672,1036.639,531.672z"/>
		</g>
		<path id="m43b1a66039_73_" fill="#DFDFDF" stroke="#DFDFDF" stroke-linejoin="round" d="M1060.977,531.672
			c2.297,0,4.499-0.912,6.124-2.536c1.623-1.624,2.536-3.827,2.536-6.124s-0.913-4.5-2.536-6.124
			c-1.625-1.624-3.827-2.536-6.124-2.536s-4.5,0.912-6.124,2.536s-2.536,3.827-2.536,6.124s0.912,4.5,2.536,6.124
			S1058.68,531.672,1060.977,531.672z"/>
		<g>
			<path fill="none" stroke="#404040" stroke-width="3.5" stroke-linejoin="round" d="M355.195,625.555L355.195,625.555"/>
		</g>
		<g id="LineCollection_1">
			<g>
				<path fill="#FFFFFF" stroke="#C19A2F" stroke-width="3.5" stroke-linejoin="round" d="M330.858,625.555V523.011"/>
			</g>
		</g>
		<path fill="none" stroke="#404040" stroke-width="3.5" stroke-linejoin="round" d="M379.532,629.919v-30.001"/>
		<path fill="none" stroke="#8EC172" stroke-width="3.5" stroke-linejoin="round" d="M476.881,625.555V523.011"/>
		<path fill="none" stroke="#6073C6" stroke-width="3.5" stroke-linejoin="round" d="M501.219,548.647v-25.637"/>
		<path fill="none" stroke="#A53535" stroke-width="3.5" stroke-linejoin="round" d="M525.556,574.283v-51.271"/>
		<path fill="none" stroke="#404040" stroke-width="3.5" stroke-linejoin="round" d="M549.893,625.555v-51.271"/>
		<path fill="none" stroke="#404040" stroke-width="3.5" stroke-linejoin="round" d="M574.231,625.555V523.012"/>
		<path fill="none" stroke="#404040" stroke-width="3.5" stroke-linejoin="round" d="M598.568,629.919v-55.636"/>
		<path fill="none" stroke="#8EC172" stroke-width="3.5" stroke-linejoin="round" d="M622.906,574.283v-51.272"/>
		<path fill="none" stroke="#8EC172" stroke-width="3.5" stroke-linejoin="round" d="M647.242,625.555V523.011"/>
		<path fill="none" stroke="#A53535" stroke-width="3.5" stroke-linejoin="round" d="M671.579,625.555V523.011"/>
		<path fill="none" stroke="#A53535" stroke-width="3.5" stroke-linejoin="round" d="M744.592,625.555V523.012"/>
		<path fill="none" stroke="#8EC172" stroke-width="3.5" stroke-linejoin="round" d="M768.929,599.918v-76.907"/>
		<path fill="none" stroke="#8EC172" stroke-width="3.5" stroke-linejoin="round" d="M793.266,625.555V523.011"/>
		<path fill="none" stroke="#760093" stroke-width="3.5" stroke-linejoin="round" d="M817.604,625.555v-76.908"/>
		<path fill="none" stroke="#760093" stroke-width="3.5" stroke-linejoin="round" d="M841.941,574.283v-25.637"/>
		<path fill="none" stroke="#404040" stroke-width="3.5" stroke-linejoin="round" d="M866.279,599.919v-25.636"/>
		<path fill="none" stroke="#760093" stroke-width="3.5" stroke-linejoin="round" d="M890.615,625.555v-76.908"/>
		<path fill="none" stroke="#760093" stroke-width="3.5" stroke-linejoin="round" d="M914.952,623.795v-75.148"/>
		<path fill="none" stroke="#8EC172" stroke-width="3.5" stroke-linejoin="round" d="M939.29,599.918v-76.907"/>
		<path fill="none" stroke="#A53535" stroke-width="3.5" stroke-linejoin="round" d="M963.627,599.918v-76.906"/>
		<path fill="none" stroke="#760093" stroke-width="3.5" stroke-linejoin="round" d="M987.964,625.555v-76.908"/>
		<path fill="none" stroke="#A53535" stroke-width="3.5" stroke-linejoin="round" d="M1012.302,602.102v-79.09"/>
		<path fill="none" stroke="#760093" stroke-width="3.5" stroke-linejoin="round" d="M1036.639,599.918v-51.271"/>
		<path fill="none" stroke="#760093" stroke-width="3.5" stroke-linejoin="round" d="M1060.977,599.918v-51.271"/>
		<path fill="none" stroke="#A53535" stroke-width="3.5" stroke-linejoin="round" d="M695.917,625.555V523.011"/>
		<g>
			<g>
				<g>
					<path id="C0_0_9bc2759838_4_" fill="#C19A2F" stroke="#FFFFFF" stroke-miterlimit="10" d="M330.858,557.308
						c2.297,0,4.5-0.913,6.124-2.537s2.536-3.827,2.536-6.124c0-2.296-0.912-4.499-2.536-6.123s-3.827-2.537-6.124-2.537
						s-4.5,0.913-6.124,2.537s-2.536,3.827-2.536,6.123c0,2.297,0.912,4.5,2.536,6.124S328.561,557.308,330.858,557.308z"/>
				</g>
			</g>
		</g>
		<g>
			<g>
				<path id="m46fbcefbea_2_" fill="#404040" stroke="#404040" stroke-linejoin="round" d="M428.206,557.308
					c2.297,0,4.5-0.913,6.124-2.537s2.537-3.827,2.537-6.124c0-2.296-0.913-4.499-2.537-6.123s-3.827-2.537-6.124-2.537
					c-2.296,0-4.499,0.913-6.123,2.537s-2.537,3.827-2.537,6.123c0,2.297,0.913,4.5,2.537,6.124S425.91,557.308,428.206,557.308z"/>
			</g>
		</g>
		<path fill="none" stroke="#404040" stroke-width="3.5" stroke-linejoin="round" d="M428.206,548.646L428.206,548.646"/>
		<g>
			<path id="C2_0_273e8238e6_2_" fill="#8EC172" stroke="#FFFFFF" stroke-linejoin="round" d="M476.881,557.308
				c2.297,0,4.5-0.913,6.124-2.537s2.536-3.827,2.536-6.124c0-2.296-0.912-4.499-2.536-6.123s-3.827-2.537-6.124-2.537
				s-4.499,0.913-6.123,2.537s-2.537,3.827-2.537,6.123c0,2.297,0.913,4.5,2.537,6.124S474.584,557.308,476.881,557.308z"/>
		</g>
		<g>
			<path id="C3_0_c04471194f_1_" fill="#6073C6" stroke="#FFFFFF" stroke-miterlimit="10" d="M501.219,557.308
				c2.296,0,4.499-0.913,6.123-2.537s2.537-3.827,2.537-6.124c0-2.296-0.913-4.499-2.537-6.123s-3.827-2.537-6.123-2.537
				c-2.297,0-4.5,0.913-6.124,2.537s-2.537,3.827-2.537,6.123c0,2.297,0.913,4.5,2.537,6.124S498.922,557.308,501.219,557.308z"/>
		</g>
		<g>
			<path id="C8_0_5ac848d696_2_" fill="#8EC172" stroke="#FFFFFF" stroke-linejoin="round" d="M622.906,557.308
				c2.297,0,4.499-0.913,6.123-2.537s2.537-3.827,2.537-6.124c0-2.296-0.913-4.499-2.537-6.123s-3.826-2.537-6.123-2.537
				s-4.5,0.913-6.124,2.537s-2.536,3.827-2.536,6.123c0,2.297,0.912,4.5,2.536,6.124S620.609,557.308,622.906,557.308z"/>
		</g>
		<g>
			<g>
				<path id="C9_0_204b94e269_3_" fill="#8EC172" stroke="#FFFFFF" stroke-linejoin="round" d="M647.242,557.308
					c2.297,0,4.5-0.913,6.124-2.537s2.536-3.827,2.536-6.124c0-2.296-0.912-4.499-2.536-6.123s-3.827-2.537-6.124-2.537
					s-4.5,0.913-6.124,2.537s-2.536,3.827-2.536,6.123c0,2.297,0.912,4.5,2.536,6.124S644.946,557.308,647.242,557.308z"/>
			</g>
		</g>
		<g>
			<path id="Cd_0_24e8bb5f2a_2_" fill="#8EC172" stroke="#FFFFFF" stroke-linejoin="round" d="M768.929,557.308
				c2.297,0,4.5-0.913,6.124-2.537s2.536-3.827,2.536-6.124c0-2.296-0.912-4.499-2.536-6.123s-3.827-2.537-6.124-2.537
				s-4.5,0.913-6.124,2.537s-2.536,3.827-2.536,6.123c0,2.297,0.912,4.5,2.536,6.124S766.632,557.308,768.929,557.308z"/>
		</g>
		<g>
			<path id="Ce_0_e3b79aa8d2_2_" fill="#8EC172" stroke="#FFFFFF" stroke-linejoin="round" d="M793.266,557.308
				c2.297,0,4.5-0.913,6.124-2.537s2.537-3.827,2.537-6.124c0-2.296-0.913-4.499-2.537-6.123s-3.827-2.537-6.124-2.537
				c-2.296,0-4.499,0.913-6.123,2.537s-2.537,3.827-2.537,6.123c0,2.297,0.913,4.5,2.537,6.124S790.97,557.308,793.266,557.308z"/>
		</g>
		<g>
			<path id="Cf_0_e5fb1a7217_2_" fill="#760093" stroke="#FFFFFF" stroke-linejoin="round" d="M817.604,557.308
				c2.297,0,4.499-0.913,6.124-2.537c1.623-1.624,2.536-3.827,2.536-6.124c0-2.296-0.913-4.499-2.536-6.123
				c-1.625-1.624-3.827-2.537-6.124-2.537s-4.5,0.913-6.124,2.537s-2.536,3.827-2.536,6.123c0,2.297,0.912,4.5,2.536,6.124
				S815.307,557.308,817.604,557.308z"/>
		</g>
		<g>
			<path id="C10_0_a00f39a46f_1_" fill="#760093" stroke="#FFFFFF" stroke-linejoin="round" d="M841.941,557.308
				c2.297,0,4.5-0.913,6.124-2.537s2.536-3.827,2.536-6.124c0-2.296-0.912-4.499-2.536-6.123s-3.827-2.537-6.124-2.537
				s-4.5,0.913-6.123,2.537c-1.625,1.624-2.537,3.827-2.537,6.123c0,2.297,0.912,4.5,2.537,6.124
				C837.441,556.395,839.644,557.308,841.941,557.308z"/>
		</g>
		<g>
			<path id="C12_0_268c9261b3_2_" fill="#760093" stroke="#FFFFFF" stroke-linejoin="round" d="M890.615,557.308
				c2.297,0,4.5-0.913,6.124-2.537s2.536-3.827,2.536-6.124c0-2.296-0.912-4.499-2.536-6.123s-3.827-2.537-6.124-2.537
				s-4.5,0.913-6.124,2.537s-2.536,3.827-2.536,6.123c0,2.297,0.912,4.5,2.536,6.124S888.319,557.308,890.615,557.308z"/>
		</g>
		<g>
			<path id="C13_0_92d1334280_1_" fill="#760093" stroke="#FFFFFF" stroke-linejoin="round" d="M914.952,557.308
				c2.297,0,4.5-0.913,6.124-2.537s2.536-3.827,2.536-6.124c0-2.296-0.912-4.499-2.536-6.123s-3.827-2.537-6.124-2.537
				s-4.499,0.913-6.123,2.537s-2.537,3.827-2.537,6.123c0,2.297,0.913,4.5,2.537,6.124S912.656,557.308,914.952,557.308z"/>
		</g>
		<g>
			<path id="C14_0_a68d43c859_2_" fill="#8EC172" stroke="#FFFFFF" stroke-linejoin="round" d="M939.29,557.308
				c2.297,0,4.499-0.913,6.123-2.537c1.625-1.624,2.537-3.827,2.537-6.124c0-2.296-0.912-4.499-2.537-6.123
				c-1.624-1.624-3.826-2.537-6.123-2.537s-4.5,0.913-6.124,2.537s-2.536,3.827-2.536,6.123c0,2.297,0.912,4.5,2.536,6.124
				S936.993,557.308,939.29,557.308z"/>
		</g>
		<g>
			<path id="C16_0_507f8d56d4_1_" fill="#760093" stroke="#FFFFFF" stroke-linejoin="round" d="M987.964,557.308
				c2.297,0,4.5-0.913,6.124-2.537s2.537-3.827,2.537-6.124c0-2.296-0.913-4.499-2.537-6.123s-3.827-2.537-6.124-2.537
				c-2.296,0-4.499,0.913-6.123,2.537s-2.537,3.827-2.537,6.123c0,2.297,0.913,4.5,2.537,6.124S985.668,557.308,987.964,557.308z"/>
		</g>
		<g>
			<path id="C18_0_d1afa29ef3_1_" fill="#760093" stroke="#FFFFFF" stroke-linejoin="round" d="M1036.639,557.308
				c2.297,0,4.5-0.913,6.124-2.537s2.537-3.827,2.537-6.124c0-2.296-0.913-4.499-2.537-6.123s-3.827-2.537-6.124-2.537
				c-2.296,0-4.499,0.913-6.123,2.537s-2.537,3.827-2.537,6.123c0,2.297,0.913,4.5,2.537,6.124S1034.343,557.308,1036.639,557.308z"
				/>
		</g>
		<g>
			<path id="C19_0_d5f5ef393e_1_" fill="#760093" stroke="#FFFFFF" stroke-linejoin="round" d="M1060.977,557.308
				c2.297,0,4.499-0.913,6.124-2.537c1.623-1.624,2.536-3.827,2.536-6.124c0-2.296-0.913-4.499-2.536-6.123
				c-1.625-1.624-3.827-2.537-6.124-2.537s-4.5,0.913-6.124,2.537s-2.536,3.827-2.536,6.123c0,2.297,0.912,4.5,2.536,6.124
				S1058.68,557.308,1060.977,557.308z"/>
		</g>
		<g>
			<g>
				<g>
					<path id="C0_0_9bc2759838_3_" fill="#C19A2F" stroke="#FFFFFF" stroke-miterlimit="10" d="M330.858,608.579
						c2.297,0,4.5-0.913,6.124-2.537s2.536-3.827,2.536-6.123c0-2.297-0.912-4.5-2.536-6.124s-3.827-2.536-6.124-2.536
						s-4.5,0.912-6.124,2.536s-2.536,3.827-2.536,6.124c0,2.296,0.912,4.499,2.536,6.123S328.561,608.579,330.858,608.579z"/>
				</g>
			</g>
		</g>
		<path id="C1_0_db9499a1c3_1_" fill="#404040" stroke="#404040" stroke-linejoin="round" d="M379.532,608.579
			c2.297,0,4.5-0.913,6.124-2.537s2.536-3.827,2.536-6.123c0-2.297-0.912-4.5-2.536-6.124s-3.827-2.536-6.124-2.536
			s-4.5,0.912-6.124,2.536s-2.536,3.827-2.536,6.124c0,2.296,0.912,4.499,2.536,6.123S377.236,608.579,379.532,608.579z"/>
		<g>
			<path id="C2_0_273e8238e6_3_" fill="#8EC172" stroke="#FFFFFF" stroke-linejoin="round" d="M476.881,608.579
				c2.297,0,4.5-0.913,6.124-2.537s2.536-3.827,2.536-6.123c0-2.297-0.912-4.5-2.536-6.124s-3.827-2.536-6.124-2.536
				s-4.499,0.912-6.123,2.536s-2.537,3.827-2.537,6.124c0,2.296,0.913,4.499,2.537,6.123S474.584,608.579,476.881,608.579z"/>
		</g>
		<g>
			<path id="C5_0_21cabdcc10_2_" fill="#404040" stroke="#404040" stroke-linejoin="round" d="M549.893,608.579
				c2.297,0,4.5-0.913,6.124-2.537s2.537-3.827,2.537-6.123c0-2.297-0.913-4.5-2.537-6.124s-3.827-2.536-6.124-2.536
				c-2.296,0-4.499,0.912-6.123,2.536s-2.537,3.827-2.537,6.124c0,2.296,0.913,4.499,2.537,6.123S547.597,608.579,549.893,608.579z"
				/>
		</g>
		<g>
			<path id="Ca_0_9d88e07b09_3_" fill="#A53535" stroke="#FFFFFF" stroke-linejoin="round" d="M671.579,608.579
				c2.297,0,4.5-0.913,6.124-2.537s2.537-3.827,2.537-6.123c0-2.297-0.913-4.5-2.537-6.124s-3.827-2.536-6.124-2.536
				c-2.296,0-4.499,0.912-6.123,2.536s-2.537,3.827-2.537,6.124c0,2.296,0.913,4.499,2.537,6.123S669.283,608.579,671.579,608.579z"
				/>
		</g>
		<g>
			<g>
				<path id="m46fbcefbea_4_" fill="#404040" stroke="#404040" stroke-linejoin="round" d="M720.254,608.579
					c2.297,0,4.5-0.913,6.124-2.537s2.536-3.827,2.536-6.123c0-2.297-0.912-4.5-2.536-6.124s-3.827-2.536-6.124-2.536
					s-4.499,0.912-6.123,2.536s-2.537,3.827-2.537,6.124c0,2.296,0.913,4.499,2.537,6.123S717.957,608.579,720.254,608.579z"/>
			</g>
		</g>
		<path fill="none" stroke="#404040" stroke-width="3.5" stroke-linejoin="round" d="M720.254,599.919L720.254,599.919"/>
		<g>
			<path id="Cc_0_64bc100244_2_" fill="#A53535" stroke="#FFFFFF" stroke-linejoin="round" d="M744.592,608.579
				c2.296,0,4.499-0.913,6.123-2.537s2.537-3.827,2.537-6.123c0-2.297-0.913-4.5-2.537-6.124s-3.827-2.536-6.123-2.536
				c-2.297,0-4.5,0.912-6.124,2.536s-2.537,3.827-2.537,6.124c0,2.296,0.913,4.499,2.537,6.123S742.295,608.579,744.592,608.579z"/>
		</g>
		<g>
			<path id="Cd_0_24e8bb5f2a_3_" fill="#8EC172" stroke="#FFFFFF" stroke-linejoin="round" d="M768.929,608.579
				c2.297,0,4.5-0.913,6.124-2.537s2.536-3.827,2.536-6.123c0-2.297-0.912-4.5-2.536-6.124s-3.827-2.536-6.124-2.536
				s-4.5,0.912-6.124,2.536s-2.536,3.827-2.536,6.124c0,2.296,0.912,4.499,2.536,6.123S766.632,608.579,768.929,608.579z"/>
		</g>
		<g>
			<path id="Cf_0_e5fb1a7217_3_" fill="#760093" stroke="#FFFFFF" stroke-linejoin="round" d="M817.604,608.579
				c2.297,0,4.499-0.913,6.124-2.537c1.623-1.624,2.536-3.827,2.536-6.123c0-2.297-0.913-4.5-2.536-6.124
				c-1.625-1.624-3.827-2.536-6.124-2.536s-4.5,0.912-6.124,2.536s-2.536,3.827-2.536,6.124c0,2.296,0.912,4.499,2.536,6.123
				S815.307,608.579,817.604,608.579z"/>
		</g>
		<g>
			<path id="C11_0_e9d1de3901_1_" fill="#404040" stroke="#404040" stroke-linejoin="round" d="M866.279,608.579
				c2.297,0,4.499-0.913,6.123-2.537s2.537-3.827,2.537-6.123c0-2.297-0.913-4.5-2.537-6.124s-3.826-2.536-6.123-2.536
				s-4.5,0.912-6.124,2.536s-2.536,3.827-2.536,6.124c0,2.296,0.912,4.499,2.536,6.123S863.982,608.579,866.279,608.579z"/>
		</g>
		<g>
			<path id="C13_0_92d1334280_2_" fill="#760093" stroke="#FFFFFF" stroke-linejoin="round" d="M914.952,608.579
				c2.297,0,4.5-0.913,6.124-2.537s2.536-3.827,2.536-6.123c0-2.297-0.912-4.5-2.536-6.124s-3.827-2.536-6.124-2.536
				s-4.499,0.912-6.123,2.536s-2.537,3.827-2.537,6.124c0,2.296,0.913,4.499,2.537,6.123S912.656,608.579,914.952,608.579z"/>
		</g>
		<g>
			<path id="C14_0_a68d43c859" fill="#8EC172" stroke="#FFFFFF" stroke-linejoin="round" d="M939.29,608.579
				c2.297,0,4.499-0.913,6.123-2.537c1.625-1.624,2.537-3.827,2.537-6.123c0-2.297-0.912-4.5-2.537-6.124
				c-1.624-1.624-3.826-2.536-6.123-2.536s-4.5,0.912-6.124,2.536s-2.536,3.827-2.536,6.124c0,2.296,0.912,4.499,2.536,6.123
				S936.993,608.579,939.29,608.579z"/>
		</g>
		<g>
			<path id="C15_0_e84832a8d2_2_" fill="#A53535" stroke="#FFFFFF" stroke-linejoin="round" d="M963.627,608.579
				c2.297,0,4.5-0.913,6.124-2.537s2.536-3.827,2.536-6.123c0-2.297-0.912-4.5-2.536-6.124s-3.827-2.536-6.124-2.536
				s-4.499,0.912-6.124,2.536c-1.623,1.624-2.536,3.827-2.536,6.124c0,2.296,0.913,4.499,2.536,6.123
				C959.128,607.666,961.33,608.579,963.627,608.579z"/>
		</g>
		<g>
			<path id="C17_0_b3b4415364" fill="#A53535" stroke="#FFFFFF" stroke-linejoin="round" d="M1012.302,608.579
				c2.297,0,4.5-0.913,6.124-2.537s2.536-3.827,2.536-6.123c0-2.297-0.912-4.5-2.536-6.124s-3.827-2.536-6.124-2.536
				s-4.5,0.912-6.124,2.536s-2.536,3.827-2.536,6.124c0,2.296,0.912,4.499,2.536,6.123S1010.005,608.579,1012.302,608.579z"/>
		</g>
		<g>
			<path id="C18_0_d1afa29ef3_2_" fill="#760093" stroke="#FFFFFF" stroke-linejoin="round" d="M1036.639,608.579
				c2.297,0,4.5-0.913,6.124-2.537s2.537-3.827,2.537-6.123c0-2.297-0.913-4.5-2.537-6.124s-3.827-2.536-6.124-2.536
				c-2.296,0-4.499,0.912-6.123,2.536s-2.537,3.827-2.537,6.124c0,2.296,0.913,4.499,2.537,6.123S1034.343,608.579,1036.639,608.579
				z"/>
		</g>
		<g>
			<path id="C19_0_d5f5ef393e" fill="#760093" stroke="#FFFFFF" stroke-linejoin="round" d="M1060.977,608.579
				c2.297,0,4.499-0.913,6.124-2.537c1.623-1.624,2.536-3.827,2.536-6.123c0-2.297-0.913-4.5-2.536-6.124
				c-1.625-1.624-3.827-2.536-6.124-2.536s-4.5,0.912-6.124,2.536s-2.536,3.827-2.536,6.124c0,2.296,0.912,4.499,2.536,6.123
				S1058.68,608.579,1060.977,608.579z"/>
		</g>
		<g>
			<g>
				<g>
					<path id="C0_0_9bc2759838_1_" fill="#C19A2F" stroke="#FFFFFF" stroke-miterlimit="10" d="M330.858,582.943
						c2.297,0,4.5-0.912,6.124-2.536s2.536-3.827,2.536-6.124s-0.912-4.5-2.536-6.124s-3.827-2.536-6.124-2.536
						s-4.5,0.912-6.124,2.536s-2.536,3.827-2.536,6.124s0.912,4.5,2.536,6.124S328.561,582.943,330.858,582.943z"/>
				</g>
			</g>
		</g>
		<g>
			<g>
				<path id="m46fbcefbea_1_" fill="#404040" stroke="#404040" stroke-linejoin="round" d="M403.869,582.943
					c2.297,0,4.5-0.912,6.124-2.536s2.536-3.827,2.536-6.124s-0.912-4.5-2.536-6.124s-3.827-2.536-6.124-2.536
					s-4.499,0.912-6.123,2.536s-2.537,3.827-2.537,6.124s0.913,4.5,2.537,6.124S401.573,582.943,403.869,582.943z"/>
			</g>
		</g>
		<path fill="none" stroke="#404040" stroke-width="3.5" stroke-linejoin="round" d="M403.869,574.283L403.869,574.283"/>
		<g>
			<path id="C4_0_30a59377f2" fill="#A53535" stroke="#FFFFFF" stroke-linejoin="round" d="M525.556,582.943
				c2.297,0,4.5-0.912,6.124-2.536s2.536-3.827,2.536-6.124s-0.912-4.5-2.536-6.124s-3.827-2.536-6.124-2.536
				s-4.5,0.912-6.124,2.536s-2.536,3.827-2.536,6.124s0.912,4.5,2.536,6.124S523.259,582.943,525.556,582.943z"/>
		</g>
		<g>
			<path id="C5_0_21cabdcc10_1_" fill="#404040" stroke="#404040" stroke-linejoin="round" d="M549.893,582.943
				c2.297,0,4.5-0.912,6.124-2.536s2.537-3.827,2.537-6.124s-0.913-4.5-2.537-6.124s-3.827-2.536-6.124-2.536
				c-2.296,0-4.499,0.912-6.123,2.536s-2.537,3.827-2.537,6.124s0.913,4.5,2.537,6.124S547.597,582.943,549.893,582.943z"/>
		</g>
		<g>
			<path id="C6_0_bf9c4f394d_2_" fill="#404040" stroke="#404040" stroke-linejoin="round" d="M574.231,582.943
				c2.297,0,4.499-0.912,6.124-2.536c1.623-1.624,2.536-3.827,2.536-6.124s-0.913-4.5-2.536-6.124
				c-1.625-1.624-3.827-2.536-6.124-2.536s-4.5,0.912-6.124,2.536s-2.536,3.827-2.536,6.124s0.912,4.5,2.536,6.124
				S571.934,582.943,574.231,582.943z"/>
		</g>
		<g>
			<path id="C7_0_b50d2eda2c_1_" fill="#404040" stroke="#404040" stroke-linejoin="round" d="M598.568,582.943
				c2.297,0,4.5-0.912,6.124-2.536s2.536-3.827,2.536-6.124s-0.912-4.5-2.536-6.124s-3.827-2.536-6.124-2.536
				s-4.499,0.912-6.123,2.536s-2.537,3.827-2.537,6.124s0.913,4.5,2.537,6.124S596.271,582.943,598.568,582.943z"/>
		</g>
		<g>
			<path id="C8_0_5ac848d696" fill="#8EC172" stroke="#FFFFFF" stroke-linejoin="round" d="M622.906,582.943
				c2.297,0,4.499-0.912,6.123-2.536s2.537-3.827,2.537-6.124s-0.913-4.5-2.537-6.124s-3.826-2.536-6.123-2.536
				s-4.5,0.912-6.124,2.536s-2.536,3.827-2.536,6.124s0.912,4.5,2.536,6.124S620.609,582.943,622.906,582.943z"/>
		</g>
		<g>
			<g>
				<path id="C9_0_204b94e269_2_" fill="#8EC172" stroke="#FFFFFF" stroke-linejoin="round" d="M647.242,582.943
					c2.297,0,4.5-0.912,6.124-2.536s2.536-3.827,2.536-6.124s-0.912-4.5-2.536-6.124s-3.827-2.536-6.124-2.536
					s-4.5,0.912-6.124,2.536s-2.536,3.827-2.536,6.124s0.912,4.5,2.536,6.124S644.946,582.943,647.242,582.943z"/>
			</g>
		</g>
		<g>
			<path id="Ca_0_9d88e07b09_2_" fill="#A53535" stroke="#FFFFFF" stroke-linejoin="round" d="M671.579,582.943
				c2.297,0,4.5-0.912,6.124-2.536s2.537-3.827,2.537-6.124s-0.913-4.5-2.537-6.124s-3.827-2.536-6.124-2.536
				c-2.296,0-4.499,0.912-6.123,2.536s-2.537,3.827-2.537,6.124s0.913,4.5,2.537,6.124S669.283,582.943,671.579,582.943z"/>
		</g>
		<g>
			<path id="Cd_0_24e8bb5f2a" fill="#8EC172" stroke="#FFFFFF" stroke-linejoin="round" d="M768.929,582.943
				c2.297,0,4.5-0.912,6.124-2.536s2.536-3.827,2.536-6.124s-0.912-4.5-2.536-6.124s-3.827-2.536-6.124-2.536
				s-4.5,0.912-6.124,2.536s-2.536,3.827-2.536,6.124s0.912,4.5,2.536,6.124S766.632,582.943,768.929,582.943z"/>
		</g>
		<g>
			<path id="Cf_0_e5fb1a7217_1_" fill="#760093" stroke="#FFFFFF" stroke-linejoin="round" d="M817.604,582.943
				c2.297,0,4.499-0.912,6.124-2.536c1.623-1.624,2.536-3.827,2.536-6.124s-0.913-4.5-2.536-6.124
				c-1.625-1.624-3.827-2.536-6.124-2.536s-4.5,0.912-6.124,2.536s-2.536,3.827-2.536,6.124s0.912,4.5,2.536,6.124
				S815.307,582.943,817.604,582.943z"/>
		</g>
		<g>
			<path id="C10_0_a00f39a46f" fill="#760093" stroke="#FFFFFF" stroke-linejoin="round" d="M841.941,582.943
				c2.297,0,4.5-0.912,6.124-2.536s2.536-3.827,2.536-6.124s-0.912-4.5-2.536-6.124s-3.827-2.536-6.124-2.536
				s-4.5,0.912-6.123,2.536c-1.625,1.624-2.537,3.827-2.537,6.124s0.912,4.5,2.537,6.124
				C837.441,582.031,839.644,582.943,841.941,582.943z"/>
		</g>
		<g>
			<path id="C11_0_e9d1de3901" fill="#404040" stroke="#404040" stroke-linejoin="round" d="M866.279,582.943
				c2.297,0,4.499-0.912,6.123-2.536s2.537-3.827,2.537-6.124s-0.913-4.5-2.537-6.124s-3.826-2.536-6.123-2.536
				s-4.5,0.912-6.124,2.536s-2.536,3.827-2.536,6.124s0.912,4.5,2.536,6.124S863.982,582.943,866.279,582.943z"/>
		</g>
		<g>
			<path id="C12_0_268c9261b3_1_" fill="#760093" stroke="#FFFFFF" stroke-linejoin="round" d="M890.615,582.943
				c2.297,0,4.5-0.912,6.124-2.536s2.536-3.827,2.536-6.124s-0.912-4.5-2.536-6.124s-3.827-2.536-6.124-2.536
				s-4.5,0.912-6.124,2.536s-2.536,3.827-2.536,6.124s0.912,4.5,2.536,6.124S888.319,582.943,890.615,582.943z"/>
		</g>
		<g>
			<path id="C15_0_e84832a8d2" fill="#A53535" stroke="#FFFFFF" stroke-linejoin="round" d="M963.627,582.943
				c2.297,0,4.5-0.912,6.124-2.536s2.536-3.827,2.536-6.124s-0.912-4.5-2.536-6.124s-3.827-2.536-6.124-2.536
				s-4.499,0.912-6.124,2.536c-1.623,1.624-2.536,3.827-2.536,6.124s0.913,4.5,2.536,6.124
				C959.128,582.031,961.33,582.943,963.627,582.943z"/>
		</g>
		<g>
			<path id="C18_0_d1afa29ef3" fill="#760093" stroke="#FFFFFF" stroke-linejoin="round" d="M1036.639,582.943
				c2.297,0,4.5-0.912,6.124-2.536s2.537-3.827,2.537-6.124s-0.913-4.5-2.537-6.124s-3.827-2.536-6.124-2.536
				c-2.296,0-4.499,0.912-6.123,2.536s-2.537,3.827-2.537,6.124s0.913,4.5,2.537,6.124S1034.343,582.943,1036.639,582.943z"/>
		</g>
		<g>
			<g>
				<g>
					<path id="C0_0_9bc2759838" fill="#C19A2F" stroke="#FFFFFF" stroke-miterlimit="10" d="M330.858,634.215
						c2.297,0,4.5-0.912,6.124-2.536s2.536-3.827,2.536-6.124s-0.912-4.5-2.536-6.124s-3.827-2.536-6.124-2.536
						s-4.5,0.912-6.124,2.536s-2.536,3.827-2.536,6.124s0.912,4.5,2.536,6.124S328.561,634.215,330.858,634.215z"/>
				</g>
			</g>
		</g>
		<path id="C1_0_db9499a1c3" fill="#404040" stroke="#404040" stroke-linejoin="round" d="M379.532,634.215
			c2.297,0,4.5-0.912,6.124-2.536s2.536-3.827,2.536-6.124s-0.912-4.5-2.536-6.124s-3.827-2.536-6.124-2.536s-4.5,0.912-6.124,2.536
			s-2.536,3.827-2.536,6.124s0.912,4.5,2.536,6.124S377.236,634.215,379.532,634.215z"/>
		<g>
			<g>
				<path id="m46fbcefbea_3_" fill="#404040" stroke="#404040" stroke-linejoin="round" d="M452.544,634.215
					c2.297,0,4.5-0.912,6.124-2.536s2.536-3.827,2.536-6.124s-0.912-4.5-2.536-6.124s-3.827-2.536-6.124-2.536
					s-4.5,0.912-6.124,2.536s-2.536,3.827-2.536,6.124s0.912,4.5,2.536,6.124S450.247,634.215,452.544,634.215z"/>
			</g>
		</g>
		<path fill="none" stroke="#404040" stroke-width="3.5" stroke-linejoin="round" d="M452.544,625.555L452.544,625.555"/>
		<g>
			<path id="C2_0_273e8238e6" fill="#8EC172" stroke="#FFFFFF" stroke-linejoin="round" d="M476.881,634.215
				c2.297,0,4.5-0.912,6.124-2.536s2.536-3.827,2.536-6.124s-0.912-4.5-2.536-6.124s-3.827-2.536-6.124-2.536
				s-4.499,0.912-6.123,2.536s-2.537,3.827-2.537,6.124s0.913,4.5,2.537,6.124S474.584,634.215,476.881,634.215z"/>
		</g>
		<g>
			<path id="C5_0_21cabdcc10" fill="#404040" stroke="#404040" stroke-linejoin="round" d="M549.893,634.215
				c2.297,0,4.5-0.912,6.124-2.536s2.537-3.827,2.537-6.124s-0.913-4.5-2.537-6.124s-3.827-2.536-6.124-2.536
				c-2.296,0-4.499,0.912-6.123,2.536s-2.537,3.827-2.537,6.124s0.913,4.5,2.537,6.124S547.597,634.215,549.893,634.215z"/>
		</g>
		<g>
			<path id="C6_0_bf9c4f394d" fill="#404040" stroke="#404040" stroke-linejoin="round" d="M574.231,634.215
				c2.297,0,4.499-0.912,6.124-2.536c1.623-1.624,2.536-3.827,2.536-6.124s-0.913-4.5-2.536-6.124
				c-1.625-1.624-3.827-2.536-6.124-2.536s-4.5,0.912-6.124,2.536s-2.536,3.827-2.536,6.124s0.912,4.5,2.536,6.124
				S571.934,634.215,574.231,634.215z"/>
		</g>
		<g>
			<path id="C7_0_b50d2eda2c" fill="#404040" stroke="#404040" stroke-linejoin="round" d="M598.568,634.215
				c2.297,0,4.5-0.912,6.124-2.536s2.536-3.827,2.536-6.124s-0.912-4.5-2.536-6.124s-3.827-2.536-6.124-2.536
				s-4.499,0.912-6.123,2.536s-2.537,3.827-2.537,6.124s0.913,4.5,2.537,6.124S596.271,634.215,598.568,634.215z"/>
		</g>
		<g>
			<g>
				<path id="C9_0_204b94e269" fill="#8EC172" stroke="#FFFFFF" stroke-linejoin="round" d="M647.242,634.215
					c2.297,0,4.5-0.912,6.124-2.536s2.536-3.827,2.536-6.124s-0.912-4.5-2.536-6.124s-3.827-2.536-6.124-2.536
					s-4.5,0.912-6.124,2.536s-2.536,3.827-2.536,6.124s0.912,4.5,2.536,6.124S644.946,634.215,647.242,634.215z"/>
			</g>
		</g>
		<g>
			<path id="Ca_0_9d88e07b09" fill="#A53535" stroke="#FFFFFF" stroke-linejoin="round" d="M671.579,634.215
				c2.297,0,4.5-0.912,6.124-2.536s2.537-3.827,2.537-6.124s-0.913-4.5-2.537-6.124s-3.827-2.536-6.124-2.536
				c-2.296,0-4.499,0.912-6.123,2.536s-2.537,3.827-2.537,6.124s0.913,4.5,2.537,6.124S669.283,634.215,671.579,634.215z"/>
		</g>
		<g>
			<path id="Cb_0_25954e404a" fill="#A53535" stroke="#FFFFFF" stroke-linejoin="round" d="M695.917,634.215
				c2.297,0,4.5-0.912,6.123-2.536c1.625-1.624,2.537-3.827,2.537-6.124s-0.912-4.5-2.537-6.124
				c-1.623-1.624-3.826-2.536-6.123-2.536s-4.5,0.912-6.124,2.536s-2.536,3.827-2.536,6.124s0.912,4.5,2.536,6.124
				S693.62,634.215,695.917,634.215z"/>
		</g>
		<g>
			<path id="Cc_0_64bc100244" fill="#A53535" stroke="#FFFFFF" stroke-linejoin="round" d="M744.592,634.215
				c2.296,0,4.499-0.912,6.123-2.536s2.537-3.827,2.537-6.124s-0.913-4.5-2.537-6.124s-3.827-2.536-6.123-2.536
				c-2.297,0-4.5,0.912-6.124,2.536s-2.537,3.827-2.537,6.124s0.913,4.5,2.537,6.124S742.295,634.215,744.592,634.215z"/>
		</g>
		<g>
			<path id="Ce_0_e3b79aa8d2" fill="#8EC172" stroke="#FFFFFF" stroke-linejoin="round" d="M793.266,634.215
				c2.297,0,4.5-0.912,6.124-2.536s2.537-3.827,2.537-6.124s-0.913-4.5-2.537-6.124s-3.827-2.536-6.124-2.536
				c-2.296,0-4.499,0.912-6.123,2.536s-2.537,3.827-2.537,6.124s0.913,4.5,2.537,6.124S790.97,634.215,793.266,634.215z"/>
		</g>
		<g>
			<path id="Cf_0_e5fb1a7217" fill="#760093" stroke="#FFFFFF" stroke-linejoin="round" d="M817.604,634.215
				c2.297,0,4.499-0.912,6.124-2.536c1.623-1.624,2.536-3.827,2.536-6.124s-0.913-4.5-2.536-6.124
				c-1.625-1.624-3.827-2.536-6.124-2.536s-4.5,0.912-6.124,2.536s-2.536,3.827-2.536,6.124s0.912,4.5,2.536,6.124
				S815.307,634.215,817.604,634.215z"/>
		</g>
		<g>
			<path id="C12_0_268c9261b3" fill="#760093" stroke="#FFFFFF" stroke-linejoin="round" d="M890.615,634.215
				c2.297,0,4.5-0.912,6.124-2.536s2.536-3.827,2.536-6.124s-0.912-4.5-2.536-6.124s-3.827-2.536-6.124-2.536
				s-4.5,0.912-6.124,2.536s-2.536,3.827-2.536,6.124s0.912,4.5,2.536,6.124S888.319,634.215,890.615,634.215z"/>
		</g>
		<g>
			<path id="C13_0_92d1334280" fill="#760093" stroke="#FFFFFF" stroke-linejoin="round" d="M914.952,634.215
				c2.297,0,4.5-0.912,6.124-2.536s2.536-3.827,2.536-6.124s-0.912-4.5-2.536-6.124s-3.827-2.536-6.124-2.536
				s-4.499,0.912-6.123,2.536s-2.537,3.827-2.537,6.124s0.913,4.5,2.537,6.124S912.656,634.215,914.952,634.215z"/>
		</g>
		<g>
			<path id="C16_0_507f8d56d4" fill="#760093" stroke="#FFFFFF" stroke-linejoin="round" d="M987.964,634.215
				c2.297,0,4.5-0.912,6.124-2.536s2.537-3.827,2.537-6.124s-0.913-4.5-2.537-6.124s-3.827-2.536-6.124-2.536
				c-2.296,0-4.499,0.912-6.123,2.536s-2.537,3.827-2.537,6.124s0.913,4.5,2.537,6.124S985.668,634.215,987.964,634.215z"/>
		</g>
		<g>
			<g>
				<g>
					<path id="C0_0_9bc2759838_2_" fill="#C19A2F" stroke="#FFFFFF" stroke-miterlimit="10" d="M330.858,531.672
						c2.297,0,4.5-0.912,6.124-2.536s2.536-3.827,2.536-6.124s-0.912-4.5-2.536-6.124s-3.827-2.536-6.124-2.536
						s-4.5,0.912-6.124,2.536s-2.536,3.827-2.536,6.124s0.912,4.5,2.536,6.124S328.561,531.672,330.858,531.672z"/>
				</g>
			</g>
		</g>
		<g>
			<g>
				<g>
					<path id="m46fbcefbea" fill="#404040" stroke="#404040" stroke-linejoin="round" d="M355.195,531.672
						c2.297,0,4.5-0.912,6.124-2.536s2.537-3.827,2.537-6.124s-0.913-4.5-2.537-6.124s-3.827-2.536-6.124-2.536
						c-2.296,0-4.499,0.912-6.123,2.536s-2.537,3.827-2.537,6.124s0.913,4.5,2.537,6.124S352.899,531.672,355.195,531.672z"/>
				</g>
			</g>
		</g>
		<g>
			<path id="C2_0_273e8238e6_1_" fill="#8EC172" stroke="#FFFFFF" stroke-linejoin="round" d="M476.881,531.672
				c2.297,0,4.5-0.912,6.124-2.536s2.536-3.827,2.536-6.124s-0.912-4.5-2.536-6.124s-3.827-2.536-6.124-2.536
				s-4.499,0.912-6.123,2.536s-2.537,3.827-2.537,6.124s0.913,4.5,2.537,6.124S474.584,531.672,476.881,531.672z"/>
		</g>
		<g>
			<path id="C3_0_c04471194f" fill="#6073C6" stroke="#FFFFFF" stroke-miterlimit="10" d="M501.219,531.672
				c2.296,0,4.499-0.912,6.123-2.536s2.537-3.827,2.537-6.124s-0.913-4.5-2.537-6.124s-3.827-2.536-6.123-2.536
				c-2.297,0-4.5,0.912-6.124,2.536s-2.537,3.827-2.537,6.124s0.913,4.5,2.537,6.124S498.922,531.672,501.219,531.672z"/>
		</g>
		<g>
			<path id="C4_0_30a59377f2_1_" fill="#A53535" stroke="#FFFFFF" stroke-linejoin="round" d="M525.556,531.672
				c2.297,0,4.5-0.912,6.124-2.536s2.536-3.827,2.536-6.124s-0.912-4.5-2.536-6.124s-3.827-2.536-6.124-2.536
				s-4.5,0.912-6.124,2.536s-2.536,3.827-2.536,6.124s0.912,4.5,2.536,6.124S523.259,531.672,525.556,531.672z"/>
		</g>
		<g>
			<path id="C6_0_bf9c4f394d_1_" fill="#404040" stroke="#404040" stroke-linejoin="round" d="M574.231,531.672
				c2.297,0,4.499-0.912,6.124-2.536c1.623-1.624,2.536-3.827,2.536-6.124s-0.913-4.5-2.536-6.124
				c-1.625-1.624-3.827-2.536-6.124-2.536s-4.5,0.912-6.124,2.536s-2.536,3.827-2.536,6.124s0.912,4.5,2.536,6.124
				S571.934,531.672,574.231,531.672z"/>
		</g>
		<g>
			<path id="C8_0_5ac848d696_1_" fill="#8EC172" stroke="#FFFFFF" stroke-linejoin="round" d="M622.906,531.672
				c2.297,0,4.499-0.912,6.123-2.536s2.537-3.827,2.537-6.124s-0.913-4.5-2.537-6.124s-3.826-2.536-6.123-2.536
				s-4.5,0.912-6.124,2.536s-2.536,3.827-2.536,6.124s0.912,4.5,2.536,6.124S620.609,531.672,622.906,531.672z"/>
		</g>
		<g>
			<g>
				<path id="C9_0_204b94e269_1_" fill="#8EC172" stroke="#FFFFFF" stroke-linejoin="round" d="M647.242,531.672
					c2.297,0,4.5-0.912,6.124-2.536s2.536-3.827,2.536-6.124s-0.912-4.5-2.536-6.124s-3.827-2.536-6.124-2.536
					s-4.5,0.912-6.124,2.536s-2.536,3.827-2.536,6.124s0.912,4.5,2.536,6.124S644.946,531.672,647.242,531.672z"/>
			</g>
		</g>
		<g>
			<path id="Ca_0_9d88e07b09_1_" fill="#A53535" stroke="#FFFFFF" stroke-linejoin="round" d="M671.579,531.672
				c2.297,0,4.5-0.912,6.124-2.536s2.537-3.827,2.537-6.124s-0.913-4.5-2.537-6.124s-3.827-2.536-6.124-2.536
				c-2.296,0-4.499,0.912-6.123,2.536s-2.537,3.827-2.537,6.124s0.913,4.5,2.537,6.124S669.283,531.672,671.579,531.672z"/>
		</g>
		<g>
			<path id="Cb_0_25954e404a_1_" fill="#A53535" stroke="#FFFFFF" stroke-linejoin="round" d="M695.917,531.672
				c2.297,0,4.5-0.912,6.123-2.536c1.625-1.624,2.537-3.827,2.537-6.124s-0.912-4.5-2.537-6.124
				c-1.623-1.624-3.826-2.536-6.123-2.536s-4.5,0.912-6.124,2.536s-2.536,3.827-2.536,6.124s0.912,4.5,2.536,6.124
				S693.62,531.672,695.917,531.672z"/>
		</g>
		<g>
			<path id="Cc_0_64bc100244_1_" fill="#A53535" stroke="#FFFFFF" stroke-linejoin="round" d="M744.592,531.672
				c2.296,0,4.499-0.912,6.123-2.536s2.537-3.827,2.537-6.124s-0.913-4.5-2.537-6.124s-3.827-2.536-6.123-2.536
				c-2.297,0-4.5,0.912-6.124,2.536s-2.537,3.827-2.537,6.124s0.913,4.5,2.537,6.124S742.295,531.672,744.592,531.672z"/>
		</g>
		<g>
			<path id="Cd_0_24e8bb5f2a_1_" fill="#8EC172" stroke="#FFFFFF" stroke-linejoin="round" d="M768.929,531.672
				c2.297,0,4.5-0.912,6.124-2.536s2.536-3.827,2.536-6.124s-0.912-4.5-2.536-6.124s-3.827-2.536-6.124-2.536
				s-4.5,0.912-6.124,2.536s-2.536,3.827-2.536,6.124s0.912,4.5,2.536,6.124S766.632,531.672,768.929,531.672z"/>
		</g>
		<g>
			<path id="Ce_0_e3b79aa8d2_1_" fill="#8EC172" stroke="#FFFFFF" stroke-linejoin="round" d="M793.266,531.672
				c2.297,0,4.5-0.912,6.124-2.536s2.537-3.827,2.537-6.124s-0.913-4.5-2.537-6.124s-3.827-2.536-6.124-2.536
				c-2.296,0-4.499,0.912-6.123,2.536s-2.537,3.827-2.537,6.124s0.913,4.5,2.537,6.124S790.97,531.672,793.266,531.672z"/>
		</g>
		<g>
			<path id="C14_0_a68d43c859_1_" fill="#8EC172" stroke="#FFFFFF" stroke-linejoin="round" d="M939.29,531.672
				c2.297,0,4.499-0.912,6.123-2.536c1.625-1.624,2.537-3.827,2.537-6.124s-0.912-4.5-2.537-6.124
				c-1.624-1.624-3.826-2.536-6.123-2.536s-4.5,0.912-6.124,2.536s-2.536,3.827-2.536,6.124s0.912,4.5,2.536,6.124
				S936.993,531.672,939.29,531.672z"/>
		</g>
		<g>
			<path id="C15_0_e84832a8d2_1_" fill="#A53535" stroke="#FFFFFF" stroke-linejoin="round" d="M963.627,531.672
				c2.297,0,4.5-0.912,6.124-2.536s2.536-3.827,2.536-6.124s-0.912-4.5-2.536-6.124s-3.827-2.536-6.124-2.536
				s-4.499,0.912-6.124,2.536c-1.623,1.624-2.536,3.827-2.536,6.124s0.913,4.5,2.536,6.124
				C959.128,530.76,961.33,531.672,963.627,531.672z"/>
		</g>
		<g>
			<path id="C17_0_b3b4415364_1_" fill="#A53535" stroke="#FFFFFF" stroke-linejoin="round" d="M1012.302,531.672
				c2.297,0,4.5-0.912,6.124-2.536s2.536-3.827,2.536-6.124s-0.912-4.5-2.536-6.124s-3.827-2.536-6.124-2.536
				s-4.5,0.912-6.124,2.536s-2.536,3.827-2.536,6.124s0.912,4.5,2.536,6.124S1010.005,531.672,1012.302,531.672z"/>
		</g>
	</g>
</g>
<g>
	<g id="patch_7">
		<g>
			<path fill="#404040" d="M243.002,557.308h-84.587v-17.321h84.587V557.308z"/>
		</g>
	</g>
	<g id="patch_6">
		<g>
			<path fill="#404040" d="M243.002,608.578h-89.601v-17.32h89.601V608.578z"/>
		</g>
	</g>
	<g id="patch_5">
		<g>
			<path fill="#404040" d="M243.002,582.943h-92.208v-17.32h92.208V582.943z"/>
		</g>
	</g>
	<g id="patch_4">
		<g>
			<path fill="#404040" d="M243.002,634.215H142.958v-17.321h100.044V634.215z"/>
		</g>
	</g>
	<g id="patch_3">
		<g>
			<path fill="#404040" d="M243.002,531.672h-146.5v-17.321h146.5V531.672z"/>
		</g>
	</g>
	<g>
		<text transform="matrix(1 0 0 1 96.155 507.3887)" font-family="'Ubuntu-Medium'" font-size="12">Canonical Splicing Set Size</text>
		<text transform="matrix(1 0 0 1 100.7537 526.957)" fill="#FFFFFF" font-family="'Ubuntu'" font-size="12">218,203</text>
		<text transform="matrix(1 0 0 1 162.6682 552.5928)" fill="#FFFFFF" font-family="'Ubuntu'" font-size="12">125,988</text>
		<text transform="matrix(1 0 0 1 155.0457 578.2285)" fill="#FFFFFF" font-family="'Ubuntu'" font-size="12">137,337</text>
		<text transform="matrix(1 0 0 1 157.6536 603.8643)" fill="#FFFFFF" font-family="'Ubuntu'" font-size="12">133,456</text>
		<text transform="matrix(1 0 0 1 147.2117 629.5)" fill="#FFFFFF" font-family="'Ubuntu'" font-size="12">149,012</text>
	</g>
</g>
<g>
	<g>
		<g id="patch_14">
			<g>
				<path fill="#C19A2F" d="M322.198,507.562h17.321V125.838h-17.321V507.562z"/>
			</g>
		</g>
		<g id="patch_15">
			<g>
				<path fill="#404040" d="M346.535,507.562h17.32V131.153h-17.32V507.562z"/>
			</g>
		</g>
		<g id="patch_16">
			<g>
				<path fill="#404040" d="M370.872,507.562h17.321v-90.869h-17.321V507.562z"/>
			</g>
		</g>
		<g id="patch_17">
			<g>
				<path fill="#404040" d="M395.21,507.562h17.32v-74.019h-17.32V507.562z"/>
			</g>
		</g>
		<g id="patch_18">
			<g>
				<path fill="#404040" d="M419.547,507.562h17.32v-50.374h-17.32V507.562z"/>
			</g>
		</g>
		<g id="patch_19">
			<g>
				<path fill="#404040" d="M443.884,507.562h17.321v-28.71h-17.321V507.562z"/>
			</g>
		</g>
		<g id="patch_20">
			<g>
				<path fill="#8EC172" d="M468.222,507.562h17.32V481.41h-17.32V507.562z"/>
			</g>
		</g>
		<g id="patch_21">
			<g>
				<path fill="#6073C6" d="M492.559,507.562h17.321v-23.657h-17.321V507.562z"/>
			</g>
		</g>
		<g id="patch_22">
			<g>
				<path fill="#A53535" d="M516.896,507.562h17.321v-21.693h-17.321V507.562z"/>
			</g>
		</g>
		<g id="patch_23">
			<g>
				<path fill="#404040" d="M541.234,507.562h17.32v-21.293h-17.32V507.562z"/>
			</g>
		</g>
		<g id="patch_24">
			<g>
				<path fill="#404040" d="M565.571,507.562h17.321v-12.47h-17.321V507.562z"/>
			</g>
		</g>
		<g id="patch_25">
			<g>
				<path fill="#404040" d="M589.908,507.562h17.32v-11.229h-17.32V507.562z"/>
			</g>
		</g>
		<g id="patch_26">
			<g>
				<path d="M614.245,507.562h17.321v-9.741h-17.321V507.562z"/>
			</g>
		</g>
		<g id="patch_27">
			<g>
				<path d="M638.582,507.562h17.321v-9.139h-17.321V507.562z"/>
			</g>
		</g>
		<g id="patch_28">
			<g>
				<path fill="#A53535" d="M662.92,507.562h17.32v-7.041h-17.32V507.562z"/>
			</g>
		</g>
		<g id="patch_29">
			<g>
				<path fill="#A53535" d="M687.257,507.562h17.321v-6.346h-17.321V507.562z"/>
			</g>
		</g>
		<g id="patch_30">
			<g>
				<path fill="#404040" d="M711.594,507.562h17.321v-3.8h-17.321V507.562z"/>
			</g>
		</g>
		<g id="patch_31">
			<g>
				<path fill="#A53535" d="M735.932,507.562h17.321v-2.632h-17.321V507.562z"/>
			</g>
		</g>
		<g id="patch_32">
			<g>
				<path d="M760.269,507.562h17.321v-2.171h-17.321V507.562z"/>
			</g>
		</g>
		<g id="patch_33">
			<g>
				<path d="M784.607,507.562h17.32v-2.014h-17.32V507.562z"/>
			</g>
		</g>
		<g id="patch_34">
			<g>
				<path fill="#760093" d="M808.944,507.562h17.321v-1.536h-17.321V507.562z"/>
			</g>
		</g>
		<g id="patch_35">
			<g>
				<path fill="#760093" d="M833.281,507.562h17.32v-1.217h-17.32V507.562z"/>
			</g>
		</g>
		<g id="patch_36">
			<g>
				<path fill="#404040" d="M857.618,507.562h17.321v-0.986h-17.321V507.562z"/>
			</g>
		</g>
		<g id="patch_37">
			<g>
				<path fill="#760093" d="M881.955,507.562h17.321v-0.518h-17.321V507.562z"/>
			</g>
		</g>
		<g id="patch_38">
			<g>
				<path fill="#760093" d="M906.293,507.562h17.32v-0.396h-17.32V507.562z"/>
			</g>
		</g>
		<g id="patch_39">
			<g>
				<path d="M930.63,507.562h17.321v-0.315H930.63V507.562z"/>
			</g>
		</g>
		<g id="patch_40">
			<g>
				<path fill="#A53535" d="M954.967,507.562h17.321v-0.287h-17.321V507.562z"/>
			</g>
		</g>
		<g id="patch_41">
			<g>
				<path fill="#760093" d="M979.305,507.562h17.32v-0.223h-17.32V507.562z"/>
			</g>
		</g>
		<g id="patch_42">
			<g>
				<path fill="#A53535" d="M1003.642,507.562h17.321v-0.158h-17.321V507.562z"/>
			</g>
		</g>
		<g id="patch_43">
			<g>
				<path fill="#760093" d="M1027.98,507.562h17.319v-0.037h-17.319V507.562z"/>
			</g>
		</g>
		<g id="patch_44">
			<g>
				<path fill="#760093" d="M1052.317,507.562h17.321v-0.017h-17.321V507.562z"/>
			</g>
		</g>
	</g>
	<text transform="matrix(-4.371139e-08 -1 1 -4.371139e-08 310.3865 505.5625)" font-family="'Ubuntu-Medium'" font-size="12">Canonical Splicing Intersection</text>
	<g>
		
			<text transform="matrix(-4.371139e-08 -1 1 -4.371139e-08 334.8025 159.6099)" fill="#FFFFFF" font-family="'Ubuntu'" font-size="12">94.4k</text>
		
			<text transform="matrix(-4.371139e-08 -1 1 -4.371139e-08 359.1399 164.9253)" fill="#FFFFFF" font-family="'Ubuntu'" font-size="12">93.1k</text>
		
			<text transform="matrix(-4.371139e-08 -1 1 -4.371139e-08 383.4773 450.4648)" fill="#FFFFFF" font-family="'Ubuntu'" font-size="12">22.5k</text>
		
			<text transform="matrix(-4.371139e-08 -1 1 -4.371139e-08 407.8147 467.3145)" fill="#FFFFFF" font-family="'Ubuntu'" font-size="12">18.1k</text>
		
			<text transform="matrix(-4.371139e-08 -1 1 -4.371139e-08 432.1521 490.959)" fill="#FFFFFF" font-family="'Ubuntu'" font-size="12">12.5k</text>
		<text transform="matrix(-4.371139e-08 -1 1 -4.371139e-08 456.49 474.5996)" font-family="'Ubuntu'" font-size="12">7.1k</text>
		<text transform="matrix(-4.371139e-08 -1 1 -4.371139e-08 480.8274 477.1582)" font-family="'Ubuntu'" font-size="12">6.5k</text>
		<text transform="matrix(-4.371139e-08 -1 1 -4.371139e-08 505.1648 479.6523)" font-family="'Ubuntu'" font-size="12">5.9k</text>
		<text transform="matrix(-4.371139e-08 -1 1 -4.371139e-08 529.5022 481.6152)" font-family="'Ubuntu'" font-size="12">5.4k</text>
		<text transform="matrix(-4.371139e-08 -1 1 -4.371139e-08 553.8401 482.0176)" font-family="'Ubuntu'" font-size="12">5.3k</text>
		<text transform="matrix(-4.371139e-08 -1 1 -4.371139e-08 578.1775 490.8379)" font-family="'Ubuntu'" font-size="12">3.1k</text>
		<text transform="matrix(-4.371139e-08 -1 1 -4.371139e-08 602.5149 492.0801)" font-family="'Ubuntu'" font-size="12">2.8k</text>
		<text transform="matrix(-4.371139e-08 -1 1 -4.371139e-08 626.8499 493.5684)" font-family="'Ubuntu'" font-size="12">2.4k</text>
		<text transform="matrix(-4.371139e-08 -1 1 -4.371139e-08 651.1877 494.1719)" font-family="'Ubuntu'" font-size="12">2.3k</text>
		<text transform="matrix(-4.371139e-08 -1 1 -4.371139e-08 675.5247 496.2695)" font-family="'Ubuntu'" font-size="12">1.7k</text>
		<text transform="matrix(-4.371139e-08 -1 1 -4.371139e-08 699.8616 496.9648)" font-family="'Ubuntu'" font-size="12">1.6k</text>
		<text transform="matrix(-4.371139e-08 -1 1 -4.371139e-08 724.1995 499.5098)" font-family="'Ubuntu'" font-size="12">940</text>
		<text transform="matrix(-4.371139e-08 -1 1 -4.371139e-08 748.5364 500.6777)" font-family="'Ubuntu'" font-size="12">651</text>
		<text transform="matrix(-4.371139e-08 -1 1 -4.371139e-08 772.8733 501.1396)" font-family="'Ubuntu'" font-size="12">537</text>
		<text transform="matrix(-4.371139e-08 -1 1 -4.371139e-08 797.2112 501.2959)" font-family="'Ubuntu'" font-size="12">498</text>
		<text transform="matrix(-4.371139e-08 -1 1 -4.371139e-08 821.5491 501.7744)" font-family="'Ubuntu'" font-size="12">380</text>
		<text transform="matrix(-4.371139e-08 -1 1 -4.371139e-08 845.886 502.0928)" font-family="'Ubuntu'" font-size="12">301</text>
		<text transform="matrix(-4.371139e-08 -1 1 -4.371139e-08 870.2229 502.3213)" font-family="'Ubuntu'" font-size="12">244</text>
		<text transform="matrix(-4.371139e-08 -1 1 -4.371139e-08 894.5608 502.792)" font-family="'Ubuntu'" font-size="12">128</text>
		<text transform="matrix(-4.371139e-08 -1 1 -4.371139e-08 918.8977 502.9141)" font-family="'Ubuntu'" font-size="12">98</text>
		<text transform="matrix(-4.371139e-08 -1 1 -4.371139e-08 943.2346 503.2773)" font-family="'Ubuntu'" font-size="12">78</text>
		<text transform="matrix(-4.371139e-08 -1 1 -4.371139e-08 967.5725 503.0215)" font-family="'Ubuntu'" font-size="12">71</text>
		<text transform="matrix(-4.371139e-08 -1 1 -4.371139e-08 991.9104 503.0879)" font-family="'Ubuntu'" font-size="12">55</text>
		<text transform="matrix(-4.371139e-08 -1 1 -4.371139e-08 1016.2463 503.1523)" font-family="'Ubuntu'" font-size="12">39</text>
		<text transform="matrix(-4.371139e-08 -1 1 -4.371139e-08 1040.5842 503.2715)" font-family="'Ubuntu'" font-size="12">9</text>
		<text transform="matrix(-4.371139e-08 -1 1 -4.371139e-08 1064.9221 503.293)" font-family="'Ubuntu'" font-size="12">4</text>
	</g>
</g>
<g>
	<g>
		<text transform="matrix(1 0 0 1 251.6248 553.6523)" font-family="'Ubuntu-Bold'" font-size="16">EC DRS</text>
		<text transform="matrix(1 0 0 1 249.281 604.9238)" font-family="'Ubuntu-Bold'" font-size="16">Araport</text>
		<text transform="matrix(1 0 0 1 248.825 579.2881)" font-family="'Ubuntu-Bold'" font-size="16">Illumina</text>
		<text transform="matrix(1 0 0 1 254.0007 630.5605)" font-family="'Ubuntu-Bold'" font-size="16">AtRTD</text>
		<text transform="matrix(1 0 0 1 263.5769 528.0156)" font-family="'Ubuntu-Bold'" font-size="16">DRS</text>
	</g>
	<g>
		<text transform="matrix(1 0 0 1 1085.8225 553.6523)" font-family="'Ubuntu-Bold'" font-size="16">EC DRS</text>
		<text transform="matrix(1 0 0 1 1083.4788 604.9238)" font-family="'Ubuntu-Bold'" font-size="16">Araport</text>
		<text transform="matrix(1 0 0 1 1083.0217 579.2881)" font-family="'Ubuntu-Bold'" font-size="16">Illumina</text>
		<text transform="matrix(1 0 0 1 1088.1975 630.5605)" font-family="'Ubuntu-Bold'" font-size="16">AtRTD</text>
		<text transform="matrix(1 0 0 1 1097.7737 528.0156)" font-family="'Ubuntu-Bold'" font-size="16">DRS</text>
	</g>
</g>
<g>
	<g>
		<g id="patch_3_1_">
			<g>
				<path fill="#404040" d="M1241.054,582.944h-88.985v-17.321h88.985V582.944z"/>
			</g>
		</g>
		<g id="patch_4_1_">
			<g>
				<path fill="#404040" d="M1214.882,531.672h-62.813v-17.321h62.813V531.672z"/>
			</g>
		</g>
		<g id="patch_5_1_">
			<g>
				<path fill="#404040" d="M1171.933,557.307h-19.864v-17.32h19.864V557.307z"/>
			</g>
		</g>
		<g id="patch_6_1_">
			<g>
				<path fill="#404040" d="M1154.042,634.214h-1.974v-17.32h1.974V634.214z"/>
			</g>
		</g>
		<g id="patch_7_1_">
			<g>
				<path fill="#404040" d="M1153.622,608.579h-1.554v-17.321h1.554V608.579z"/>
			</g>
		</g>
	</g>
	<g>
		<text transform="matrix(1 0 0 1 1151.967 507.3887)" font-family="'Ubuntu-Medium'" font-size="12">Non-canonical Splicing Set Size</text>
		<text transform="matrix(1 0 0 1 1193.2424 578.2275)" fill="#FFFFFF" font-family="'Ubuntu'" font-size="12">132,140</text>
		<text transform="matrix(1 0 0 1 1173.8381 526.957)" fill="#FFFFFF" font-family="'Ubuntu'" font-size="12">93,275</text>
		<text transform="matrix(1 0 0 1 1176.1858 552.5918)" font-family="'Ubuntu'" font-size="12">29,498</text>
		<text transform="matrix(1 0 0 1 1157.8743 603.8633)" font-family="'Ubuntu'" font-size="12">2,931</text>
		<text transform="matrix(1 0 0 1 1158.2932 629.498)" font-family="'Ubuntu'" font-size="12">2,309</text>
	</g>
</g>
<g>
	<g>
		<path fill="#404040" d="M395.21,1171.885h17.319V645.22H395.21V1171.885z"/>
		<path fill="#404040" d="M346.535,1009.054h17.317V645.22h-17.317V1009.054z"/>
		<path fill="#404040" d="M419.547,750.108h17.319V645.22h-17.319V750.108z"/>
		<path fill="#6073C6" d="M492.56,654.354h17.317v-9.135H492.56V654.354z"/>
		<path fill="#404040" d="M443.885,649.189h17.317v-3.97h-17.317V649.189z"/>
		<path fill="#C19A2F" d="M322.198,648.457h17.319v-3.237h-17.319V648.457z"/>
		<path fill="#404040" d="M370.873,647.204h17.317v-1.984h-17.317V647.204z"/>
		<path fill="#404040" d="M711.595,647.147h17.32v-1.928h-17.32V647.147z"/>
		<path fill="#404040" d="M541.234,647.062h17.319v-1.843h-17.319V647.062z"/>
		<path fill="#760093" d="M833.283,646.675h17.317v-1.455h-17.317V646.675z"/>
		<path fill="#404040" d="M589.908,645.434h17.32v-0.214h-17.32V645.434z"/>
		<path fill="#A53535" d="M516.897,645.43h17.317v-0.21h-17.317V645.43z"/>
		<path fill="#A53535" d="M687.258,645.357h17.32v-0.138h-17.32V645.357z"/>
		<path d="M614.245,645.349h17.32v-0.129h-17.32V645.349z"/>
		<path fill="#760093" d="M808.947,645.345h17.317v-0.125h-17.317V645.345z"/>
		<path d="M784.608,645.309h17.32v-0.089h-17.32V645.309z"/>
		<path fill="#A53535" d="M662.92,645.293h17.321v-0.073H662.92V645.293z"/>
		<path d="M638.583,645.28h17.32v-0.061h-17.32V645.28z"/>
		<path fill="#8EC172" d="M468.222,645.265h17.319v-0.045h-17.319V645.265z"/>
		<path fill="#404040" d="M857.621,645.256h17.317v-0.036h-17.317V645.256z"/>
		<path fill="#760093" d="M979.307,645.24h17.32v-0.021h-17.32V645.24z"/>
		<path d="M760.272,645.236h17.317v-0.017h-17.317V645.236z"/>
		<path fill="#A53535" d="M735.933,645.231h17.32v-0.012h-17.32V645.231z"/>
		<path fill="#404040" d="M565.573,645.231h17.317v-0.012h-17.317V645.231z"/>
		<path fill="#760093" d="M881.958,645.231h17.317v-0.012h-17.317V645.231z"/>
		<path fill="#760093" d="M906.294,645.231h17.32v-0.012h-17.32V645.231z"/>
		<path fill="#A53535" d="M1003.641,645.228h17.32v-0.008h-17.32V645.228z"/>
		<path fill="#A53535" d="M954.971,645.228h17.317v-0.008h-17.317V645.228z"/>
		<path d="M930.632,645.224h17.32v-0.004h-17.32V645.224z"/>
	</g>
	<text transform="matrix(-4.371139e-08 -1 1 -4.371139e-08 310.3865 843.1348)" font-family="'Ubuntu-Medium'" font-size="12">Non-canonical Splicing Intersection</text>
	<g>
		
			<text transform="matrix(-4.371139e-08 -1 1 -4.371139e-08 407.8152 1167.6328)" fill="#FFFFFF" font-family="'Ubuntu'" font-size="12">132.1k</text>
		
			<text transform="matrix(-4.371139e-08 -1 1 -4.371139e-08 359.1384 1004.8027)" fill="#FFFFFF" font-family="'Ubuntu'" font-size="12">93.3k</text>
		
			<text transform="matrix(-4.371139e-08 -1 1 -4.371139e-08 432.1506 745.8574)" fill="#FFFFFF" font-family="'Ubuntu'" font-size="12">29.5k</text>
		<text transform="matrix(-4.371139e-08 -1 1 -4.371139e-08 334.8025 673.0117)" font-family="'Ubuntu'" font-size="12">801</text>
		<text transform="matrix(-4.371139e-08 -1 1 -4.371139e-08 383.4768 671.7588)" font-family="'Ubuntu'" font-size="12">491</text>
		<text transform="matrix(-4.371139e-08 -1 1 -4.371139e-08 456.4905 673.7451)" font-family="'Ubuntu'" font-size="12">982</text>
		<text transform="matrix(-4.371139e-08 -1 1 -4.371139e-08 480.8274 663.0527)" font-family="'Ubuntu'" font-size="12">11</text>
		<text transform="matrix(-4.371139e-08 -1 1 -4.371139e-08 505.1648 685.6777)" font-family="'Ubuntu'" font-size="12">2260</text>
		<text transform="matrix(-4.371139e-08 -1 1 -4.371139e-08 845.886 671.2314)" font-family="'Ubuntu'" font-size="12">360</text>
		<text transform="matrix(-4.371139e-08 -1 1 -4.371139e-08 553.8391 671.6162)" font-family="'Ubuntu'" font-size="12">456</text>
		<text transform="matrix(-4.371139e-08 -1 1 -4.371139e-08 529.5017 663.2168)" font-family="'Ubuntu'" font-size="12">52</text>
		<text transform="matrix(-4.371139e-08 -1 1 -4.371139e-08 602.5129 663.2207)" font-family="'Ubuntu'" font-size="12">53</text>
		<text transform="matrix(-4.371139e-08 -1 1 -4.371139e-08 626.8508 663.1367)" font-family="'Ubuntu'" font-size="12">32</text>
		<text transform="matrix(-4.371139e-08 -1 1 -4.371139e-08 651.1868 663.0693)" font-family="'Ubuntu'" font-size="12">15</text>
		<text transform="matrix(-4.371139e-08 -1 1 -4.371139e-08 675.5247 663.082)" font-family="'Ubuntu'" font-size="12">18</text>
		<text transform="matrix(-4.371139e-08 -1 1 -4.371139e-08 699.8616 663.1465)" font-family="'Ubuntu'" font-size="12">34</text>
		<text transform="matrix(-4.371139e-08 -1 1 -4.371139e-08 724.1995 671.7012)" font-family="'Ubuntu'" font-size="12">477</text>
		<text transform="matrix(-4.371139e-08 -1 1 -4.371139e-08 772.8743 656.2559)" font-family="'Ubuntu'" font-size="12">4</text>
		<text transform="matrix(-4.371139e-08 -1 1 -4.371139e-08 797.2112 663.0986)" font-family="'Ubuntu'" font-size="12">22</text>
		<text transform="matrix(-4.371139e-08 -1 1 -4.371139e-08 821.5491 663.1309)" font-family="'Ubuntu'" font-size="12">31</text>
		<text transform="matrix(-4.371139e-08 -1 1 -4.371139e-08 870.2229 656.2744)" font-family="'Ubuntu'" font-size="12">9</text>
		<text transform="matrix(-4.371139e-08 -1 1 -4.371139e-08 918.8987 656.251)" font-family="'Ubuntu'" font-size="12">3</text>
		<text transform="matrix(-4.371139e-08 -1 1 -4.371139e-08 943.2356 656.2451)" font-family="'Ubuntu'" font-size="12">1</text>
		<text transform="matrix(-4.371139e-08 -1 1 -4.371139e-08 967.5725 656.2471)" font-family="'Ubuntu'" font-size="12">2</text>
		<text transform="matrix(-4.371139e-08 -1 1 -4.371139e-08 991.9104 656.2588)" font-family="'Ubuntu'" font-size="12">5</text>
		<text transform="matrix(-4.371139e-08 -1 1 -4.371139e-08 1040.5842 656.2402)" font-family="'Ubuntu'" font-size="12">0</text>
		<text transform="matrix(-4.371139e-08 -1 1 -4.371139e-08 1064.9221 656.2402)" font-family="'Ubuntu'" font-size="12">0</text>
		<text transform="matrix(-4.371139e-08 -1 1 -4.371139e-08 1016.2483 656.2461)" font-family="'Ubuntu'" font-size="12">2</text>
		<text transform="matrix(-4.371139e-08 -1 1 -4.371139e-08 894.5608 656.2461)" font-family="'Ubuntu'" font-size="12">2</text>
		<text transform="matrix(-4.371139e-08 -1 1 -4.371139e-08 748.5374 656.25)" font-family="'Ubuntu'" font-size="12">3</text>
		<text transform="matrix(-4.371139e-08 -1 1 -4.371139e-08 578.176 656.252)" font-family="'Ubuntu'" font-size="12">3</text>
	</g>
	<g>
		<path fill="#89E5DC" d="M395.21,765.324h17.319V645.221H395.21V765.324z"/>
		<text transform="matrix(-4.371139e-08 -1 1 -4.371139e-08 407.8152 761.0723)" font-family="'Ubuntu'" font-size="12">29.7k</text>
	</g>
</g>
</svg>
