<?xml version="1.0" encoding="utf-8" standalone="no"?>
<!DOCTYPE svg PUBLIC "-//W3C//DTD SVG 1.1//EN"
  "http://www.w3.org/Graphics/SVG/1.1/DTD/svg11.dtd">
<!-- Created with matplotlib (http://matplotlib.org/) -->
<svg height="756pt" version="1.1" viewBox="0 0 1224 756" width="1224pt" xmlns="http://www.w3.org/2000/svg" xmlns:xlink="http://www.w3.org/1999/xlink">
 <defs>
  <style type="text/css">
*{stroke-linecap:butt;stroke-linejoin:round;}
  </style>
 </defs>
 <g id="figure_1">
  <g id="patch_1">
   <path d="M 0 756 
L 1224 756 
L 1224 0 
L 0 0 
z
" style="fill:#ffffff;"/>
  </g>
  <g id="axes_1">
   <g id="patch_2">
    <path d="M 153 661.5 
L 291.608219 661.5 
L 291.608219 522.402353 
L 153 522.402353 
z
" style="fill:#ffffff;"/>
   </g>
   <g id="patch_3">
    <path clip-path="url(#p377e538374)" d="M 286.474581 658.172305 
L 164.245111 658.172305 
L 164.245111 638.206136 
L 286.474581 638.206136 
z
" style="fill:#404040;"/>
   </g>
   <g id="patch_4">
    <path clip-path="url(#p377e538374)" d="M 286.474581 624.895356 
L 210.421114 624.895356 
L 210.421114 604.929187 
L 286.474581 604.929187 
z
" style="fill:#404040;"/>
   </g>
   <g id="patch_5">
    <path clip-path="url(#p377e538374)" d="M 286.474581 591.618407 
L 230.144419 591.618407 
L 230.144419 571.652238 
L 286.474581 571.652238 
z
" style="fill:#404040;"/>
   </g>
   <g id="patch_6">
    <path clip-path="url(#p377e538374)" d="M 286.474581 558.341458 
L 255.399233 558.341458 
L 255.399233 538.375288 
L 286.474581 538.375288 
z
" style="fill:#404040;"/>
   </g>
   <g id="matplotlib.axis_1">
    <g id="xtick_1">
     <g id="line2d_1">
      <defs>
       <path d="M 0 0 
L 0 3.5 
" id="md117e51d60" style="stroke:#000000;stroke-width:0.8;"/>
      </defs>
      <g>
       <use style="stroke:#000000;stroke-width:0.8;" x="286.474581" xlink:href="#md117e51d60" y="661.5"/>
      </g>
     </g>
     <g id="text_1">
      <!-- 0 -->
      <defs>
       <path d="M 31.78125 66.40625 
Q 24.171875 66.40625 20.328125 58.90625 
Q 16.5 51.421875 16.5 36.375 
Q 16.5 21.390625 20.328125 13.890625 
Q 24.171875 6.390625 31.78125 6.390625 
Q 39.453125 6.390625 43.28125 13.890625 
Q 47.125 21.390625 47.125 36.375 
Q 47.125 51.421875 43.28125 58.90625 
Q 39.453125 66.40625 31.78125 66.40625 
z
M 31.78125 74.21875 
Q 44.046875 74.21875 50.515625 64.515625 
Q 56.984375 54.828125 56.984375 36.375 
Q 56.984375 17.96875 50.515625 8.265625 
Q 44.046875 -1.421875 31.78125 -1.421875 
Q 19.53125 -1.421875 13.0625 8.265625 
Q 6.59375 17.96875 6.59375 36.375 
Q 6.59375 54.828125 13.0625 64.515625 
Q 19.53125 74.21875 31.78125 74.21875 
z
" id="DejaVuSans-30"/>
      </defs>
      <g transform="translate(283.293331 676.098437)scale(0.1 -0.1)">
       <use xlink:href="#DejaVuSans-30"/>
      </g>
     </g>
    </g>
    <g id="xtick_2">
     <g id="line2d_2">
      <g>
       <use style="stroke:#000000;stroke-width:0.8;" x="251.652363" xlink:href="#md117e51d60" y="661.5"/>
      </g>
     </g>
     <g id="text_2">
      <!-- 2 -->
      <defs>
       <path d="M 19.1875 8.296875 
L 53.609375 8.296875 
L 53.609375 0 
L 7.328125 0 
L 7.328125 8.296875 
Q 12.9375 14.109375 22.625 23.890625 
Q 32.328125 33.6875 34.8125 36.53125 
Q 39.546875 41.84375 41.421875 45.53125 
Q 43.3125 49.21875 43.3125 52.78125 
Q 43.3125 58.59375 39.234375 62.25 
Q 35.15625 65.921875 28.609375 65.921875 
Q 23.96875 65.921875 18.8125 64.3125 
Q 13.671875 62.703125 7.8125 59.421875 
L 7.8125 69.390625 
Q 13.765625 71.78125 18.9375 73 
Q 24.125 74.21875 28.421875 74.21875 
Q 39.75 74.21875 46.484375 68.546875 
Q 53.21875 62.890625 53.21875 53.421875 
Q 53.21875 48.921875 51.53125 44.890625 
Q 49.859375 40.875 45.40625 35.40625 
Q 44.1875 33.984375 37.640625 27.21875 
Q 31.109375 20.453125 19.1875 8.296875 
z
" id="DejaVuSans-32"/>
      </defs>
      <g transform="translate(248.471113 676.098437)scale(0.1 -0.1)">
       <use xlink:href="#DejaVuSans-32"/>
      </g>
     </g>
    </g>
    <g id="xtick_3">
     <g id="line2d_3">
      <g>
       <use style="stroke:#000000;stroke-width:0.8;" x="216.830144" xlink:href="#md117e51d60" y="661.5"/>
      </g>
     </g>
     <g id="text_3">
      <!-- 4 -->
      <defs>
       <path d="M 37.796875 64.3125 
L 12.890625 25.390625 
L 37.796875 25.390625 
z
M 35.203125 72.90625 
L 47.609375 72.90625 
L 47.609375 25.390625 
L 58.015625 25.390625 
L 58.015625 17.1875 
L 47.609375 17.1875 
L 47.609375 0 
L 37.796875 0 
L 37.796875 17.1875 
L 4.890625 17.1875 
L 4.890625 26.703125 
z
" id="DejaVuSans-34"/>
      </defs>
      <g transform="translate(213.648894 676.098437)scale(0.1 -0.1)">
       <use xlink:href="#DejaVuSans-34"/>
      </g>
     </g>
    </g>
    <g id="xtick_4">
     <g id="line2d_4">
      <g>
       <use style="stroke:#000000;stroke-width:0.8;" x="182.007925" xlink:href="#md117e51d60" y="661.5"/>
      </g>
     </g>
     <g id="text_4">
      <!-- 6 -->
      <defs>
       <path d="M 33.015625 40.375 
Q 26.375 40.375 22.484375 35.828125 
Q 18.609375 31.296875 18.609375 23.390625 
Q 18.609375 15.53125 22.484375 10.953125 
Q 26.375 6.390625 33.015625 6.390625 
Q 39.65625 6.390625 43.53125 10.953125 
Q 47.40625 15.53125 47.40625 23.390625 
Q 47.40625 31.296875 43.53125 35.828125 
Q 39.65625 40.375 33.015625 40.375 
z
M 52.59375 71.296875 
L 52.59375 62.3125 
Q 48.875 64.0625 45.09375 64.984375 
Q 41.3125 65.921875 37.59375 65.921875 
Q 27.828125 65.921875 22.671875 59.328125 
Q 17.53125 52.734375 16.796875 39.40625 
Q 19.671875 43.65625 24.015625 45.921875 
Q 28.375 48.1875 33.59375 48.1875 
Q 44.578125 48.1875 50.953125 41.515625 
Q 57.328125 34.859375 57.328125 23.390625 
Q 57.328125 12.15625 50.6875 5.359375 
Q 44.046875 -1.421875 33.015625 -1.421875 
Q 20.359375 -1.421875 13.671875 8.265625 
Q 6.984375 17.96875 6.984375 36.375 
Q 6.984375 53.65625 15.1875 63.9375 
Q 23.390625 74.21875 37.203125 74.21875 
Q 40.921875 74.21875 44.703125 73.484375 
Q 48.484375 72.75 52.59375 71.296875 
z
" id="DejaVuSans-36"/>
      </defs>
      <g transform="translate(178.826675 676.098437)scale(0.1 -0.1)">
       <use xlink:href="#DejaVuSans-36"/>
      </g>
     </g>
    </g>
    <g id="text_5">
     <!-- Set size -->
     <defs>
      <path d="M 59.90625 70.609375 
L 59.90625 55.171875 
Q 53.90625 57.859375 48.1875 59.21875 
Q 42.484375 60.59375 37.40625 60.59375 
Q 30.671875 60.59375 27.4375 58.734375 
Q 24.21875 56.890625 24.21875 52.984375 
Q 24.21875 50.046875 26.390625 48.40625 
Q 28.5625 46.78125 34.28125 45.609375 
L 42.28125 44 
Q 54.4375 41.546875 59.5625 36.5625 
Q 64.703125 31.59375 64.703125 22.40625 
Q 64.703125 10.359375 57.546875 4.46875 
Q 50.390625 -1.421875 35.6875 -1.421875 
Q 28.765625 -1.421875 21.78125 -0.09375 
Q 14.796875 1.21875 7.8125 3.8125 
L 7.8125 19.671875 
Q 14.796875 15.96875 21.3125 14.078125 
Q 27.828125 12.203125 33.890625 12.203125 
Q 40.046875 12.203125 43.3125 14.25 
Q 46.578125 16.3125 46.578125 20.125 
Q 46.578125 23.53125 44.359375 25.390625 
Q 42.140625 27.25 35.5 28.71875 
L 28.21875 30.328125 
Q 17.28125 32.671875 12.21875 37.796875 
Q 7.171875 42.921875 7.171875 51.609375 
Q 7.171875 62.5 14.203125 68.359375 
Q 21.234375 74.21875 34.421875 74.21875 
Q 40.4375 74.21875 46.78125 73.3125 
Q 53.125 72.40625 59.90625 70.609375 
z
" id="DejaVuSans-Bold-53"/>
      <path d="M 62.984375 27.484375 
L 62.984375 22.515625 
L 22.125 22.515625 
Q 22.75 16.359375 26.5625 13.28125 
Q 30.375 10.203125 37.203125 10.203125 
Q 42.71875 10.203125 48.5 11.84375 
Q 54.296875 13.484375 60.40625 16.796875 
L 60.40625 3.328125 
Q 54.203125 0.984375 48 -0.21875 
Q 41.796875 -1.421875 35.59375 -1.421875 
Q 20.75 -1.421875 12.515625 6.125 
Q 4.296875 13.671875 4.296875 27.296875 
Q 4.296875 40.671875 12.375 48.328125 
Q 20.453125 56 34.625 56 
Q 47.515625 56 55.25 48.234375 
Q 62.984375 40.484375 62.984375 27.484375 
z
M 45.015625 33.296875 
Q 45.015625 38.28125 42.109375 41.328125 
Q 39.203125 44.390625 34.515625 44.390625 
Q 29.4375 44.390625 26.265625 41.53125 
Q 23.09375 38.671875 22.3125 33.296875 
z
" id="DejaVuSans-Bold-65"/>
      <path d="M 27.484375 70.21875 
L 27.484375 54.6875 
L 45.515625 54.6875 
L 45.515625 42.1875 
L 27.484375 42.1875 
L 27.484375 19 
Q 27.484375 15.1875 29 13.84375 
Q 30.515625 12.5 35.015625 12.5 
L 44 12.5 
L 44 0 
L 29 0 
Q 18.65625 0 14.328125 4.3125 
Q 10.015625 8.640625 10.015625 19 
L 10.015625 42.1875 
L 1.3125 42.1875 
L 1.3125 54.6875 
L 10.015625 54.6875 
L 10.015625 70.21875 
z
" id="DejaVuSans-Bold-74"/>
      <path id="DejaVuSans-Bold-20"/>
      <path d="M 51.125 52.984375 
L 51.125 39.703125 
Q 45.515625 42.046875 40.28125 43.21875 
Q 35.0625 44.390625 30.421875 44.390625 
Q 25.4375 44.390625 23.015625 43.140625 
Q 20.609375 41.890625 20.609375 39.3125 
Q 20.609375 37.203125 22.4375 36.078125 
Q 24.265625 34.96875 29 34.421875 
L 32.078125 33.984375 
Q 45.515625 32.28125 50.140625 28.375 
Q 54.78125 24.46875 54.78125 16.109375 
Q 54.78125 7.375 48.328125 2.96875 
Q 41.890625 -1.421875 29.109375 -1.421875 
Q 23.6875 -1.421875 17.890625 -0.5625 
Q 12.109375 0.296875 6 2 
L 6 15.28125 
Q 11.234375 12.75 16.71875 11.46875 
Q 22.21875 10.203125 27.875 10.203125 
Q 33.015625 10.203125 35.59375 11.609375 
Q 38.1875 13.03125 38.1875 15.828125 
Q 38.1875 18.171875 36.40625 19.3125 
Q 34.625 20.453125 29.296875 21.09375 
L 26.21875 21.484375 
Q 14.546875 22.953125 9.859375 26.90625 
Q 5.171875 30.859375 5.171875 38.921875 
Q 5.171875 47.609375 11.125 51.796875 
Q 17.09375 56 29.390625 56 
Q 34.234375 56 39.546875 55.265625 
Q 44.875 54.546875 51.125 52.984375 
z
" id="DejaVuSans-Bold-73"/>
      <path d="M 8.40625 54.6875 
L 25.875 54.6875 
L 25.875 0 
L 8.40625 0 
z
M 8.40625 75.984375 
L 25.875 75.984375 
L 25.875 61.71875 
L 8.40625 61.71875 
z
" id="DejaVuSans-Bold-69"/>
      <path d="M 5.71875 54.6875 
L 53.421875 54.6875 
L 53.421875 42.484375 
L 24.609375 12.5 
L 53.421875 12.5 
L 53.421875 0 
L 4.5 0 
L 4.5 12.203125 
L 33.296875 42.1875 
L 5.71875 42.1875 
z
" id="DejaVuSans-Bold-7a"/>
     </defs>
     <g transform="translate(193.555828 692.056094)scale(0.13 -0.13)">
      <use xlink:href="#DejaVuSans-Bold-53"/>
      <use x="72.021484" xlink:href="#DejaVuSans-Bold-65"/>
      <use x="139.84375" xlink:href="#DejaVuSans-Bold-74"/>
      <use x="187.646484" xlink:href="#DejaVuSans-Bold-20"/>
      <use x="222.460938" xlink:href="#DejaVuSans-Bold-73"/>
      <use x="281.982422" xlink:href="#DejaVuSans-Bold-69"/>
      <use x="316.259766" xlink:href="#DejaVuSans-Bold-7a"/>
      <use x="374.462891" xlink:href="#DejaVuSans-Bold-65"/>
     </g>
    </g>
    <g id="text_6">
     <!-- 1e4 -->
     <defs>
      <path d="M 12.40625 8.296875 
L 28.515625 8.296875 
L 28.515625 63.921875 
L 10.984375 60.40625 
L 10.984375 69.390625 
L 28.421875 72.90625 
L 38.28125 72.90625 
L 38.28125 8.296875 
L 54.390625 8.296875 
L 54.390625 0 
L 12.40625 0 
z
" id="DejaVuSans-31"/>
      <path d="M 56.203125 29.59375 
L 56.203125 25.203125 
L 14.890625 25.203125 
Q 15.484375 15.921875 20.484375 11.0625 
Q 25.484375 6.203125 34.421875 6.203125 
Q 39.59375 6.203125 44.453125 7.46875 
Q 49.3125 8.734375 54.109375 11.28125 
L 54.109375 2.78125 
Q 49.265625 0.734375 44.1875 -0.34375 
Q 39.109375 -1.421875 33.890625 -1.421875 
Q 20.796875 -1.421875 13.15625 6.1875 
Q 5.515625 13.8125 5.515625 26.8125 
Q 5.515625 40.234375 12.765625 48.109375 
Q 20.015625 56 32.328125 56 
Q 43.359375 56 49.78125 48.890625 
Q 56.203125 41.796875 56.203125 29.59375 
z
M 47.21875 32.234375 
Q 47.125 39.59375 43.09375 43.984375 
Q 39.0625 48.390625 32.421875 48.390625 
Q 24.90625 48.390625 20.390625 44.140625 
Q 15.875 39.890625 15.1875 32.171875 
z
" id="DejaVuSans-65"/>
     </defs>
     <g transform="translate(272.730094 688.776562)scale(0.1 -0.1)">
      <use xlink:href="#DejaVuSans-31"/>
      <use x="63.623047" xlink:href="#DejaVuSans-65"/>
      <use x="125.146484" xlink:href="#DejaVuSans-34"/>
     </g>
    </g>
   </g>
   <g id="matplotlib.axis_2">
    <g id="ytick_1"/>
    <g id="ytick_2"/>
    <g id="ytick_3"/>
    <g id="ytick_4"/>
   </g>
   <g id="patch_7">
    <path d="M 153 661.5 
L 291.608219 661.5 
" style="fill:none;stroke:#000000;stroke-linecap:square;stroke-linejoin:miter;stroke-width:0.8;"/>
   </g>
  </g>
  <g id="axes_2">
   <g id="text_7">
    <g clip-path="url(#p65cf77b785)">
     <!-- AtRTD2 -->
     <defs>
      <path d="M 30.078125 64.203125 
L 19.671875 26.90625 
L 40.484375 26.90625 
z
M 24.125 72.90625 
L 36.078125 72.90625 
L 58.40625 0 
L 48.1875 0 
L 42.828125 19 
L 17.28125 19 
L 12.015625 0 
L 1.8125 0 
z
" id="DejaVuSansMono-41"/>
      <path d="M 29.984375 70.21875 
L 29.984375 54.6875 
L 50.390625 54.6875 
L 50.390625 47.703125 
L 29.984375 47.703125 
L 29.984375 18.015625 
Q 29.984375 11.96875 32.28125 9.5625 
Q 34.578125 7.171875 40.28125 7.171875 
L 50.390625 7.171875 
L 50.390625 0 
L 39.40625 0 
Q 29.296875 0 25.140625 4.046875 
Q 21 8.109375 21 18.015625 
L 21 47.703125 
L 6.390625 47.703125 
L 6.390625 54.6875 
L 21 54.6875 
L 21 70.21875 
z
" id="DejaVuSansMono-74"/>
      <path d="M 37.109375 34.421875 
Q 40.921875 33.453125 43.609375 30.734375 
Q 46.296875 28.03125 50.296875 19.921875 
L 60.203125 0 
L 49.609375 0 
L 40.921875 18.40625 
Q 37.15625 26.265625 34.15625 28.53125 
Q 31.15625 30.8125 26.3125 30.8125 
L 16.890625 30.8125 
L 16.890625 0 
L 6.984375 0 
L 6.984375 72.90625 
L 27.296875 72.90625 
Q 39.3125 72.90625 45.703125 67.484375 
Q 52.09375 62.0625 52.09375 51.8125 
Q 52.09375 44.578125 48.15625 40.015625 
Q 44.234375 35.453125 37.109375 34.421875 
z
M 16.890625 64.796875 
L 16.890625 38.921875 
L 27.6875 38.921875 
Q 34.765625 38.921875 38.234375 42.09375 
Q 41.703125 45.265625 41.703125 51.8125 
Q 41.703125 58.109375 38.015625 61.453125 
Q 34.328125 64.796875 27.296875 64.796875 
z
" id="DejaVuSansMono-52"/>
      <path d="M 2.296875 72.90625 
L 57.90625 72.90625 
L 57.90625 64.59375 
L 35.109375 64.59375 
L 35.109375 0 
L 25.203125 0 
L 25.203125 64.59375 
L 2.296875 64.59375 
z
" id="DejaVuSansMono-54"/>
      <path d="M 21.296875 8.109375 
Q 33.734375 8.109375 38.671875 14.234375 
Q 43.609375 20.359375 43.609375 36.375 
Q 43.609375 52.546875 38.703125 58.671875 
Q 33.796875 64.796875 21.296875 64.796875 
L 16.609375 64.796875 
L 16.609375 8.109375 
z
M 21.484375 72.90625 
Q 38.1875 72.90625 46.09375 64.015625 
Q 54 55.125 54 36.375 
Q 54 17.71875 46.09375 8.859375 
Q 38.1875 0 21.484375 0 
L 6.6875 0 
L 6.6875 72.90625 
z
" id="DejaVuSansMono-44"/>
      <path d="M 18.21875 8.296875 
L 51.703125 8.296875 
L 51.703125 0 
L 7.421875 0 
L 7.421875 8.296875 
Q 16.546875 17.921875 23.375 25.296875 
Q 30.21875 32.671875 32.8125 35.6875 
Q 37.703125 41.65625 39.40625 45.34375 
Q 41.109375 49.03125 41.109375 52.875 
Q 41.109375 58.984375 37.515625 62.453125 
Q 33.9375 65.921875 27.6875 65.921875 
Q 23.25 65.921875 18.359375 64.3125 
Q 13.484375 62.703125 8.015625 59.421875 
L 8.015625 69.390625 
Q 13.03125 71.78125 17.890625 73 
Q 22.75 74.21875 27.484375 74.21875 
Q 38.1875 74.21875 44.703125 68.53125 
Q 51.21875 62.84375 51.21875 53.609375 
Q 51.21875 48.921875 49.046875 44.234375 
Q 46.875 39.546875 42 33.890625 
Q 39.265625 30.71875 34.0625 25.09375 
Q 28.859375 19.484375 18.21875 8.296875 
z
" id="DejaVuSansMono-32"/>
     </defs>
     <g transform="translate(336.330745 642.106448)scale(0.14 -0.14)">
      <use xlink:href="#DejaVuSansMono-41"/>
      <use x="60.205078" xlink:href="#DejaVuSansMono-74"/>
      <use x="120.410156" xlink:href="#DejaVuSansMono-52"/>
      <use x="180.615234" xlink:href="#DejaVuSansMono-54"/>
      <use x="240.820312" xlink:href="#DejaVuSansMono-44"/>
      <use x="301.025391" xlink:href="#DejaVuSansMono-32"/>
     </g>
    </g>
   </g>
   <g id="text_8">
    <g clip-path="url(#p65cf77b785)">
     <!-- Araport 11 -->
     <defs>
      <path d="M 56.390625 43.40625 
Q 53.515625 45.65625 50.53125 46.671875 
Q 47.5625 47.703125 44 47.703125 
Q 35.59375 47.703125 31.140625 42.421875 
Q 26.703125 37.15625 26.703125 27.203125 
L 26.703125 0 
L 17.671875 0 
L 17.671875 54.6875 
L 26.703125 54.6875 
L 26.703125 44 
Q 28.953125 49.8125 33.609375 52.90625 
Q 38.28125 56 44.671875 56 
Q 48 56 50.875 55.171875 
Q 53.765625 54.34375 56.390625 52.59375 
z
" id="DejaVuSansMono-72"/>
      <path d="M 34.28125 27.484375 
L 31.296875 27.484375 
Q 23.4375 27.484375 19.453125 24.71875 
Q 15.484375 21.96875 15.484375 16.5 
Q 15.484375 11.578125 18.453125 8.84375 
Q 21.4375 6.109375 26.703125 6.109375 
Q 34.125 6.109375 38.375 11.25 
Q 42.625 16.40625 42.671875 25.484375 
L 42.671875 27.484375 
z
M 51.703125 31.203125 
L 51.703125 0 
L 42.671875 0 
L 42.671875 8.109375 
Q 39.796875 3.21875 35.421875 0.890625 
Q 31.0625 -1.421875 24.8125 -1.421875 
Q 16.453125 -1.421875 11.46875 3.296875 
Q 6.5 8.015625 6.5 15.921875 
Q 6.5 25.046875 12.625 29.78125 
Q 18.75 34.515625 30.609375 34.515625 
L 42.671875 34.515625 
L 42.671875 35.9375 
Q 42.625 42.484375 39.34375 45.4375 
Q 36.078125 48.390625 28.90625 48.390625 
Q 24.3125 48.390625 19.625 47.0625 
Q 14.9375 45.75 10.5 43.21875 
L 10.5 52.203125 
Q 15.484375 54.109375 20.046875 55.046875 
Q 24.609375 56 28.90625 56 
Q 35.6875 56 40.5 54 
Q 45.3125 52 48.296875 48 
Q 50.140625 45.5625 50.921875 41.96875 
Q 51.703125 38.375 51.703125 31.203125 
z
" id="DejaVuSansMono-61"/>
      <path d="M 18.3125 6.890625 
L 18.3125 -20.796875 
L 9.28125 -20.796875 
L 9.28125 54.6875 
L 18.3125 54.6875 
L 18.3125 47.703125 
Q 20.5625 51.765625 24.296875 53.875 
Q 28.03125 56 32.90625 56 
Q 42.828125 56 48.46875 48.328125 
Q 54.109375 40.671875 54.109375 27.09375 
Q 54.109375 13.765625 48.4375 6.171875 
Q 42.78125 -1.421875 32.90625 -1.421875 
Q 27.9375 -1.421875 24.1875 0.703125 
Q 20.453125 2.828125 18.3125 6.890625 
z
M 44.671875 27.296875 
Q 44.671875 37.75 41.375 43.0625 
Q 38.09375 48.390625 31.59375 48.390625 
Q 25.046875 48.390625 21.671875 43.046875 
Q 18.3125 37.703125 18.3125 27.296875 
Q 18.3125 16.9375 21.671875 11.5625 
Q 25.046875 6.203125 31.59375 6.203125 
Q 38.09375 6.203125 41.375 11.515625 
Q 44.671875 16.84375 44.671875 27.296875 
z
" id="DejaVuSansMono-70"/>
      <path d="M 30.078125 48.390625 
Q 23.25 48.390625 19.734375 43.0625 
Q 16.21875 37.75 16.21875 27.296875 
Q 16.21875 16.890625 19.734375 11.546875 
Q 23.25 6.203125 30.078125 6.203125 
Q 36.96875 6.203125 40.484375 11.546875 
Q 44 16.890625 44 27.296875 
Q 44 37.75 40.484375 43.0625 
Q 36.96875 48.390625 30.078125 48.390625 
z
M 30.078125 56 
Q 41.453125 56 47.484375 48.625 
Q 53.515625 41.265625 53.515625 27.296875 
Q 53.515625 13.28125 47.5 5.921875 
Q 41.5 -1.421875 30.078125 -1.421875 
Q 18.703125 -1.421875 12.6875 5.921875 
Q 6.6875 13.28125 6.6875 27.296875 
Q 6.6875 41.265625 12.6875 48.625 
Q 18.703125 56 30.078125 56 
z
" id="DejaVuSansMono-6f"/>
      <path id="DejaVuSansMono-20"/>
      <path d="M 13.1875 8.296875 
L 28.515625 8.296875 
L 28.515625 64.015625 
L 12.015625 60.296875 
L 12.015625 69.28125 
L 28.421875 72.90625 
L 38.28125 72.90625 
L 38.28125 8.296875 
L 53.421875 8.296875 
L 53.421875 0 
L 13.1875 0 
z
" id="DejaVuSansMono-31"/>
     </defs>
     <g transform="translate(302.616995 608.829499)scale(0.14 -0.14)">
      <use xlink:href="#DejaVuSansMono-41"/>
      <use x="60.205078" xlink:href="#DejaVuSansMono-72"/>
      <use x="120.410156" xlink:href="#DejaVuSansMono-61"/>
      <use x="180.615234" xlink:href="#DejaVuSansMono-70"/>
      <use x="240.820312" xlink:href="#DejaVuSansMono-6f"/>
      <use x="301.025391" xlink:href="#DejaVuSansMono-72"/>
      <use x="361.230469" xlink:href="#DejaVuSansMono-74"/>
      <use x="421.435547" xlink:href="#DejaVuSansMono-20"/>
      <use x="481.640625" xlink:href="#DejaVuSansMono-31"/>
      <use x="541.845703" xlink:href="#DejaVuSansMono-31"/>
     </g>
    </g>
   </g>
   <g id="text_9">
    <g clip-path="url(#p65cf77b785)">
     <!-- ONT DRS -->
     <defs>
      <path d="M 44.1875 36.375 
Q 44.1875 52.4375 40.890625 59.328125 
Q 37.59375 66.21875 30.078125 66.21875 
Q 22.609375 66.21875 19.3125 59.328125 
Q 16.015625 52.4375 16.015625 36.375 
Q 16.015625 20.359375 19.3125 13.46875 
Q 22.609375 6.59375 30.078125 6.59375 
Q 37.59375 6.59375 40.890625 13.453125 
Q 44.1875 20.3125 44.1875 36.375 
z
M 54.5 36.375 
Q 54.5 17.328125 48.46875 7.953125 
Q 42.4375 -1.421875 30.078125 -1.421875 
Q 17.71875 -1.421875 11.71875 7.90625 
Q 5.71875 17.234375 5.71875 36.375 
Q 5.71875 55.46875 11.75 64.84375 
Q 17.78125 74.21875 30.078125 74.21875 
Q 42.4375 74.21875 48.46875 64.84375 
Q 54.5 55.46875 54.5 36.375 
z
" id="DejaVuSansMono-4f"/>
      <path d="M 6.78125 72.90625 
L 19.28125 72.90625 
L 43.890625 12.890625 
L 43.890625 72.90625 
L 53.421875 72.90625 
L 53.421875 0 
L 40.921875 0 
L 16.3125 60.015625 
L 16.3125 0 
L 6.78125 0 
z
" id="DejaVuSansMono-4e"/>
      <path d="M 49.421875 70.40625 
L 49.421875 60.40625 
Q 44.921875 63.28125 40.40625 64.75 
Q 35.890625 66.21875 31.296875 66.21875 
Q 24.3125 66.21875 20.265625 62.96875 
Q 16.21875 59.71875 16.21875 54.203125 
Q 16.21875 49.359375 18.875 46.8125 
Q 21.53125 44.28125 28.8125 42.578125 
L 33.984375 41.40625 
Q 44.234375 39.015625 48.921875 33.890625 
Q 53.609375 28.765625 53.609375 19.921875 
Q 53.609375 9.515625 47.15625 4.046875 
Q 40.71875 -1.421875 28.421875 -1.421875 
Q 23.296875 -1.421875 18.109375 -0.3125 
Q 12.9375 0.78125 7.71875 2.984375 
L 7.71875 13.484375 
Q 13.328125 9.90625 18.328125 8.25 
Q 23.34375 6.59375 28.421875 6.59375 
Q 35.890625 6.59375 40.03125 9.9375 
Q 44.1875 13.28125 44.1875 19.28125 
Q 44.1875 24.75 41.328125 27.625 
Q 38.484375 30.515625 31.390625 32.078125 
L 26.125 33.296875 
Q 15.96875 35.59375 11.375 40.234375 
Q 6.78125 44.875 6.78125 52.6875 
Q 6.78125 62.453125 13.34375 68.328125 
Q 19.921875 74.21875 30.8125 74.21875 
Q 35.015625 74.21875 39.640625 73.265625 
Q 44.28125 72.3125 49.421875 70.40625 
z
" id="DejaVuSansMono-53"/>
     </defs>
     <g transform="translate(327.902307 575.55255)scale(0.14 -0.14)">
      <use xlink:href="#DejaVuSansMono-4f"/>
      <use x="60.205078" xlink:href="#DejaVuSansMono-4e"/>
      <use x="120.410156" xlink:href="#DejaVuSansMono-54"/>
      <use x="180.615234" xlink:href="#DejaVuSansMono-20"/>
      <use x="240.820312" xlink:href="#DejaVuSansMono-44"/>
      <use x="301.025391" xlink:href="#DejaVuSansMono-52"/>
      <use x="361.230469" xlink:href="#DejaVuSansMono-53"/>
     </g>
    </g>
   </g>
   <g id="text_10">
    <g clip-path="url(#p65cf77b785)">
     <!-- EC ONT DRS -->
     <defs>
      <path d="M 9.625 72.90625 
L 52.875 72.90625 
L 52.875 64.59375 
L 19.484375 64.59375 
L 19.484375 43.015625 
L 51.421875 43.015625 
L 51.421875 34.71875 
L 19.484375 34.71875 
L 19.484375 8.296875 
L 53.8125 8.296875 
L 53.8125 0 
L 9.625 0 
z
" id="DejaVuSansMono-45"/>
      <path d="M 52.390625 2.59375 
Q 48.640625 0.59375 44.671875 -0.40625 
Q 40.71875 -1.421875 36.28125 -1.421875 
Q 22.265625 -1.421875 14.515625 8.484375 
Q 6.78125 18.40625 6.78125 36.375 
Q 6.78125 54.25 14.5625 64.234375 
Q 22.359375 74.21875 36.28125 74.21875 
Q 40.71875 74.21875 44.671875 73.21875 
Q 48.640625 72.21875 52.390625 70.21875 
L 52.390625 60.109375 
Q 48.78125 63.09375 44.625 64.65625 
Q 40.484375 66.21875 36.28125 66.21875 
Q 26.65625 66.21875 21.875 58.796875 
Q 17.09375 51.375 17.09375 36.375 
Q 17.09375 21.4375 21.875 14.015625 
Q 26.65625 6.59375 36.28125 6.59375 
Q 40.578125 6.59375 44.703125 8.15625 
Q 48.828125 9.71875 52.390625 12.703125 
z
" id="DejaVuSansMono-43"/>
     </defs>
     <g transform="translate(302.616995 542.275601)scale(0.14 -0.14)">
      <use xlink:href="#DejaVuSansMono-45"/>
      <use x="60.205078" xlink:href="#DejaVuSansMono-43"/>
      <use x="120.410156" xlink:href="#DejaVuSansMono-20"/>
      <use x="180.615234" xlink:href="#DejaVuSansMono-4f"/>
      <use x="240.820312" xlink:href="#DejaVuSansMono-4e"/>
      <use x="301.025391" xlink:href="#DejaVuSansMono-54"/>
      <use x="361.230469" xlink:href="#DejaVuSansMono-20"/>
      <use x="421.435547" xlink:href="#DejaVuSansMono-44"/>
      <use x="481.640625" xlink:href="#DejaVuSansMono-52"/>
      <use x="541.845703" xlink:href="#DejaVuSansMono-53"/>
     </g>
    </g>
   </g>
  </g>
  <g id="axes_3">
   <g id="patch_8">
    <path d="M 391.232877 661.5 
L 1101.6 661.5 
L 1101.6 522.402353 
L 391.232877 522.402353 
z
" style="fill:#ffffff;"/>
   </g>
   <g id="patch_9">
    <path clip-path="url(#p061611fbfa)" d="M 391.232877 654.84461 
L 1091.579147 654.84461 
L 1091.579147 621.567661 
L 391.232877 621.567661 
z
" style="fill:#f4f4f4;stroke:#f4f4f4;stroke-linejoin:miter;"/>
   </g>
   <g id="patch_10">
    <path clip-path="url(#p061611fbfa)" d="M 391.232877 588.290712 
L 1091.579147 588.290712 
L 1091.579147 555.013763 
L 391.232877 555.013763 
z
" style="fill:#f4f4f4;stroke:#f4f4f4;stroke-linejoin:miter;"/>
   </g>
   <g id="PathCollection_1">
    <defs>
     <path d="M 0 8.660254 
C 2.296726 8.660254 4.499694 7.747755 6.123724 6.123724 
C 7.747755 4.499694 8.660254 2.296726 8.660254 0 
C 8.660254 -2.296726 7.747755 -4.499694 6.123724 -6.123724 
C 4.499694 -7.747755 2.296726 -8.660254 0 -8.660254 
C -2.296726 -8.660254 -4.499694 -7.747755 -6.123724 -6.123724 
C -7.747755 -4.499694 -8.660254 -2.296726 -8.660254 0 
C -8.660254 2.296726 -7.747755 4.499694 -6.123724 6.123724 
C -4.499694 7.747755 -2.296726 8.660254 0 8.660254 
z
" id="m11a3280085" style="stroke:#404040;"/>
    </defs>
    <g clip-path="url(#p061611fbfa)">
     <use style="fill:#404040;stroke:#404040;" x="445.790853" xlink:href="#m11a3280085" y="638.206136"/>
    </g>
   </g>
   <g id="PathCollection_2">
    <defs>
     <path d="M 0 8.660254 
C 2.296726 8.660254 4.499694 7.747755 6.123724 6.123724 
C 7.747755 4.499694 8.660254 2.296726 8.660254 0 
C 8.660254 -2.296726 7.747755 -4.499694 6.123724 -6.123724 
C 4.499694 -7.747755 2.296726 -8.660254 0 -8.660254 
C -2.296726 -8.660254 -4.499694 -7.747755 -6.123724 -6.123724 
C -7.747755 -4.499694 -8.660254 -2.296726 -8.660254 0 
C -8.660254 2.296726 -7.747755 4.499694 -6.123724 6.123724 
C -4.499694 7.747755 -2.296726 8.660254 0 8.660254 
z
" id="m960f95f256" style="stroke:#dfdfdf;"/>
    </defs>
    <g clip-path="url(#p061611fbfa)">
     <use style="fill:#dfdfdf;stroke:#dfdfdf;" x="445.790853" xlink:href="#m960f95f256" y="604.929187"/>
     <use style="fill:#dfdfdf;stroke:#dfdfdf;" x="445.790853" xlink:href="#m960f95f256" y="538.375288"/>
     <use style="fill:#dfdfdf;stroke:#dfdfdf;" x="445.790853" xlink:href="#m960f95f256" y="571.652238"/>
    </g>
   </g>
   <g id="PathCollection_3">
    <defs>
     <path d="M 0 8.660254 
C 2.296726 8.660254 4.499694 7.747755 6.123724 6.123724 
C 7.747755 4.499694 8.660254 2.296726 8.660254 0 
C 8.660254 -2.296726 7.747755 -4.499694 6.123724 -6.123724 
C 4.499694 -7.747755 2.296726 -8.660254 0 -8.660254 
C -2.296726 -8.660254 -4.499694 -7.747755 -6.123724 -6.123724 
C -7.747755 -4.499694 -8.660254 -2.296726 -8.660254 0 
C -8.660254 2.296726 -7.747755 4.499694 -6.123724 6.123724 
C -4.499694 7.747755 -2.296726 8.660254 0 8.660254 
z
" id="C0_0_9e681806f6"/>
    </defs>
    <g clip-path="url(#p061611fbfa)">
     <use style="fill:#404040;stroke:#404040;" x="490.327977" xlink:href="#C0_0_9e681806f6" y="638.206136"/>
    </g>
    <g clip-path="url(#p061611fbfa)">
     <use style="fill:#404040;stroke:#404040;" x="490.327977" xlink:href="#C0_0_9e681806f6" y="604.929187"/>
    </g>
   </g>
   <g id="PathCollection_4">
    <g clip-path="url(#p061611fbfa)">
     <use style="fill:#dfdfdf;stroke:#dfdfdf;" x="490.327977" xlink:href="#m960f95f256" y="538.375288"/>
     <use style="fill:#dfdfdf;stroke:#dfdfdf;" x="490.327977" xlink:href="#m960f95f256" y="571.652238"/>
    </g>
   </g>
   <g id="PathCollection_5">
    <g clip-path="url(#p061611fbfa)">
     <use style="fill:#404040;stroke:#404040;" x="534.865101" xlink:href="#m11a3280085" y="571.652238"/>
    </g>
   </g>
   <g id="PathCollection_6">
    <g clip-path="url(#p061611fbfa)">
     <use style="fill:#dfdfdf;stroke:#dfdfdf;" x="534.865101" xlink:href="#m960f95f256" y="638.206136"/>
     <use style="fill:#dfdfdf;stroke:#dfdfdf;" x="534.865101" xlink:href="#m960f95f256" y="538.375288"/>
     <use style="fill:#dfdfdf;stroke:#dfdfdf;" x="534.865101" xlink:href="#m960f95f256" y="604.929187"/>
    </g>
   </g>
   <g id="PathCollection_7">
    <defs>
     <path d="M 0 8.660254 
C 2.296726 8.660254 4.499694 7.747755 6.123724 6.123724 
C 7.747755 4.499694 8.660254 2.296726 8.660254 0 
C 8.660254 -2.296726 7.747755 -4.499694 6.123724 -6.123724 
C 4.499694 -7.747755 2.296726 -8.660254 0 -8.660254 
C -2.296726 -8.660254 -4.499694 -7.747755 -6.123724 -6.123724 
C -7.747755 -4.499694 -8.660254 -2.296726 -8.660254 0 
C -8.660254 2.296726 -7.747755 4.499694 -6.123724 6.123724 
C -4.499694 7.747755 -2.296726 8.660254 0 8.660254 
z
" id="C1_0_72f7b1bd6d"/>
    </defs>
    <g clip-path="url(#p061611fbfa)">
     <use style="fill:#7c06ff;stroke:#7c06ff;" x="579.402224" xlink:href="#C1_0_72f7b1bd6d" y="638.206136"/>
    </g>
    <g clip-path="url(#p061611fbfa)">
     <use style="fill:#7c06ff;stroke:#7c06ff;" x="579.402224" xlink:href="#C1_0_72f7b1bd6d" y="538.375288"/>
    </g>
    <g clip-path="url(#p061611fbfa)">
     <use style="fill:#7c06ff;stroke:#7c06ff;" x="579.402224" xlink:href="#C1_0_72f7b1bd6d" y="604.929187"/>
    </g>
    <g clip-path="url(#p061611fbfa)">
     <use style="fill:#7c06ff;stroke:#7c06ff;" x="579.402224" xlink:href="#C1_0_72f7b1bd6d" y="571.652238"/>
    </g>
   </g>
   <g id="PathCollection_8"/>
   <g id="PathCollection_9">
    <g clip-path="url(#p061611fbfa)">
     <use style="fill:#404040;stroke:#404040;" x="623.939348" xlink:href="#m11a3280085" y="538.375288"/>
    </g>
   </g>
   <g id="PathCollection_10">
    <g clip-path="url(#p061611fbfa)">
     <use style="fill:#dfdfdf;stroke:#dfdfdf;" x="623.939348" xlink:href="#m960f95f256" y="638.206136"/>
     <use style="fill:#dfdfdf;stroke:#dfdfdf;" x="623.939348" xlink:href="#m960f95f256" y="604.929187"/>
     <use style="fill:#dfdfdf;stroke:#dfdfdf;" x="623.939348" xlink:href="#m960f95f256" y="571.652238"/>
    </g>
   </g>
   <g id="PathCollection_11">
    <g clip-path="url(#p061611fbfa)">
     <use style="fill:#404040;stroke:#404040;" x="668.476472" xlink:href="#m11a3280085" y="604.929187"/>
    </g>
   </g>
   <g id="PathCollection_12">
    <g clip-path="url(#p061611fbfa)">
     <use style="fill:#dfdfdf;stroke:#dfdfdf;" x="668.476472" xlink:href="#m960f95f256" y="638.206136"/>
     <use style="fill:#dfdfdf;stroke:#dfdfdf;" x="668.476472" xlink:href="#m960f95f256" y="538.375288"/>
     <use style="fill:#dfdfdf;stroke:#dfdfdf;" x="668.476472" xlink:href="#m960f95f256" y="571.652238"/>
    </g>
   </g>
   <g id="PathCollection_13">
    <defs>
     <path d="M 0 8.660254 
C 2.296726 8.660254 4.499694 7.747755 6.123724 6.123724 
C 7.747755 4.499694 8.660254 2.296726 8.660254 0 
C 8.660254 -2.296726 7.747755 -4.499694 6.123724 -6.123724 
C 4.499694 -7.747755 2.296726 -8.660254 0 -8.660254 
C -2.296726 -8.660254 -4.499694 -7.747755 -6.123724 -6.123724 
C -7.747755 -4.499694 -8.660254 -2.296726 -8.660254 0 
C -8.660254 2.296726 -7.747755 4.499694 -6.123724 6.123724 
C -4.499694 7.747755 -2.296726 8.660254 0 8.660254 
z
" id="C2_0_ccb8982b6c"/>
    </defs>
    <g clip-path="url(#p061611fbfa)">
     <use style="fill:#ff0603;stroke:#ff0603;" x="713.013596" xlink:href="#C2_0_ccb8982b6c" y="538.375288"/>
    </g>
    <g clip-path="url(#p061611fbfa)">
     <use style="fill:#ff0603;stroke:#ff0603;" x="713.013596" xlink:href="#C2_0_ccb8982b6c" y="571.652238"/>
    </g>
   </g>
   <g id="PathCollection_14">
    <g clip-path="url(#p061611fbfa)">
     <use style="fill:#dfdfdf;stroke:#dfdfdf;" x="713.013596" xlink:href="#m960f95f256" y="638.206136"/>
     <use style="fill:#dfdfdf;stroke:#dfdfdf;" x="713.013596" xlink:href="#m960f95f256" y="604.929187"/>
    </g>
   </g>
   <g id="PathCollection_15">
    <defs>
     <path d="M 0 8.660254 
C 2.296726 8.660254 4.499694 7.747755 6.123724 6.123724 
C 7.747755 4.499694 8.660254 2.296726 8.660254 0 
C 8.660254 -2.296726 7.747755 -4.499694 6.123724 -6.123724 
C 4.499694 -7.747755 2.296726 -8.660254 0 -8.660254 
C -2.296726 -8.660254 -4.499694 -7.747755 -6.123724 -6.123724 
C -7.747755 -4.499694 -8.660254 -2.296726 -8.660254 0 
C -8.660254 2.296726 -7.747755 4.499694 -6.123724 6.123724 
C -4.499694 7.747755 -2.296726 8.660254 0 8.660254 
z
" id="C3_0_6692104b0e"/>
    </defs>
    <g clip-path="url(#p061611fbfa)">
     <use style="fill:#d2de81;stroke:#d2de81;" x="757.550719" xlink:href="#C3_0_6692104b0e" y="638.206136"/>
    </g>
    <g clip-path="url(#p061611fbfa)">
     <use style="fill:#d2de81;stroke:#d2de81;" x="757.550719" xlink:href="#C3_0_6692104b0e" y="538.375288"/>
    </g>
    <g clip-path="url(#p061611fbfa)">
     <use style="fill:#d2de81;stroke:#d2de81;" x="757.550719" xlink:href="#C3_0_6692104b0e" y="604.929187"/>
    </g>
   </g>
   <g id="PathCollection_16">
    <g clip-path="url(#p061611fbfa)">
     <use style="fill:#dfdfdf;stroke:#dfdfdf;" x="757.550719" xlink:href="#m960f95f256" y="571.652238"/>
    </g>
   </g>
   <g id="PathCollection_17">
    <defs>
     <path d="M 0 8.660254 
C 2.296726 8.660254 4.499694 7.747755 6.123724 6.123724 
C 7.747755 4.499694 8.660254 2.296726 8.660254 0 
C 8.660254 -2.296726 7.747755 -4.499694 6.123724 -6.123724 
C 4.499694 -7.747755 2.296726 -8.660254 0 -8.660254 
C -2.296726 -8.660254 -4.499694 -7.747755 -6.123724 -6.123724 
C -7.747755 -4.499694 -8.660254 -2.296726 -8.660254 0 
C -8.660254 2.296726 -7.747755 4.499694 -6.123724 6.123724 
C -4.499694 7.747755 -2.296726 8.660254 0 8.660254 
z
" id="C4_0_a279569218"/>
    </defs>
    <g clip-path="url(#p061611fbfa)">
     <use style="fill:#2ddedc;stroke:#2ddedc;" x="802.087843" xlink:href="#C4_0_a279569218" y="638.206136"/>
    </g>
    <g clip-path="url(#p061611fbfa)">
     <use style="fill:#2ddedc;stroke:#2ddedc;" x="802.087843" xlink:href="#C4_0_a279569218" y="604.929187"/>
    </g>
    <g clip-path="url(#p061611fbfa)">
     <use style="fill:#2ddedc;stroke:#2ddedc;" x="802.087843" xlink:href="#C4_0_a279569218" y="571.652238"/>
    </g>
   </g>
   <g id="PathCollection_18">
    <g clip-path="url(#p061611fbfa)">
     <use style="fill:#dfdfdf;stroke:#dfdfdf;" x="802.087843" xlink:href="#m960f95f256" y="538.375288"/>
    </g>
   </g>
   <g id="PathCollection_19">
    <defs>
     <path d="M 0 8.660254 
C 2.296726 8.660254 4.499694 7.747755 6.123724 6.123724 
C 7.747755 4.499694 8.660254 2.296726 8.660254 0 
C 8.660254 -2.296726 7.747755 -4.499694 6.123724 -6.123724 
C 4.499694 -7.747755 2.296726 -8.660254 0 -8.660254 
C -2.296726 -8.660254 -4.499694 -7.747755 -6.123724 -6.123724 
C -7.747755 -4.499694 -8.660254 -2.296726 -8.660254 0 
C -8.660254 2.296726 -7.747755 4.499694 -6.123724 6.123724 
C -4.499694 7.747755 -2.296726 8.660254 0 8.660254 
z
" id="C5_0_db123ba3c9"/>
    </defs>
    <g clip-path="url(#p061611fbfa)">
     <use style="fill:#64fbc3;stroke:#64fbc3;" x="846.624967" xlink:href="#C5_0_db123ba3c9" y="638.206136"/>
    </g>
    <g clip-path="url(#p061611fbfa)">
     <use style="fill:#64fbc3;stroke:#64fbc3;" x="846.624967" xlink:href="#C5_0_db123ba3c9" y="571.652238"/>
    </g>
   </g>
   <g id="PathCollection_20">
    <g clip-path="url(#p061611fbfa)">
     <use style="fill:#dfdfdf;stroke:#dfdfdf;" x="846.624967" xlink:href="#m960f95f256" y="604.929187"/>
     <use style="fill:#dfdfdf;stroke:#dfdfdf;" x="846.624967" xlink:href="#m960f95f256" y="538.375288"/>
    </g>
   </g>
   <g id="PathCollection_21">
    <defs>
     <path d="M 0 8.660254 
C 2.296726 8.660254 4.499694 7.747755 6.123724 6.123724 
C 7.747755 4.499694 8.660254 2.296726 8.660254 0 
C 8.660254 -2.296726 7.747755 -4.499694 6.123724 -6.123724 
C 4.499694 -7.747755 2.296726 -8.660254 0 -8.660254 
C -2.296726 -8.660254 -4.499694 -7.747755 -6.123724 -6.123724 
C -7.747755 -4.499694 -8.660254 -2.296726 -8.660254 0 
C -8.660254 2.296726 -7.747755 4.499694 -6.123724 6.123724 
C -4.499694 7.747755 -2.296726 8.660254 0 8.660254 
z
" id="C6_0_2daa3dbd11"/>
    </defs>
    <g clip-path="url(#p061611fbfa)">
     <use style="fill:#445cfb;stroke:#445cfb;" x="891.16209" xlink:href="#C6_0_2daa3dbd11" y="638.206136"/>
    </g>
    <g clip-path="url(#p061611fbfa)">
     <use style="fill:#445cfb;stroke:#445cfb;" x="891.16209" xlink:href="#C6_0_2daa3dbd11" y="538.375288"/>
    </g>
    <g clip-path="url(#p061611fbfa)">
     <use style="fill:#445cfb;stroke:#445cfb;" x="891.16209" xlink:href="#C6_0_2daa3dbd11" y="571.652238"/>
    </g>
   </g>
   <g id="PathCollection_22">
    <g clip-path="url(#p061611fbfa)">
     <use style="fill:#dfdfdf;stroke:#dfdfdf;" x="891.16209" xlink:href="#m960f95f256" y="604.929187"/>
    </g>
   </g>
   <g id="PathCollection_23">
    <defs>
     <path d="M 0 8.660254 
C 2.296726 8.660254 4.499694 7.747755 6.123724 6.123724 
C 7.747755 4.499694 8.660254 2.296726 8.660254 0 
C 8.660254 -2.296726 7.747755 -4.499694 6.123724 -6.123724 
C 4.499694 -7.747755 2.296726 -8.660254 0 -8.660254 
C -2.296726 -8.660254 -4.499694 -7.747755 -6.123724 -6.123724 
C -7.747755 -4.499694 -8.660254 -2.296726 -8.660254 0 
C -8.660254 2.296726 -7.747755 4.499694 -6.123724 6.123724 
C -4.499694 7.747755 -2.296726 8.660254 0 8.660254 
z
" id="C7_0_30f7fd7d5e"/>
    </defs>
    <g clip-path="url(#p061611fbfa)">
     <use style="fill:#0ca7ef;stroke:#0ca7ef;" x="935.699214" xlink:href="#C7_0_30f7fd7d5e" y="604.929187"/>
    </g>
    <g clip-path="url(#p061611fbfa)">
     <use style="fill:#0ca7ef;stroke:#0ca7ef;" x="935.699214" xlink:href="#C7_0_30f7fd7d5e" y="538.375288"/>
    </g>
    <g clip-path="url(#p061611fbfa)">
     <use style="fill:#0ca7ef;stroke:#0ca7ef;" x="935.699214" xlink:href="#C7_0_30f7fd7d5e" y="571.652238"/>
    </g>
   </g>
   <g id="PathCollection_24">
    <g clip-path="url(#p061611fbfa)">
     <use style="fill:#dfdfdf;stroke:#dfdfdf;" x="935.699214" xlink:href="#m960f95f256" y="638.206136"/>
    </g>
   </g>
   <g id="PathCollection_25">
    <defs>
     <path d="M 0 8.660254 
C 2.296726 8.660254 4.499694 7.747755 6.123724 6.123724 
C 7.747755 4.499694 8.660254 2.296726 8.660254 0 
C 8.660254 -2.296726 7.747755 -4.499694 6.123724 -6.123724 
C 4.499694 -7.747755 2.296726 -8.660254 0 -8.660254 
C -2.296726 -8.660254 -4.499694 -7.747755 -6.123724 -6.123724 
C -7.747755 -4.499694 -8.660254 -2.296726 -8.660254 0 
C -8.660254 2.296726 -7.747755 4.499694 -6.123724 6.123724 
C -4.499694 7.747755 -2.296726 8.660254 0 8.660254 
z
" id="C8_0_26856cc13b"/>
    </defs>
    <g clip-path="url(#p061611fbfa)">
     <use style="fill:#ffa759;stroke:#ffa759;" x="980.236338" xlink:href="#C8_0_26856cc13b" y="638.206136"/>
    </g>
    <g clip-path="url(#p061611fbfa)">
     <use style="fill:#ffa759;stroke:#ffa759;" x="980.236338" xlink:href="#C8_0_26856cc13b" y="538.375288"/>
    </g>
   </g>
   <g id="PathCollection_26">
    <g clip-path="url(#p061611fbfa)">
     <use style="fill:#dfdfdf;stroke:#dfdfdf;" x="980.236338" xlink:href="#m960f95f256" y="604.929187"/>
     <use style="fill:#dfdfdf;stroke:#dfdfdf;" x="980.236338" xlink:href="#m960f95f256" y="571.652238"/>
    </g>
   </g>
   <g id="PathCollection_27">
    <defs>
     <path d="M 0 8.660254 
C 2.296726 8.660254 4.499694 7.747755 6.123724 6.123724 
C 7.747755 4.499694 8.660254 2.296726 8.660254 0 
C 8.660254 -2.296726 7.747755 -4.499694 6.123724 -6.123724 
C 4.499694 -7.747755 2.296726 -8.660254 0 -8.660254 
C -2.296726 -8.660254 -4.499694 -7.747755 -6.123724 -6.123724 
C -7.747755 -4.499694 -8.660254 -2.296726 -8.660254 0 
C -8.660254 2.296726 -7.747755 4.499694 -6.123724 6.123724 
C -4.499694 7.747755 -2.296726 8.660254 0 8.660254 
z
" id="C9_0_3eb1e89c73"/>
    </defs>
    <g clip-path="url(#p061611fbfa)">
     <use style="fill:#ff5c2f;stroke:#ff5c2f;" x="1024.773462" xlink:href="#C9_0_3eb1e89c73" y="604.929187"/>
    </g>
    <g clip-path="url(#p061611fbfa)">
     <use style="fill:#ff5c2f;stroke:#ff5c2f;" x="1024.773462" xlink:href="#C9_0_3eb1e89c73" y="538.375288"/>
    </g>
   </g>
   <g id="PathCollection_28">
    <g clip-path="url(#p061611fbfa)">
     <use style="fill:#dfdfdf;stroke:#dfdfdf;" x="1024.773462" xlink:href="#m960f95f256" y="638.206136"/>
     <use style="fill:#dfdfdf;stroke:#dfdfdf;" x="1024.773462" xlink:href="#m960f95f256" y="571.652238"/>
    </g>
   </g>
   <g id="PathCollection_29">
    <defs>
     <path d="M 0 8.660254 
C 2.296726 8.660254 4.499694 7.747755 6.123724 6.123724 
C 7.747755 4.499694 8.660254 2.296726 8.660254 0 
C 8.660254 -2.296726 7.747755 -4.499694 6.123724 -6.123724 
C 4.499694 -7.747755 2.296726 -8.660254 0 -8.660254 
C -2.296726 -8.660254 -4.499694 -7.747755 -6.123724 -6.123724 
C -7.747755 -4.499694 -8.660254 -2.296726 -8.660254 0 
C -8.660254 2.296726 -7.747755 4.499694 -6.123724 6.123724 
C -4.499694 7.747755 -2.296726 8.660254 0 8.660254 
z
" id="Ca_0_73951a478f"/>
    </defs>
    <g clip-path="url(#p061611fbfa)">
     <use style="fill:#9bfba5;stroke:#9bfba5;" x="1069.310585" xlink:href="#Ca_0_73951a478f" y="604.929187"/>
    </g>
    <g clip-path="url(#p061611fbfa)">
     <use style="fill:#9bfba5;stroke:#9bfba5;" x="1069.310585" xlink:href="#Ca_0_73951a478f" y="571.652238"/>
    </g>
   </g>
   <g id="PathCollection_30">
    <g clip-path="url(#p061611fbfa)">
     <use style="fill:#dfdfdf;stroke:#dfdfdf;" x="1069.310585" xlink:href="#m960f95f256" y="638.206136"/>
     <use style="fill:#dfdfdf;stroke:#dfdfdf;" x="1069.310585" xlink:href="#m960f95f256" y="538.375288"/>
    </g>
   </g>
   <g id="matplotlib.axis_3">
    <g id="xtick_5"/>
    <g id="xtick_6"/>
    <g id="xtick_7"/>
    <g id="xtick_8"/>
    <g id="xtick_9"/>
    <g id="xtick_10"/>
    <g id="xtick_11"/>
    <g id="xtick_12"/>
   </g>
   <g id="matplotlib.axis_4">
    <g id="ytick_5"/>
    <g id="ytick_6"/>
    <g id="ytick_7"/>
    <g id="ytick_8"/>
   </g>
   <g id="LineCollection_1">
    <path clip-path="url(#p061611fbfa)" d="M 445.790853 638.206136 
L 445.790853 638.206136 
" style="fill:none;stroke:#404040;stroke-width:3.5;"/>
   </g>
   <g id="LineCollection_2">
    <path clip-path="url(#p061611fbfa)" d="M 490.327977 638.206136 
L 490.327977 604.929187 
" style="fill:none;stroke:#404040;stroke-width:3.5;"/>
   </g>
   <g id="LineCollection_3">
    <path clip-path="url(#p061611fbfa)" d="M 534.865101 571.652238 
L 534.865101 571.652238 
" style="fill:none;stroke:#404040;stroke-width:3.5;"/>
   </g>
   <g id="LineCollection_4">
    <path clip-path="url(#p061611fbfa)" d="M 579.402224 638.206136 
L 579.402224 538.375288 
" style="fill:none;stroke:#7c06ff;stroke-width:3.5;"/>
   </g>
   <g id="LineCollection_5">
    <path clip-path="url(#p061611fbfa)" d="M 623.939348 538.375288 
L 623.939348 538.375288 
" style="fill:none;stroke:#404040;stroke-width:3.5;"/>
   </g>
   <g id="LineCollection_6">
    <path clip-path="url(#p061611fbfa)" d="M 668.476472 604.929187 
L 668.476472 604.929187 
" style="fill:none;stroke:#404040;stroke-width:3.5;"/>
   </g>
   <g id="LineCollection_7">
    <path clip-path="url(#p061611fbfa)" d="M 713.013596 571.652238 
L 713.013596 538.375288 
" style="fill:none;stroke:#ff0603;stroke-width:3.5;"/>
   </g>
   <g id="LineCollection_8">
    <path clip-path="url(#p061611fbfa)" d="M 757.550719 638.206136 
L 757.550719 538.375288 
" style="fill:none;stroke:#d2de81;stroke-width:3.5;"/>
   </g>
   <g id="LineCollection_9">
    <path clip-path="url(#p061611fbfa)" d="M 802.087843 638.206136 
L 802.087843 571.652238 
" style="fill:none;stroke:#2ddedc;stroke-width:3.5;"/>
   </g>
   <g id="LineCollection_10">
    <path clip-path="url(#p061611fbfa)" d="M 846.624967 638.206136 
L 846.624967 571.652238 
" style="fill:none;stroke:#64fbc3;stroke-width:3.5;"/>
   </g>
   <g id="LineCollection_11">
    <path clip-path="url(#p061611fbfa)" d="M 891.16209 638.206136 
L 891.16209 538.375288 
" style="fill:none;stroke:#445cfb;stroke-width:3.5;"/>
   </g>
   <g id="LineCollection_12">
    <path clip-path="url(#p061611fbfa)" d="M 935.699214 604.929187 
L 935.699214 538.375288 
" style="fill:none;stroke:#0ca7ef;stroke-width:3.5;"/>
   </g>
   <g id="LineCollection_13">
    <path clip-path="url(#p061611fbfa)" d="M 980.236338 638.206136 
L 980.236338 538.375288 
" style="fill:none;stroke:#ffa759;stroke-width:3.5;"/>
   </g>
   <g id="LineCollection_14">
    <path clip-path="url(#p061611fbfa)" d="M 1024.773462 604.929187 
L 1024.773462 538.375288 
" style="fill:none;stroke:#ff5c2f;stroke-width:3.5;"/>
   </g>
   <g id="LineCollection_15">
    <path clip-path="url(#p061611fbfa)" d="M 1069.310585 604.929187 
L 1069.310585 571.652238 
" style="fill:none;stroke:#9bfba5;stroke-width:3.5;"/>
   </g>
  </g>
  <g id="axes_4">
   <g id="patch_11">
    <path d="M 391.232877 517.605882 
L 1101.6 517.605882 
L 1101.6 90.72 
L 391.232877 90.72 
z
" style="fill:#ffffff;"/>
   </g>
   <g id="matplotlib.axis_5">
    <g id="xtick_13"/>
    <g id="xtick_14"/>
    <g id="xtick_15"/>
    <g id="xtick_16"/>
    <g id="xtick_17"/>
    <g id="xtick_18"/>
    <g id="xtick_19"/>
    <g id="xtick_20"/>
   </g>
   <g id="matplotlib.axis_6">
    <g id="ytick_9">
     <g id="line2d_5">
      <path clip-path="url(#p3477e24819)" d="M 391.232877 501.795294 
L 1101.6 501.795294 
" style="fill:none;stroke:#808080;stroke-dasharray:0.25,0.4125;stroke-dashoffset:0;stroke-width:0.25;"/>
     </g>
     <g id="line2d_6">
      <defs>
       <path d="M 0 0 
L -3.5 0 
" id="ma360d9bb53" style="stroke:#000000;stroke-width:0.8;"/>
      </defs>
      <g>
       <use style="stroke:#000000;stroke-width:0.8;" x="391.232877" xlink:href="#ma360d9bb53" y="501.795294"/>
      </g>
     </g>
     <g id="text_11">
      <!-- 0.0 -->
      <defs>
       <path d="M 10.6875 12.40625 
L 21 12.40625 
L 21 0 
L 10.6875 0 
z
" id="DejaVuSans-2e"/>
      </defs>
      <g transform="translate(368.329752 505.594513)scale(0.1 -0.1)">
       <use xlink:href="#DejaVuSans-30"/>
       <use x="63.623047" xlink:href="#DejaVuSans-2e"/>
       <use x="95.410156" xlink:href="#DejaVuSans-30"/>
      </g>
     </g>
    </g>
    <g id="ytick_10">
     <g id="line2d_7">
      <path clip-path="url(#p3477e24819)" d="M 391.232877 438.114512 
L 1101.6 438.114512 
" style="fill:none;stroke:#808080;stroke-dasharray:0.25,0.4125;stroke-dashoffset:0;stroke-width:0.25;"/>
     </g>
     <g id="line2d_8">
      <g>
       <use style="stroke:#000000;stroke-width:0.8;" x="391.232877" xlink:href="#ma360d9bb53" y="438.114512"/>
      </g>
     </g>
     <g id="text_12">
      <!-- 0.5 -->
      <defs>
       <path d="M 10.796875 72.90625 
L 49.515625 72.90625 
L 49.515625 64.59375 
L 19.828125 64.59375 
L 19.828125 46.734375 
Q 21.96875 47.46875 24.109375 47.828125 
Q 26.265625 48.1875 28.421875 48.1875 
Q 40.625 48.1875 47.75 41.5 
Q 54.890625 34.8125 54.890625 23.390625 
Q 54.890625 11.625 47.5625 5.09375 
Q 40.234375 -1.421875 26.90625 -1.421875 
Q 22.3125 -1.421875 17.546875 -0.640625 
Q 12.796875 0.140625 7.71875 1.703125 
L 7.71875 11.625 
Q 12.109375 9.234375 16.796875 8.0625 
Q 21.484375 6.890625 26.703125 6.890625 
Q 35.15625 6.890625 40.078125 11.328125 
Q 45.015625 15.765625 45.015625 23.390625 
Q 45.015625 31 40.078125 35.4375 
Q 35.15625 39.890625 26.703125 39.890625 
Q 22.75 39.890625 18.8125 39.015625 
Q 14.890625 38.140625 10.796875 36.28125 
z
" id="DejaVuSans-35"/>
      </defs>
      <g transform="translate(368.329752 441.91373)scale(0.1 -0.1)">
       <use xlink:href="#DejaVuSans-30"/>
       <use x="63.623047" xlink:href="#DejaVuSans-2e"/>
       <use x="95.410156" xlink:href="#DejaVuSans-35"/>
      </g>
     </g>
    </g>
    <g id="ytick_11">
     <g id="line2d_9">
      <path clip-path="url(#p3477e24819)" d="M 391.232877 374.433729 
L 1101.6 374.433729 
" style="fill:none;stroke:#808080;stroke-dasharray:0.25,0.4125;stroke-dashoffset:0;stroke-width:0.25;"/>
     </g>
     <g id="line2d_10">
      <g>
       <use style="stroke:#000000;stroke-width:0.8;" x="391.232877" xlink:href="#ma360d9bb53" y="374.433729"/>
      </g>
     </g>
     <g id="text_13">
      <!-- 1.0 -->
      <g transform="translate(368.329752 378.232948)scale(0.1 -0.1)">
       <use xlink:href="#DejaVuSans-31"/>
       <use x="63.623047" xlink:href="#DejaVuSans-2e"/>
       <use x="95.410156" xlink:href="#DejaVuSans-30"/>
      </g>
     </g>
    </g>
    <g id="ytick_12">
     <g id="line2d_11">
      <path clip-path="url(#p3477e24819)" d="M 391.232877 310.752947 
L 1101.6 310.752947 
" style="fill:none;stroke:#808080;stroke-dasharray:0.25,0.4125;stroke-dashoffset:0;stroke-width:0.25;"/>
     </g>
     <g id="line2d_12">
      <g>
       <use style="stroke:#000000;stroke-width:0.8;" x="391.232877" xlink:href="#ma360d9bb53" y="310.752947"/>
      </g>
     </g>
     <g id="text_14">
      <!-- 1.5 -->
      <g transform="translate(368.329752 314.552166)scale(0.1 -0.1)">
       <use xlink:href="#DejaVuSans-31"/>
       <use x="63.623047" xlink:href="#DejaVuSans-2e"/>
       <use x="95.410156" xlink:href="#DejaVuSans-35"/>
      </g>
     </g>
    </g>
    <g id="ytick_13">
     <g id="line2d_13">
      <path clip-path="url(#p3477e24819)" d="M 391.232877 247.072165 
L 1101.6 247.072165 
" style="fill:none;stroke:#808080;stroke-dasharray:0.25,0.4125;stroke-dashoffset:0;stroke-width:0.25;"/>
     </g>
     <g id="line2d_14">
      <g>
       <use style="stroke:#000000;stroke-width:0.8;" x="391.232877" xlink:href="#ma360d9bb53" y="247.072165"/>
      </g>
     </g>
     <g id="text_15">
      <!-- 2.0 -->
      <g transform="translate(368.329752 250.871383)scale(0.1 -0.1)">
       <use xlink:href="#DejaVuSans-32"/>
       <use x="63.623047" xlink:href="#DejaVuSans-2e"/>
       <use x="95.410156" xlink:href="#DejaVuSans-30"/>
      </g>
     </g>
    </g>
    <g id="ytick_14">
     <g id="line2d_15">
      <path clip-path="url(#p3477e24819)" d="M 391.232877 183.391382 
L 1101.6 183.391382 
" style="fill:none;stroke:#808080;stroke-dasharray:0.25,0.4125;stroke-dashoffset:0;stroke-width:0.25;"/>
     </g>
     <g id="line2d_16">
      <g>
       <use style="stroke:#000000;stroke-width:0.8;" x="391.232877" xlink:href="#ma360d9bb53" y="183.391382"/>
      </g>
     </g>
     <g id="text_16">
      <!-- 2.5 -->
      <g transform="translate(368.329752 187.190601)scale(0.1 -0.1)">
       <use xlink:href="#DejaVuSans-32"/>
       <use x="63.623047" xlink:href="#DejaVuSans-2e"/>
       <use x="95.410156" xlink:href="#DejaVuSans-35"/>
      </g>
     </g>
    </g>
    <g id="ytick_15">
     <g id="line2d_17">
      <path clip-path="url(#p3477e24819)" d="M 391.232877 119.7106 
L 1101.6 119.7106 
" style="fill:none;stroke:#808080;stroke-dasharray:0.25,0.4125;stroke-dashoffset:0;stroke-width:0.25;"/>
     </g>
     <g id="line2d_18">
      <g>
       <use style="stroke:#000000;stroke-width:0.8;" x="391.232877" xlink:href="#ma360d9bb53" y="119.7106"/>
      </g>
     </g>
     <g id="text_17">
      <!-- 3.0 -->
      <defs>
       <path d="M 40.578125 39.3125 
Q 47.65625 37.796875 51.625 33 
Q 55.609375 28.21875 55.609375 21.1875 
Q 55.609375 10.40625 48.1875 4.484375 
Q 40.765625 -1.421875 27.09375 -1.421875 
Q 22.515625 -1.421875 17.65625 -0.515625 
Q 12.796875 0.390625 7.625 2.203125 
L 7.625 11.71875 
Q 11.71875 9.328125 16.59375 8.109375 
Q 21.484375 6.890625 26.8125 6.890625 
Q 36.078125 6.890625 40.9375 10.546875 
Q 45.796875 14.203125 45.796875 21.1875 
Q 45.796875 27.640625 41.28125 31.265625 
Q 36.765625 34.90625 28.71875 34.90625 
L 20.21875 34.90625 
L 20.21875 43.015625 
L 29.109375 43.015625 
Q 36.375 43.015625 40.234375 45.921875 
Q 44.09375 48.828125 44.09375 54.296875 
Q 44.09375 59.90625 40.109375 62.90625 
Q 36.140625 65.921875 28.71875 65.921875 
Q 24.65625 65.921875 20.015625 65.03125 
Q 15.375 64.15625 9.8125 62.3125 
L 9.8125 71.09375 
Q 15.4375 72.65625 20.34375 73.4375 
Q 25.25 74.21875 29.59375 74.21875 
Q 40.828125 74.21875 47.359375 69.109375 
Q 53.90625 64.015625 53.90625 55.328125 
Q 53.90625 49.265625 50.4375 45.09375 
Q 46.96875 40.921875 40.578125 39.3125 
z
" id="DejaVuSans-33"/>
      </defs>
      <g transform="translate(368.329752 123.509819)scale(0.1 -0.1)">
       <use xlink:href="#DejaVuSans-33"/>
       <use x="63.623047" xlink:href="#DejaVuSans-2e"/>
       <use x="95.410156" xlink:href="#DejaVuSans-30"/>
      </g>
     </g>
    </g>
    <g id="text_18">
     <!-- Intersection size -->
     <defs>
      <path d="M 9.1875 72.90625 
L 27.984375 72.90625 
L 27.984375 0 
L 9.1875 0 
z
" id="DejaVuSans-Bold-49"/>
      <path d="M 63.375 33.296875 
L 63.375 0 
L 45.796875 0 
L 45.796875 5.421875 
L 45.796875 25.484375 
Q 45.796875 32.5625 45.484375 35.25 
Q 45.171875 37.9375 44.390625 39.203125 
Q 43.359375 40.921875 41.59375 41.875 
Q 39.84375 42.828125 37.59375 42.828125 
Q 32.125 42.828125 29 38.59375 
Q 25.875 34.375 25.875 26.90625 
L 25.875 0 
L 8.40625 0 
L 8.40625 54.6875 
L 25.875 54.6875 
L 25.875 46.6875 
Q 29.828125 51.46875 34.265625 53.734375 
Q 38.71875 56 44.09375 56 
Q 53.5625 56 58.46875 50.1875 
Q 63.375 44.390625 63.375 33.296875 
z
" id="DejaVuSans-Bold-6e"/>
      <path d="M 49.03125 39.796875 
Q 46.734375 40.875 44.453125 41.375 
Q 42.1875 41.890625 39.890625 41.890625 
Q 33.15625 41.890625 29.515625 37.5625 
Q 25.875 33.25 25.875 25.203125 
L 25.875 0 
L 8.40625 0 
L 8.40625 54.6875 
L 25.875 54.6875 
L 25.875 45.703125 
Q 29.25 51.078125 33.609375 53.53125 
Q 37.984375 56 44.09375 56 
Q 44.96875 56 45.984375 55.921875 
Q 47.015625 55.859375 48.96875 55.609375 
z
" id="DejaVuSans-Bold-72"/>
      <path d="M 52.59375 52.984375 
L 52.59375 38.71875 
Q 49.03125 41.15625 45.4375 42.328125 
Q 41.84375 43.5 37.984375 43.5 
Q 30.671875 43.5 26.59375 39.234375 
Q 22.515625 34.96875 22.515625 27.296875 
Q 22.515625 19.625 26.59375 15.34375 
Q 30.671875 11.078125 37.984375 11.078125 
Q 42.09375 11.078125 45.78125 12.296875 
Q 49.46875 13.53125 52.59375 15.921875 
L 52.59375 1.609375 
Q 48.484375 0.09375 44.265625 -0.65625 
Q 40.046875 -1.421875 35.796875 -1.421875 
Q 21 -1.421875 12.640625 6.171875 
Q 4.296875 13.765625 4.296875 27.296875 
Q 4.296875 40.828125 12.640625 48.40625 
Q 21 56 35.796875 56 
Q 40.09375 56 44.265625 55.25 
Q 48.4375 54.5 52.59375 52.984375 
z
" id="DejaVuSans-Bold-63"/>
      <path d="M 34.421875 43.5 
Q 28.609375 43.5 25.5625 39.328125 
Q 22.515625 35.15625 22.515625 27.296875 
Q 22.515625 19.4375 25.5625 15.25 
Q 28.609375 11.078125 34.421875 11.078125 
Q 40.140625 11.078125 43.15625 15.25 
Q 46.1875 19.4375 46.1875 27.296875 
Q 46.1875 35.15625 43.15625 39.328125 
Q 40.140625 43.5 34.421875 43.5 
z
M 34.421875 56 
Q 48.53125 56 56.46875 48.375 
Q 64.40625 40.765625 64.40625 27.296875 
Q 64.40625 13.8125 56.46875 6.1875 
Q 48.53125 -1.421875 34.421875 -1.421875 
Q 20.265625 -1.421875 12.28125 6.1875 
Q 4.296875 13.8125 4.296875 27.296875 
Q 4.296875 40.765625 12.28125 48.375 
Q 20.265625 56 34.421875 56 
z
" id="DejaVuSans-Bold-6f"/>
     </defs>
     <g transform="translate(359.626158 365.039504)rotate(-90)scale(0.13 -0.13)">
      <use xlink:href="#DejaVuSans-Bold-49"/>
      <use x="37.207031" xlink:href="#DejaVuSans-Bold-6e"/>
      <use x="108.398438" xlink:href="#DejaVuSans-Bold-74"/>
      <use x="156.201172" xlink:href="#DejaVuSans-Bold-65"/>
      <use x="224.023438" xlink:href="#DejaVuSans-Bold-72"/>
      <use x="273.339844" xlink:href="#DejaVuSans-Bold-73"/>
      <use x="332.861328" xlink:href="#DejaVuSans-Bold-65"/>
      <use x="400.683594" xlink:href="#DejaVuSans-Bold-63"/>
      <use x="459.960938" xlink:href="#DejaVuSans-Bold-74"/>
      <use x="507.763672" xlink:href="#DejaVuSans-Bold-69"/>
      <use x="542.041016" xlink:href="#DejaVuSans-Bold-6f"/>
      <use x="610.742188" xlink:href="#DejaVuSans-Bold-6e"/>
      <use x="681.933594" xlink:href="#DejaVuSans-Bold-20"/>
      <use x="716.748047" xlink:href="#DejaVuSans-Bold-73"/>
      <use x="776.269531" xlink:href="#DejaVuSans-Bold-69"/>
      <use x="810.546875" xlink:href="#DejaVuSans-Bold-7a"/>
      <use x="868.75" xlink:href="#DejaVuSans-Bold-65"/>
     </g>
    </g>
    <g id="text_19">
     <!-- 1e4 -->
     <g transform="translate(391.232877 87.72)scale(0.1 -0.1)">
      <use xlink:href="#DejaVuSans-31"/>
      <use x="63.623047" xlink:href="#DejaVuSans-65"/>
      <use x="125.146484" xlink:href="#DejaVuSans-34"/>
     </g>
    </g>
   </g>
   <g id="patch_12">
    <path clip-path="url(#p3477e24819)" d="M 423.522291 501.795294 
L 445.790853 501.795294 
L 445.790853 125.352717 
L 423.522291 125.352717 
z
" style="fill:#404040;"/>
   </g>
   <g id="patch_13">
    <path clip-path="url(#p3477e24819)" d="M 468.059415 501.795294 
L 490.327977 501.795294 
L 490.327977 137.50301 
L 468.059415 137.50301 
z
" style="fill:#404040;"/>
   </g>
   <g id="patch_14">
    <path clip-path="url(#p3477e24819)" d="M 512.596539 501.795294 
L 534.865101 501.795294 
L 534.865101 259.566334 
L 512.596539 259.566334 
z
" style="fill:#404040;"/>
   </g>
   <g id="patch_15">
    <path clip-path="url(#p3477e24819)" d="M 557.133663 501.795294 
L 579.402224 501.795294 
L 579.402224 386.622231 
L 557.133663 386.622231 
z
" style="fill:#7c06ff;"/>
   </g>
   <g id="patch_16">
    <path clip-path="url(#p3477e24819)" d="M 601.670786 501.795294 
L 623.939348 501.795294 
L 623.939348 451.283698 
L 601.670786 451.283698 
z
" style="fill:#404040;"/>
   </g>
   <g id="patch_17">
    <path clip-path="url(#p3477e24819)" d="M 646.20791 501.795294 
L 668.476472 501.795294 
L 668.476472 453.779984 
L 646.20791 453.779984 
z
" style="fill:#404040;"/>
   </g>
   <g id="patch_18">
    <path clip-path="url(#p3477e24819)" d="M 690.745034 501.795294 
L 713.013596 501.795294 
L 713.013596 468.553926 
L 690.745034 468.553926 
z
" style="fill:#ff0603;"/>
   </g>
   <g id="patch_19">
    <path clip-path="url(#p3477e24819)" d="M 735.282157 501.795294 
L 757.550719 501.795294 
L 757.550719 483.824577 
L 735.282157 483.824577 
z
" style="fill:#d2de81;"/>
   </g>
   <g id="patch_20">
    <path clip-path="url(#p3477e24819)" d="M 779.819281 501.795294 
L 802.087843 501.795294 
L 802.087843 495.045131 
L 779.819281 495.045131 
z
" style="fill:#2ddedc;"/>
   </g>
   <g id="patch_21">
    <path clip-path="url(#p3477e24819)" d="M 824.356405 501.795294 
L 846.624967 501.795294 
L 846.624967 495.325327 
L 824.356405 495.325327 
z
" style="fill:#64fbc3;"/>
   </g>
   <g id="patch_22">
    <path clip-path="url(#p3477e24819)" d="M 868.893529 501.795294 
L 891.16209 501.795294 
L 891.16209 497.159333 
L 868.893529 497.159333 
z
" style="fill:#445cfb;"/>
   </g>
   <g id="patch_23">
    <path clip-path="url(#p3477e24819)" d="M 913.430652 501.795294 
L 935.699214 501.795294 
L 935.699214 498.789561 
L 913.430652 498.789561 
z
" style="fill:#0ca7ef;"/>
   </g>
   <g id="patch_24">
    <path clip-path="url(#p3477e24819)" d="M 957.967776 501.795294 
L 980.236338 501.795294 
L 980.236338 499.591939 
L 957.967776 499.591939 
z
" style="fill:#ffa759;"/>
   </g>
   <g id="patch_25">
    <path clip-path="url(#p3477e24819)" d="M 1002.5049 501.795294 
L 1024.773462 501.795294 
L 1024.773462 501.222167 
L 1002.5049 501.222167 
z
" style="fill:#ff5c2f;"/>
   </g>
   <g id="patch_26">
    <path clip-path="url(#p3477e24819)" d="M 1047.042023 501.795294 
L 1069.310585 501.795294 
L 1069.310585 501.247639 
L 1047.042023 501.247639 
z
" style="fill:#9bfba5;"/>
   </g>
   <g id="patch_27">
    <path d="M 391.232877 517.605882 
L 391.232877 90.72 
" style="fill:none;stroke:#000000;stroke-linecap:square;stroke-linejoin:miter;stroke-width:0.8;"/>
   </g>
   <g id="text_20">
    <!-- 3e+04 -->
    <defs>
     <path d="M 46 62.703125 
L 46 35.5 
L 73.1875 35.5 
L 73.1875 27.203125 
L 46 27.203125 
L 46 0 
L 37.796875 0 
L 37.796875 27.203125 
L 10.59375 27.203125 
L 10.59375 35.5 
L 37.796875 35.5 
L 37.796875 62.703125 
z
" id="DejaVuSans-2b"/>
    </defs>
    <g transform="translate(448.550228 118.764972)rotate(-90)scale(0.1 -0.1)">
     <use xlink:href="#DejaVuSans-33"/>
     <use x="63.623047" xlink:href="#DejaVuSans-65"/>
     <use x="125.146484" xlink:href="#DejaVuSans-2b"/>
     <use x="208.935547" xlink:href="#DejaVuSans-30"/>
     <use x="272.558594" xlink:href="#DejaVuSans-34"/>
    </g>
   </g>
   <g id="text_21">
    <!-- 2.9e+04 -->
    <defs>
     <path d="M 10.984375 1.515625 
L 10.984375 10.5 
Q 14.703125 8.734375 18.5 7.8125 
Q 22.3125 6.890625 25.984375 6.890625 
Q 35.75 6.890625 40.890625 13.453125 
Q 46.046875 20.015625 46.78125 33.40625 
Q 43.953125 29.203125 39.59375 26.953125 
Q 35.25 24.703125 29.984375 24.703125 
Q 19.046875 24.703125 12.671875 31.3125 
Q 6.296875 37.9375 6.296875 49.421875 
Q 6.296875 60.640625 12.9375 67.421875 
Q 19.578125 74.21875 30.609375 74.21875 
Q 43.265625 74.21875 49.921875 64.515625 
Q 56.59375 54.828125 56.59375 36.375 
Q 56.59375 19.140625 48.40625 8.859375 
Q 40.234375 -1.421875 26.421875 -1.421875 
Q 22.703125 -1.421875 18.890625 -0.6875 
Q 15.09375 0.046875 10.984375 1.515625 
z
M 30.609375 32.421875 
Q 37.25 32.421875 41.125 36.953125 
Q 45.015625 41.5 45.015625 49.421875 
Q 45.015625 57.28125 41.125 61.84375 
Q 37.25 66.40625 30.609375 66.40625 
Q 23.96875 66.40625 20.09375 61.84375 
Q 16.21875 57.28125 16.21875 49.421875 
Q 16.21875 41.5 20.09375 36.953125 
Q 23.96875 32.421875 30.609375 32.421875 
z
" id="DejaVuSans-39"/>
    </defs>
    <g transform="translate(493.087352 130.915265)rotate(-90)scale(0.1 -0.1)">
     <use xlink:href="#DejaVuSans-32"/>
     <use x="63.623047" xlink:href="#DejaVuSans-2e"/>
     <use x="95.410156" xlink:href="#DejaVuSans-39"/>
     <use x="159.033203" xlink:href="#DejaVuSans-65"/>
     <use x="220.556641" xlink:href="#DejaVuSans-2b"/>
     <use x="304.345703" xlink:href="#DejaVuSans-30"/>
     <use x="367.96875" xlink:href="#DejaVuSans-34"/>
    </g>
   </g>
   <g id="text_22">
    <!-- 1.9e+04 -->
    <g transform="translate(537.624476 252.978589)rotate(-90)scale(0.1 -0.1)">
     <use xlink:href="#DejaVuSans-31"/>
     <use x="63.623047" xlink:href="#DejaVuSans-2e"/>
     <use x="95.410156" xlink:href="#DejaVuSans-39"/>
     <use x="159.033203" xlink:href="#DejaVuSans-65"/>
     <use x="220.556641" xlink:href="#DejaVuSans-2b"/>
     <use x="304.345703" xlink:href="#DejaVuSans-30"/>
     <use x="367.96875" xlink:href="#DejaVuSans-34"/>
    </g>
   </g>
   <g id="text_23">
    <!-- 9e+03 -->
    <g transform="translate(582.161599 380.034486)rotate(-90)scale(0.1 -0.1)">
     <use xlink:href="#DejaVuSans-39"/>
     <use x="63.623047" xlink:href="#DejaVuSans-65"/>
     <use x="125.146484" xlink:href="#DejaVuSans-2b"/>
     <use x="208.935547" xlink:href="#DejaVuSans-30"/>
     <use x="272.558594" xlink:href="#DejaVuSans-33"/>
    </g>
   </g>
   <g id="text_24">
    <!-- 4e+03 -->
    <g transform="translate(626.698723 444.695952)rotate(-90)scale(0.1 -0.1)">
     <use xlink:href="#DejaVuSans-34"/>
     <use x="63.623047" xlink:href="#DejaVuSans-65"/>
     <use x="125.146484" xlink:href="#DejaVuSans-2b"/>
     <use x="208.935547" xlink:href="#DejaVuSans-30"/>
     <use x="272.558594" xlink:href="#DejaVuSans-33"/>
    </g>
   </g>
   <g id="text_25">
    <!-- 3.8e+03 -->
    <defs>
     <path d="M 31.78125 34.625 
Q 24.75 34.625 20.71875 30.859375 
Q 16.703125 27.09375 16.703125 20.515625 
Q 16.703125 13.921875 20.71875 10.15625 
Q 24.75 6.390625 31.78125 6.390625 
Q 38.8125 6.390625 42.859375 10.171875 
Q 46.921875 13.96875 46.921875 20.515625 
Q 46.921875 27.09375 42.890625 30.859375 
Q 38.875 34.625 31.78125 34.625 
z
M 21.921875 38.8125 
Q 15.578125 40.375 12.03125 44.71875 
Q 8.5 49.078125 8.5 55.328125 
Q 8.5 64.0625 14.71875 69.140625 
Q 20.953125 74.21875 31.78125 74.21875 
Q 42.671875 74.21875 48.875 69.140625 
Q 55.078125 64.0625 55.078125 55.328125 
Q 55.078125 49.078125 51.53125 44.71875 
Q 48 40.375 41.703125 38.8125 
Q 48.828125 37.15625 52.796875 32.3125 
Q 56.78125 27.484375 56.78125 20.515625 
Q 56.78125 9.90625 50.3125 4.234375 
Q 43.84375 -1.421875 31.78125 -1.421875 
Q 19.734375 -1.421875 13.25 4.234375 
Q 6.78125 9.90625 6.78125 20.515625 
Q 6.78125 27.484375 10.78125 32.3125 
Q 14.796875 37.15625 21.921875 38.8125 
z
M 18.3125 54.390625 
Q 18.3125 48.734375 21.84375 45.5625 
Q 25.390625 42.390625 31.78125 42.390625 
Q 38.140625 42.390625 41.71875 45.5625 
Q 45.3125 48.734375 45.3125 54.390625 
Q 45.3125 60.0625 41.71875 63.234375 
Q 38.140625 66.40625 31.78125 66.40625 
Q 25.390625 66.40625 21.84375 63.234375 
Q 18.3125 60.0625 18.3125 54.390625 
z
" id="DejaVuSans-38"/>
    </defs>
    <g transform="translate(671.235847 447.192239)rotate(-90)scale(0.1 -0.1)">
     <use xlink:href="#DejaVuSans-33"/>
     <use x="63.623047" xlink:href="#DejaVuSans-2e"/>
     <use x="95.410156" xlink:href="#DejaVuSans-38"/>
     <use x="159.033203" xlink:href="#DejaVuSans-65"/>
     <use x="220.556641" xlink:href="#DejaVuSans-2b"/>
     <use x="304.345703" xlink:href="#DejaVuSans-30"/>
     <use x="367.96875" xlink:href="#DejaVuSans-33"/>
    </g>
   </g>
   <g id="text_26">
    <!-- 2.6e+03 -->
    <g transform="translate(715.772971 461.966181)rotate(-90)scale(0.1 -0.1)">
     <use xlink:href="#DejaVuSans-32"/>
     <use x="63.623047" xlink:href="#DejaVuSans-2e"/>
     <use x="95.410156" xlink:href="#DejaVuSans-36"/>
     <use x="159.033203" xlink:href="#DejaVuSans-65"/>
     <use x="220.556641" xlink:href="#DejaVuSans-2b"/>
     <use x="304.345703" xlink:href="#DejaVuSans-30"/>
     <use x="367.96875" xlink:href="#DejaVuSans-33"/>
    </g>
   </g>
   <g id="text_27">
    <!-- 1.4e+03 -->
    <g transform="translate(760.310094 477.236832)rotate(-90)scale(0.1 -0.1)">
     <use xlink:href="#DejaVuSans-31"/>
     <use x="63.623047" xlink:href="#DejaVuSans-2e"/>
     <use x="95.410156" xlink:href="#DejaVuSans-34"/>
     <use x="159.033203" xlink:href="#DejaVuSans-65"/>
     <use x="220.556641" xlink:href="#DejaVuSans-2b"/>
     <use x="304.345703" xlink:href="#DejaVuSans-30"/>
     <use x="367.96875" xlink:href="#DejaVuSans-33"/>
    </g>
   </g>
   <g id="text_28">
    <!-- 5.3e+02 -->
    <g transform="translate(804.847218 488.457386)rotate(-90)scale(0.1 -0.1)">
     <use xlink:href="#DejaVuSans-35"/>
     <use x="63.623047" xlink:href="#DejaVuSans-2e"/>
     <use x="95.410156" xlink:href="#DejaVuSans-33"/>
     <use x="159.033203" xlink:href="#DejaVuSans-65"/>
     <use x="220.556641" xlink:href="#DejaVuSans-2b"/>
     <use x="304.345703" xlink:href="#DejaVuSans-30"/>
     <use x="367.96875" xlink:href="#DejaVuSans-32"/>
    </g>
   </g>
   <g id="text_29">
    <!-- 5.1e+02 -->
    <g transform="translate(849.384342 488.737582)rotate(-90)scale(0.1 -0.1)">
     <use xlink:href="#DejaVuSans-35"/>
     <use x="63.623047" xlink:href="#DejaVuSans-2e"/>
     <use x="95.410156" xlink:href="#DejaVuSans-31"/>
     <use x="159.033203" xlink:href="#DejaVuSans-65"/>
     <use x="220.556641" xlink:href="#DejaVuSans-2b"/>
     <use x="304.345703" xlink:href="#DejaVuSans-30"/>
     <use x="367.96875" xlink:href="#DejaVuSans-32"/>
    </g>
   </g>
   <g id="text_30">
    <!-- 3.6e+02 -->
    <g transform="translate(893.921465 490.571588)rotate(-90)scale(0.1 -0.1)">
     <use xlink:href="#DejaVuSans-33"/>
     <use x="63.623047" xlink:href="#DejaVuSans-2e"/>
     <use x="95.410156" xlink:href="#DejaVuSans-36"/>
     <use x="159.033203" xlink:href="#DejaVuSans-65"/>
     <use x="220.556641" xlink:href="#DejaVuSans-2b"/>
     <use x="304.345703" xlink:href="#DejaVuSans-30"/>
     <use x="367.96875" xlink:href="#DejaVuSans-32"/>
    </g>
   </g>
   <g id="text_31">
    <!-- 2.4e+02 -->
    <g transform="translate(938.458589 492.201816)rotate(-90)scale(0.1 -0.1)">
     <use xlink:href="#DejaVuSans-32"/>
     <use x="63.623047" xlink:href="#DejaVuSans-2e"/>
     <use x="95.410156" xlink:href="#DejaVuSans-34"/>
     <use x="159.033203" xlink:href="#DejaVuSans-65"/>
     <use x="220.556641" xlink:href="#DejaVuSans-2b"/>
     <use x="304.345703" xlink:href="#DejaVuSans-30"/>
     <use x="367.96875" xlink:href="#DejaVuSans-32"/>
    </g>
   </g>
   <g id="text_32">
    <!-- 1.7e+02 -->
    <defs>
     <path d="M 8.203125 72.90625 
L 55.078125 72.90625 
L 55.078125 68.703125 
L 28.609375 0 
L 18.3125 0 
L 43.21875 64.59375 
L 8.203125 64.59375 
z
" id="DejaVuSans-37"/>
    </defs>
    <g transform="translate(982.995713 493.004194)rotate(-90)scale(0.1 -0.1)">
     <use xlink:href="#DejaVuSans-31"/>
     <use x="63.623047" xlink:href="#DejaVuSans-2e"/>
     <use x="95.410156" xlink:href="#DejaVuSans-37"/>
     <use x="159.033203" xlink:href="#DejaVuSans-65"/>
     <use x="220.556641" xlink:href="#DejaVuSans-2b"/>
     <use x="304.345703" xlink:href="#DejaVuSans-30"/>
     <use x="367.96875" xlink:href="#DejaVuSans-32"/>
    </g>
   </g>
   <g id="text_33">
    <!-- 45 -->
    <g transform="translate(1027.532837 494.634422)rotate(-90)scale(0.1 -0.1)">
     <use xlink:href="#DejaVuSans-34"/>
     <use x="63.623047" xlink:href="#DejaVuSans-35"/>
    </g>
   </g>
   <g id="text_34">
    <!-- 43 -->
    <g transform="translate(1072.06996 494.659894)rotate(-90)scale(0.1 -0.1)">
     <use xlink:href="#DejaVuSans-34"/>
     <use x="63.623047" xlink:href="#DejaVuSans-33"/>
    </g>
   </g>
  </g>
 </g>
 <defs>
  <clipPath id="p377e538374">
   <rect height="139.097647" width="138.608219" x="153" y="522.402353"/>
  </clipPath>
  <clipPath id="p65cf77b785">
   <rect height="139.097647" width="90.961644" x="295.939726" y="522.402353"/>
  </clipPath>
  <clipPath id="p061611fbfa">
   <rect height="139.097647" width="710.367123" x="391.232877" y="522.402353"/>
  </clipPath>
  <clipPath id="p3477e24819">
   <rect height="426.885882" width="710.367123" x="391.232877" y="90.72"/>
  </clipPath>
 </defs>
</svg>
